<?xml version="1.0" encoding="iso-8859-1"?>
<!-- Generator: Adobe Illustrator 19.0.0, SVG Export Plug-In . SVG Version: 6.00 Build 0)  -->
<svg version="1.1" id="Layer_1" xmlns="http://www.w3.org/2000/svg" xmlns:xlink="http://www.w3.org/1999/xlink" x="0px" y="0px"
	 viewBox="0 0 511.999 511.999" style="enable-background:new 0 0 511.999 511.999;" xml:space="preserve">
<g>
	<path style="fill:#1F9E5E;" d="M321.236,385.927v22.544H191.282v-22.544c22.51-1.107,44.523-6.306,64.977-15.131l0.011-0.011
		C276.724,379.622,298.727,384.82,321.236,385.927z"/>
	<path style="fill:#1F9E5E;" d="M214.832,163.243c-9.402,21.877-14.736,45.913-15.075,71.158
		c-18.216-17.753-39.133-31.031-61.429-39.822c0.339-24.601,5.571-48.738,15.12-71.034
		C176.14,132.563,197.068,145.976,214.832,163.243z"/>
	<path style="fill:#1F9E5E;" d="M359.081,123.545c9.56,22.296,14.792,46.433,15.12,71.034c-22.284,8.792-43.212,22.07-61.429,39.822
		c-0.339-25.245-5.673-49.269-15.075-71.147C315.463,145.987,336.39,132.563,359.081,123.545z"/>
	<path style="fill:#1F9E5E;" d="M432.308,253.341c24.77,0.328,49.077,5.661,71.486,15.335
		c-18.092,45.167-53.665,83.272-102.2,103.308c-26.318,10.86-53.688,15.267-80.357,13.945c-22.51-1.107-44.512-6.306-64.966-15.142
		c48.659,0.655,97.522-17.561,134.643-54.694C409.412,297.581,423.21,276.179,432.308,253.341z"/>
</g>
<path style="fill:#2AB573;" d="M445.619,181.459c0.316,24.409-4.113,48.863-13.312,71.881
	c-9.097,22.838-22.895,44.241-41.393,62.751c-37.122,37.133-85.984,55.349-134.643,54.694
	c34.85-33.946,56.513-81.385,56.513-133.875c0-0.836,0-1.672-0.011-2.509c18.216-17.753,39.144-31.031,61.429-39.822
	C397.084,185.505,421.369,181.132,445.619,181.459z"/>
<path style="fill:#1F9E5E;" d="M256.248,370.785l0.011,0.011c-20.454,8.826-42.467,14.024-64.977,15.131
	c-26.657,1.322-54.027-3.085-80.334-13.945c-48.535-20.036-84.12-58.14-102.2-103.308c22.409-9.673,46.704-15.007,71.475-15.335
	c9.108,22.838,22.894,44.241,41.404,62.751C158.737,353.213,207.6,371.44,256.248,370.785z"/>
<g>
	<path style="fill:#2AB573;" d="M256.248,370.785c-7.526,0.102-15.052-0.249-22.533-1.051
		c-40.941-4.373-80.718-22.262-112.088-53.643c-18.51-18.51-32.296-39.913-41.404-62.751c-9.198-23.019-13.628-47.473-13.3-71.881
		c24.251-0.328,48.535,4.046,71.407,13.12c14.351,5.661,28.127,13.176,40.975,22.555c7.119,5.176,13.956,10.939,20.454,17.267
		c-0.011,0.836-0.011,1.672-0.011,2.509C199.746,289.4,221.399,336.839,256.248,370.785z"/>
	<path style="fill:#2AB573;" d="M312.773,234.401c0.011,0.836,0.011,1.672,0.011,2.509c0,52.49-21.663,99.929-56.513,133.875h-0.011
		h-0.011c-34.85-33.946-56.502-81.385-56.502-133.875c0-0.836,0-1.672,0.011-2.509c0.339-25.245,5.673-49.281,15.075-71.158
		c9.775-22.759,23.934-43.19,41.427-60.219c17.493,17.03,31.664,37.472,41.438,60.231
		C307.099,185.132,312.433,209.156,312.773,234.401z"/>
</g>
<g>
	<path style="fill:#1F9E5E;" d="M256.248,370.785c-7.526,0.102-15.052-0.249-22.533-1.051
		c-34.229-33.867-55.439-80.865-55.439-132.824c0-0.836,0-1.672,0.011-2.509c0.079-5.82,0.418-11.583,1.017-17.267
		c7.119,5.176,13.956,10.939,20.454,17.267c-0.011,0.836-0.011,1.672-0.011,2.509C199.746,289.4,221.399,336.839,256.248,370.785z"
		/>
	<path style="fill:#1F9E5E;" d="M256.248,370.785c7.526,0.102,15.052-0.249,22.533-1.051
		c34.229-33.867,55.439-80.865,55.439-132.824c0-0.836,0-1.672-0.011-2.509c-0.079-5.82-0.418-11.583-1.017-17.267
		c-7.119,5.176-13.956,10.939-20.454,17.267c0.011,0.836,0.011,1.672,0.011,2.509C312.749,289.4,291.098,336.839,256.248,370.785z"
		/>
</g>
<path d="M506.881,261.146c-20.191-8.716-41.314-13.903-62.938-15.501c6.836-20.614,10.164-42.102,9.879-64.044
	c-0.06-4.592-3.766-8.302-8.359-8.365c-25.74-0.354-50.83,4.267-74.642,13.711c-18.464,7.283-35.515,17.274-50.896,29.772
	c-1.819-17.544-5.984-34.628-12.445-51.027c13.87-12.655,29.521-22.961,46.684-30.719c4.425,11.829,7.587,24.097,9.422,36.576
	c0.619,4.214,4.239,7.244,8.374,7.244c0.41,0,0.826-0.029,1.244-0.092c4.632-0.681,7.833-4.988,7.152-9.619
	c-2.457-16.708-7.085-33.067-13.757-48.625c-1.809-4.222-6.656-6.231-10.918-4.536c-20.403,8.108-39.003,19.38-55.454,33.556
	c-9.757-19.421-22.605-36.97-38.326-52.274c-3.291-3.204-8.533-3.203-11.824,0c-15.715,15.297-28.56,32.843-38.316,52.264
	c-16.442-14.165-35.042-25.434-55.454-33.546c-4.265-1.695-9.111,0.315-10.921,4.539c-8.577,20.024-13.688,40.998-15.275,62.494
	c-20.484-6.737-41.823-10.009-63.575-9.718c-4.591,0.062-8.298,3.77-8.359,8.361c-0.294,21.937,3.031,43.428,9.867,64.047
	c-21.618,1.598-42.737,6.785-62.927,15.501c-4.216,1.819-6.216,6.667-4.509,10.931c19.756,49.356,57.699,87.709,106.834,107.992
	c23.854,9.847,48.779,14.819,74.231,14.818c0.287,0,0.575-0.009,0.862-0.011v13.847c0,4.681,3.794,8.475,8.475,8.475h93.239
	c4.682,0,8.475-3.795,8.475-8.475s-3.794-8.475-8.475-8.475h-84.764v-6.173c19.407-1.758,38.368-6.403,56.519-13.847
	c18.136,7.445,37.087,12.089,56.485,13.847v6.173h-3.379c-4.682,0-8.475,3.795-8.475,8.475s3.793,8.475,8.475,8.475h11.854
	c4.682,0,8.475-3.795,8.475-8.475v-13.847c0.286,0.001,0.573,0.011,0.86,0.011c25.456,0,50.393-4.971,74.254-14.818
	c49.123-20.277,87.063-58.629,106.834-107.99C513.097,267.814,511.097,262.966,506.881,261.146z M255.988,115.376
	c14.158,15.124,25.46,32.405,33.651,51.476c9.23,21.476,14.07,44.326,14.386,67.913c0.01,0.799,0.01,1.598,0.01,2.397
	c0,10.023-0.838,20.075-2.492,29.878c-0.779,4.615,2.331,8.988,6.947,9.767c4.617,0.777,8.988-2.332,9.767-6.947
	c1.748-10.365,2.656-20.98,2.717-31.571c16.432-15.407,35.274-27.372,56.079-35.579c19.14-7.589,39.196-11.764,59.732-12.442
	c-0.69,20.715-4.925,40.921-12.625,60.189c-8.945,22.458-22.24,42.61-39.513,59.894c-29.574,29.582-67.564,47.439-108.594,51.389
	c15.027-18.154,26.781-38.971,34.398-61.162c1.52-4.427-0.837-9.248-5.265-10.768c-4.42-1.515-9.248,0.836-10.767,5.265
	c-8.102,23.603-21.316,45.526-38.439,63.866c-31.036-33.144-48.032-76.067-48.032-121.779c0-0.799,0-1.598,0.01-2.396
	c0.316-23.596,5.156-46.449,14.388-67.926C230.538,147.771,241.836,130.494,255.988,115.376z M157.823,134.973
	c17.197,7.77,32.86,18.084,46.685,30.706c-6.463,16.401-10.627,33.49-12.446,51.039c-13.834-11.243-29.018-20.446-45.352-27.475
	C147.558,170.65,151.279,152.452,157.823,134.973z M113.911,364.4c-42.263-17.447-75.457-49.528-94.249-90.859
	c17.65-6.671,36.002-10.454,54.724-11.298c9.743,22.422,23.502,42.617,40.977,60.092c11.353,11.357,24.032,21.27,37.682,29.465
	c1.366,0.819,2.869,1.209,4.355,1.209c2.878,0,5.685-1.467,7.275-4.114c2.409-4.013,1.107-9.22-2.904-11.629
	c-12.464-7.481-24.044-16.537-34.42-26.915c-17.26-17.26-30.558-37.412-39.527-59.902c-7.699-19.267-11.931-39.474-12.613-60.18
	c20.538,0.678,40.596,4.852,59.74,12.447c20.786,8.196,39.627,20.161,56.065,35.576c0.257,45.689,16.023,88.777,44.837,123.432
	c-17.279-1.685-34.133-5.873-50.306-12.521c-4.33-1.776-9.282,0.288-11.061,4.616c-1.78,4.33,0.287,9.282,4.616,11.062
	c10.908,4.484,22.1,7.934,33.504,10.365c-7.26,1.274-14.606,2.105-22.013,2.47C164.258,379.02,138.472,374.54,113.911,364.4z
	 M398.088,364.4c-24.575,10.14-50.381,14.619-76.708,13.315c-7.37-0.363-14.678-1.189-21.901-2.452
	c36.534-7.735,70.072-25.835,97.158-52.929c17.488-17.5,31.245-37.697,40.967-60.091c18.728,0.844,37.081,4.626,54.731,11.298
	C473.53,314.877,440.338,346.959,398.088,364.4z"/>
<g>
</g>
<g>
</g>
<g>
</g>
<g>
</g>
<g>
</g>
<g>
</g>
<g>
</g>
<g>
</g>
<g>
</g>
<g>
</g>
<g>
</g>
<g>
</g>
<g>
</g>
<g>
</g>
<g>
</g>
</svg>
