<?xml version="1.0" encoding="iso-8859-1"?>
<!-- Generator: Adobe Illustrator 19.0.0, SVG Export Plug-In . SVG Version: 6.00 Build 0)  -->
<svg version="1.1" id="Layer_1" xmlns="http://www.w3.org/2000/svg" xmlns:xlink="http://www.w3.org/1999/xlink" x="0px" y="0px"
	 viewBox="0 0 511.997 511.997" style="enable-background:new 0 0 511.997 511.997;" xml:space="preserve">
<path style="fill:#1F9E5E;" d="M492.098,345.765c0.221,31.034-8.626,59.985-24.027,84.372
	c-27.658,43.793-76.48,72.871-132.099,72.871c-20.779,0-40.615-4.063-58.751-11.431c-5.192-2.107-10.255-4.493-15.145-7.136
	c-2.002-1.083-4.016-2.119-6.053-3.131c14.586-8.637,27.635-19.58,38.671-32.326c23.689-27.367,38.019-63.07,38.019-102.113
	c0-0.373,0-0.733-0.012-1.106H492.098z"/>
<path style="fill:#FCCA5F;" d="M332.701,345.765c0.012,0.373,0.012,0.733,0.012,1.106c0,57.214-30.778,107.246-76.689,134.439
	c-23.573,13.957-51.138,21.896-80.566,21.687c-86.014-0.605-155.823-71.626-154.997-157.651
	c0.244-25.842,6.775-50.183,18.125-71.579c15.529-29.242,23.957-61.708,24.306-94.814c0.303-28.683,11.408-57.284,33.293-79.169
	c44.188-44.188,116.605-44.188,160.794,0c21.896,21.885,32.99,50.486,33.293,79.169c0.349,32.804,8.323,65.142,23.875,94.022
	C325.833,294.674,332.527,319.434,332.701,345.765z"/>
<path style="fill:#E8B459;" d="M298.253,345.346c-0.19-25.842-5.259-50.183-14.071-71.579
	c-12.055-29.242-18.598-61.708-18.87-94.814c-0.235-28.683-8.856-57.284-25.846-79.169c-17.153-22.094-39.783-33.141-62.414-33.141
	c29.151,0,58.303,11.047,80.397,33.141c21.885,21.885,32.99,50.486,33.293,79.169c0.349,33.106,8.777,65.572,24.306,94.814
	c11.35,21.396,17.88,45.737,18.125,71.579c0.827,86.025-68.983,157.045-154.997,157.651c-0.061,0-0.12-0.002-0.18-0.002
	C244.738,502.339,298.894,431.34,298.253,345.346z"/>
<g>
	<path style="fill:#2AB573;" d="M332.348,357.606c0.01-0.154,0.016-0.31,0.027-0.463
		C332.364,357.297,332.358,357.452,332.348,357.606z"/>
	<path style="fill:#2AB573;" d="M332.591,352.859c0.015-0.411,0.03-0.823,0.042-1.235
		C332.621,352.036,332.606,352.448,332.591,352.859z"/>
	<path style="fill:#2AB573;" d="M331.273,368.138c0.031-0.235,0.058-0.471,0.09-0.707
		C331.331,367.666,331.306,367.902,331.273,368.138z"/>
	<path style="fill:#2AB573;" d="M330.398,373.748c0.061-0.348,0.122-0.695,0.18-1.044
		C330.521,373.052,330.458,373.4,330.398,373.748z"/>
	<path style="fill:#2AB573;" d="M303.605,437.667c-0.078,0.109-0.155,0.221-0.234,0.331
		C303.451,437.888,303.527,437.776,303.605,437.667z"/>
	<path style="fill:#2AB573;" d="M306.459,433.543c-0.146,0.217-0.291,0.432-0.438,0.648
		C306.168,433.975,306.314,433.76,306.459,433.543z"/>
	<path style="fill:#2AB573;" d="M329.515,378.437c0.056-0.272,0.107-0.546,0.161-0.82
		C329.622,377.891,329.571,378.165,329.515,378.437z"/>
	<path style="fill:#2AB573;" d="M297.685,445.409c-0.156,0.192-0.31,0.385-0.467,0.576
		C297.375,445.795,297.529,445.601,297.685,445.409z"/>
	<path style="fill:#2AB573;" d="M300.643,441.669c-0.165,0.215-0.332,0.428-0.498,0.643
		C300.311,442.097,300.478,441.884,300.643,441.669z"/>
	<path style="fill:#2AB573;" d="M331.837,363.422c0.041-0.386,0.083-0.773,0.12-1.161
		C331.918,362.649,331.876,363.035,331.837,363.422z"/>
	<path style="fill:#2AB573;" d="M311.365,425.713c0.134-0.228,0.268-0.456,0.4-0.686
		C311.633,425.256,311.498,425.485,311.365,425.713z"/>
	<path style="fill:#2AB573;" d="M328.312,383.797c0.07-0.289,0.143-0.576,0.211-0.865
		C328.455,383.22,328.382,383.508,328.312,383.797z"/>
	<path style="fill:#2AB573;" d="M320.399,407.731c0.113-0.265,0.223-0.533,0.334-0.8
		C320.623,407.198,320.512,407.465,320.399,407.731z"/>
	<path style="fill:#2AB573;" d="M308.997,429.631c0.003-0.006,0.007-0.012,0.01-0.016
		C309.003,429.62,309.001,429.625,308.997,429.631z"/>
	<path style="fill:#2AB573;" d="M374.608,345.765c0.012,0.373,0.012,0.733,0.012,1.106c0,45.08-19.116,85.692-49.679,114.196
		c13.503,3.808,27.743,5.855,42.462,5.855c38.368,0,73.488-13.829,100.669-36.785c15.401-24.387,24.248-53.338,24.027-84.372
		H374.608z"/>
	<path style="fill:#2AB573;" d="M316.162,416.89c0.125-0.248,0.248-0.496,0.371-0.745
		C316.41,416.394,316.287,416.642,316.162,416.89z"/>
	<path style="fill:#2AB573;" d="M327.1,388.488c0.079-0.286,0.154-0.574,0.23-0.861C327.254,387.914,327.179,388.202,327.1,388.488z
		"/>
	<path style="fill:#2AB573;" d="M322.344,402.926c0.04-0.104,0.083-0.206,0.121-0.31
		C322.425,402.72,322.383,402.822,322.344,402.926z"/>
	<path style="fill:#2AB573;" d="M325.612,393.536c0.065-0.208,0.134-0.416,0.198-0.625
		C325.746,393.12,325.677,393.327,325.612,393.536z"/>
	<path style="fill:#2AB573;" d="M324.054,398.257c0.098-0.279,0.192-0.561,0.288-0.842
		C324.246,397.696,324.151,397.976,324.054,398.257z"/>
</g>
<path style="fill:#B2741C;" d="M176.587,253.722c51.545,0,93.336,41.79,93.336,93.347c0,51.545-41.79,93.336-93.336,93.336
	c-51.557,0-93.347-41.79-93.347-93.336C83.24,295.512,125.03,253.722,176.587,253.722z"/>
<path style="fill:#995E14;" d="M176.587,253.722h-0.001c28.675,0.001,51.922,41.79,51.922,93.347
	c0,51.545-23.248,93.334-51.922,93.336h0.001c51.545,0,93.336-41.79,93.336-93.336C269.923,295.512,228.133,253.722,176.587,253.722
	z"/>
<path d="M318.849,430.002c14.599-25.059,22.315-53.715,22.315-82.872c0-0.424-0.001-0.836-0.013-1.258
	c-0.193-26.783-6.969-53.33-19.598-76.777c-14.599-27.11-22.493-58.224-22.831-89.975c-0.088-8.337-1.03-16.688-2.798-24.82
	c-1.024-4.711-5.673-7.7-10.387-6.675c-4.712,1.024-7.7,5.675-6.675,10.387c1.517,6.975,2.325,14.139,2.4,21.293
	c0.368,34.568,8.986,68.48,24.918,98.07c11.297,20.974,17.353,44.732,17.512,68.707c0.001,0.07,0.002,0.138,0.005,0.208
	c0.008,0.283,0.007,0.558,0.007,0.84c0,26.072-6.896,51.69-19.942,74.083c-12.667,21.744-30.81,40.017-52.465,52.844
	c-22.939,13.581-49.245,20.674-76.056,20.469c-39.25-0.276-76.142-15.959-103.877-44.162
	c-27.753-28.217-42.828-65.392-42.45-104.676c0.225-23.862,5.981-46.596,17.105-67.566c16.209-30.521,24.965-64.691,25.326-98.817
	c0.291-27.601,11.207-53.558,30.735-73.088c19.722-19.722,46.082-30.584,74.224-30.584c28.14,0,54.5,10.862,74.225,30.586
	c5.891,5.887,11.063,12.44,15.372,19.477c2.519,4.113,7.891,5.406,12.005,2.886c4.112-2.518,5.405-7.892,2.886-12.005
	c-5.028-8.21-11.056-15.851-17.919-22.708c-20.637-20.637-47.481-32.954-76.452-35.285c-0.923-13.041-5.159-37.887-23.301-56.029
	c-3.411-3.41-8.938-3.41-12.347,0s-3.41,8.938,0,12.346c13.494,13.494,17.136,32.726,18.093,43.497
	c-29.994,1.767-57.863,14.199-79.134,35.472c-22.777,22.779-35.509,53.054-35.849,85.25c-0.329,31.344-8.383,62.746-23.287,90.815
	c-12.275,23.138-18.894,49.276-19.143,75.586c-0.421,43.956,16.433,85.537,47.461,117.086
	c31.013,31.533,72.282,49.069,116.204,49.379c0.395,0.002,0.787,0.003,1.18,0.003c29.581,0,58.567-7.911,83.897-22.91
	C284.404,474.741,304.687,454.313,318.849,430.002z"/>
<path d="M491.819,337.294H360.942c-4.823,0-8.731,3.909-8.731,8.731s3.908,8.731,8.731,8.731h121.959
	c-1.835,36.326-16.784,70.228-42.617,96.242c-27.882,28.077-65.026,43.54-104.591,43.54c-15.663,0-31.072-2.44-45.801-7.251
	c-4.588-1.497-9.514,1.005-11.01,5.588c-1.497,4.584,1.003,9.513,5.588,11.01c16.482,5.384,33.716,8.114,51.223,8.114
	c44.251,0,85.796-17.295,116.98-48.697c31.182-31.4,48.185-73.071,47.876-117.338C500.515,341.166,496.617,337.294,491.819,337.294z
	"/>
<path d="M176.307,431.934c-34.195,0-64.838-20.372-78.066-51.903c-1.866-4.447-6.986-6.537-11.428-4.674
	c-4.446,1.866-6.539,6.982-4.674,11.428c15.956,38.034,52.92,62.61,94.168,62.61c56.28,0,102.066-45.787,102.066-102.066
	c0-56.287-45.787-102.078-102.066-102.078c-56.287,0-102.078,45.791-102.078,102.078c0,4.822,3.908,8.731,8.731,8.731
	s8.731-3.909,8.731-8.731c0-46.658,37.958-84.617,84.617-84.617c46.651,0,84.605,37.958,84.605,84.617
	C260.912,393.98,222.959,431.934,176.307,431.934z"/>
<g>
</g>
<g>
</g>
<g>
</g>
<g>
</g>
<g>
</g>
<g>
</g>
<g>
</g>
<g>
</g>
<g>
</g>
<g>
</g>
<g>
</g>
<g>
</g>
<g>
</g>
<g>
</g>
<g>
</g>
</svg>
