<?xml version="1.0" encoding="iso-8859-1"?>
<!-- Generator: Adobe Illustrator 19.0.0, SVG Export Plug-In . SVG Version: 6.00 Build 0)  -->
<svg version="1.1" id="Layer_1" xmlns="http://www.w3.org/2000/svg" xmlns:xlink="http://www.w3.org/1999/xlink" x="0px" y="0px"
	 viewBox="0 0 512.001 512.001" style="enable-background:new 0 0 512.001 512.001;" xml:space="preserve">
<path style="fill:#B2741C;" d="M369.278,62.094v143.43H143.273V62.094c0,15.188,12.311,27.51,27.51,27.51h170.986
	c1.272,0,2.51-0.08,3.737-0.264c6.098-0.814,11.566-3.645,15.715-7.794C366.195,76.56,369.278,69.683,369.278,62.094z"/>
<g>
	<path style="fill:#995E14;" d="M170.783,34.585h1.845c-1.181,2.43-1.845,5.192-1.845,8.161v46.859
		c-15.199,0-27.51-12.322-27.51-27.51c0-7.6,3.072-14.477,8.058-19.452C156.306,37.656,163.183,34.585,170.783,34.585z"/>
	<path style="fill:#995E14;" d="M369.278,62.094c0,7.588-3.083,14.466-8.058,19.452c-4.149,4.149-9.617,6.981-15.715,7.794
		c-1.169-13.262-9.548-24.461-21.194-29.63V37.427c0-0.974-0.069-1.926-0.206-2.843h17.664
		C356.968,34.585,369.278,46.895,369.278,62.094z"/>
</g>
<path style="fill:#F75469;" d="M345.505,89.341c-1.227,0.183-2.464,0.264-3.737,0.264h-17.457h-50.389
	c1.49-18.466,16.953-32.989,35.797-32.989c5.192,0,10.133,1.1,14.592,3.095C335.957,64.88,344.336,76.079,345.505,89.341z"/>
<path style="fill:#2AB573;" d="M324.311,37.427V59.71c-4.459-1.994-9.399-3.095-14.592-3.095c-18.844,0-34.307,14.523-35.797,32.989
	h-2.396c-1.49-18.466-16.953-32.989-35.809-32.989c-18.844,0-34.307,14.523-35.797,32.989h-29.138V42.746
	c0-2.969,0.665-5.731,1.845-8.161c4.253-8.849,15.153-13.457,24.931-8.883l5.307,2.476c8.001,3.748,17.526,1.41,22.891-5.594
	l5.261-6.877c6.923-9.021,20.197-9.892,28.232-1.857l8.391,8.379c6.969,6.969,18.122,7.382,25.584,0.951
	c3.679-3.175,7.966-4.596,12.173-4.596c8.861,0,17.308,6.35,18.707,16.002C324.242,35.502,324.311,36.453,324.311,37.427z"/>
<path style="fill:#F75469;" d="M271.526,89.604H199.92c1.49-18.466,16.953-32.989,35.797-32.989
	C254.574,56.615,270.036,71.138,271.526,89.604z"/>
<g>
	<path style="fill:#DD3551;" d="M143.273,203.071v2.453h-6.866c-7.038,0-13.411-2.854-18.019-7.462
		c-4.608-4.608-7.462-10.981-7.462-18.019c0-14.064,11.405-25.481,25.481-25.481h6.866
		C143.273,154.562,143.273,203.071,143.273,203.071z"/>
	<path style="fill:#DD3551;" d="M394.163,162.024c4.608,4.619,7.462,10.981,7.462,18.019c0,14.076-11.417,25.481-25.493,25.481
		h-6.855v-2.453v-48.509h6.855C383.171,154.562,389.544,157.416,394.163,162.024z"/>
</g>
<path style="fill:#F75469;" d="M401.626,180.043v323.104h-290.7V180.043c0,7.038,2.854,13.411,7.462,18.019
	c4.608,4.608,10.981,7.462,18.019,7.462h239.726C390.209,205.524,401.626,194.119,401.626,180.043z"/>
<path style="fill:#DD3551;" d="M401.626,180.043v323.104h-11.777l-39.415-44.451V205.524h25.699
	C390.209,205.524,401.626,194.119,401.626,180.043z"/>
<path style="fill:#995E14;" d="M369.278,62.094v143.43h-44.635V89.604h17.125c1.272,0,2.51-0.08,3.737-0.264
	c6.098-0.814,11.566-3.645,15.715-7.794C366.195,76.56,369.278,69.683,369.278,62.094z"/>
<path d="M399.959,156.193c-6.034-6.019-13.918-9.506-22.359-9.928v-16.281c0-4.748-3.849-8.597-8.597-8.597
	c-4.748,0-8.597,3.849-8.597,8.597v67.199H136.132c-4.512,0-8.752-1.756-11.94-4.944c-3.189-3.189-4.944-7.429-4.944-11.94
	c0-8.725,6.654-15.926,15.153-16.796v15.768c0,4.748,3.849,8.597,8.597,8.597c4.748,0,8.597-3.849,8.597-8.597V93.091
	c5.504,3.399,11.983,5.366,18.913,5.366h170.986c1.732,0,3.347-0.113,4.936-0.347c4.949-0.669,9.721-2.409,13.977-5.026v8.246
	c0,4.748,3.849,8.597,8.597,8.597c4.748,0,8.597-3.849,8.597-8.597V62.35c0-19.909-16.198-36.107-36.107-36.107h-11.351
	c-4.38-9.487-14.083-16.002-25.019-16.002c-6.57,0-12.722,2.312-17.785,6.681c-4.029,3.471-10.132,3.244-13.897-0.523l-8.387-8.374
	c-5.579-5.579-13.296-8.482-21.169-7.968c-7.878,0.516-15.155,4.405-19.97,10.68l-5.258,6.873
	c-2.892,3.776-8.115,5.054-12.431,3.031l-5.299-2.471c-11.843-5.541-25.781-1.801-33.42,8.205
	c-8.525,0.696-16.437,4.337-22.523,10.438c-6.825,6.809-10.583,15.878-10.583,25.538v83.914
	c-17.989,0.904-32.347,15.824-32.347,34.034v139.38c0,4.748,3.849,8.597,8.597,8.597c4.748,0,8.597-3.849,8.597-8.597V209.909
	c5.087,2.91,10.864,4.469,16.884,4.469h239.726c6.145,0,11.911-1.643,16.896-4.499v284.029l-34.799-40.553
	c-1.633-1.903-4.016-2.999-6.524-2.999h-35.657c-4.748,0-8.597,3.849-8.597,8.597c0,4.748,3.849,8.597,8.597,8.597h31.707
	l23.389,27.257H141.133l23.389-27.257h125.461c4.748,0,8.597-3.849,8.597-8.597c0-4.748-3.849-8.597-8.597-8.597H160.572
	c-2.508,0-4.891,1.096-6.524,2.999l-34.8,40.554V352.347c0-4.748-3.849-8.597-8.597-8.597c-4.748,0-8.597,3.849-8.597,8.597v151.057
	c0,4.748,3.849,8.597,8.597,8.597h290.7c4.748,0,8.597-3.849,8.597-8.597V180.3C409.946,171.21,406.405,162.655,399.959,156.193z
	 M320.548,67.823c6.131,2.722,10.932,7.551,13.674,13.44h-49.51c4.394-9.333,13.917-15.795,24.733-15.795
	C313.318,65.468,317.046,66.258,320.548,67.823z M210.71,81.263c4.394-9.333,13.917-15.795,24.733-15.795
	c10.821,0,20.348,6.463,24.743,15.795H210.71z M360.407,62.35c0,5.042-1.97,9.795-5.54,13.373c-1.018,1.018-2.133,1.895-3.317,2.642
	c-3.348-9.773-10.012-18.15-18.917-23.575V43.437h8.861C351.922,43.437,360.407,51.922,360.407,62.35z M193.649,33.748l5.295,2.47
	c11.564,5.417,25.595,1.99,33.366-8.156l5.253-6.867c1.82-2.372,4.465-3.785,7.446-3.981c2.972-0.194,5.778,0.86,7.892,2.972
	l8.387,8.374c10.092,10.092,26.463,10.7,37.279,1.381c1.929-1.664,4.135-2.508,6.557-2.508c4.337,0,9.385,3.027,10.205,8.681
	c0.073,0.492,0.111,1.019,0.111,1.566v11.004c-1.973-0.265-3.971-0.413-5.995-0.413c-15.252,0-28.946,7.885-36.996,19.869
	c-8.052-11.985-21.749-19.869-37.005-19.869c-20.303,0-37.848,13.967-42.984,32.989h-13.354V42.999c0-1.583,0.33-3.065,0.997-4.437
	C182.206,34.185,187.98,31.094,193.649,33.748z M157.141,48.97c1.418-1.421,3.03-2.576,4.77-3.465v33.671
	c-6.114-3.137-10.316-9.493-10.316-16.825C151.595,57.291,153.559,52.544,157.141,48.97z M377.6,197.094v-33.587
	c3.854,0.393,7.429,2.08,10.202,4.845c3.192,3.2,4.951,7.444,4.951,11.947C392.752,189.021,386.101,196.219,377.6,197.094z"/>
<circle cx="317.155" cy="120.459" r="8.597"/>
<circle cx="326.325" cy="145.677" r="8.597"/>
<circle cx="248.38" cy="147.969" r="8.597"/>
<circle cx="197.945" cy="178.127" r="8.597"/>
<circle cx="179.605" cy="121.605" r="8.597"/>
<g>
</g>
<g>
</g>
<g>
</g>
<g>
</g>
<g>
</g>
<g>
</g>
<g>
</g>
<g>
</g>
<g>
</g>
<g>
</g>
<g>
</g>
<g>
</g>
<g>
</g>
<g>
</g>
<g>
</g>
</svg>
