<?xml version="1.0" encoding="iso-8859-1"?>
<!-- Generator: Adobe Illustrator 19.0.0, SVG Export Plug-In . SVG Version: 6.00 Build 0)  -->
<svg version="1.1" id="Layer_1" xmlns="http://www.w3.org/2000/svg" xmlns:xlink="http://www.w3.org/1999/xlink" x="0px" y="0px"
	 viewBox="0 0 512.001 512.001" style="enable-background:new 0 0 512.001 512.001;" xml:space="preserve">
<path style="fill:#F75469;" d="M280.624,32.479c6.726,6.726,10.095,15.538,10.095,24.351c0,8.823-3.369,17.635-10.095,24.362
	c-6.726,6.726-15.538,10.084-24.351,10.084c-8.823,0-17.635-3.358-24.362-10.084c-13.452-13.452-13.452-35.26,0-48.712
	l24.362-24.362L280.624,32.479z"/>
<path style="fill:#FCCA5F;" d="M348.545,170.741v63.258H164.003v-63.258c0-15.349,12.437-27.786,27.786-27.786h128.97
	C336.107,142.954,348.545,155.392,348.545,170.741z"/>
<path style="fill:#E8B459;" d="M320.759,142.954h-23.948c9.649,0,17.467,12.437,17.467,27.786v63.258h34.267v-63.258
	C348.545,155.392,336.107,142.954,320.759,142.954z"/>
<g>
	<polygon style="fill:#CCCCCC;" points="135.068,503.386 135.066,503.383 135.045,503.383 	"/>
	<path style="fill:#CCCCCC;" d="M434.399,233.999H78.141c-0.03,1.345-0.051,2.693-0.051,4.046v140.257
		c0,34.543,22.11,63.906,52.943,74.753v18.687c0,10.936,1.402,21.541,4.035,31.64h242.416l-0.008,0.003h0.012
		c2.62-10.101,4.023-20.706,4.023-31.643v-18.688h-0.001c30.833-10.848,52.941-40.21,52.941-74.752V238.044
		C434.45,236.691,434.429,235.344,434.399,233.999z"/>
</g>
<g>
	<polygon style="fill:#F2F2F2;" points="135.045,503.385 135.045,503.382 135.023,503.382 	"/>
	<polygon style="fill:#F2F2F2;" points="377.472,503.385 377.473,503.382 377.495,503.382 	"/>
</g>
<path style="fill:#B3B3B3;" d="M339.546,503.382h37.926c2.632-10.106,4.038-20.703,4.038-31.646v-18.684
	c30.831-10.842,52.94-40.212,52.94-74.747V238.047c0-1.361-0.022-2.699-0.056-4.049h-37.926c0.033,1.35,0.056,2.688,0.056,4.049
	v140.258c0,34.535-22.108,63.905-52.94,74.747v18.684C343.584,482.679,342.179,493.276,339.546,503.382z"/>
<g>
	<path style="fill:#E8B459;" d="M286.001,398.719c4.071,4.06,6.102,9.392,6.102,14.724s-2.03,10.664-6.102,14.724
		c-8.132,8.132-21.316,8.132-29.448,0l-0.279-0.268l-0.279,0.268c-4.071,4.06-9.392,6.102-14.724,6.102s-10.653-2.041-14.724-6.102
		c-8.132-8.132-8.132-21.317,0-29.448l0.279-0.268l29.448-29.448l29.448,29.448L286.001,398.719z"/>
	<path style="fill:#E8B459;" d="M346.269,302.22c22.733,0,41.149,18.427,41.149,41.149c0,22.733-18.416,41.161-41.149,41.161
		s-41.149-18.427-41.149-41.161C305.12,320.648,323.536,302.22,346.269,302.22z"/>
	<path style="fill:#E8B459;" d="M166.278,302.22c22.733,0,41.161,18.427,41.161,41.149c0,22.733-18.427,41.161-41.161,41.161
		c-22.722,0-41.149-18.427-41.149-41.161C125.129,320.648,143.556,302.22,166.278,302.22z"/>
</g>
<path d="M256.005,99.89c11.435,0,22.183-4.451,30.267-12.533c8.089-8.09,12.544-18.844,12.544-30.278
	c0-11.427-4.455-22.174-12.543-30.265L261.922,2.452C260.353,0.882,258.226,0,256.006,0l0,0c-2.22,0-4.347,0.881-5.916,2.451
	l-24.362,24.362c-16.692,16.692-16.692,43.852,0,60.544C233.811,95.439,244.564,99.89,256.005,99.89z M237.56,38.643l18.445-18.444
	l18.434,18.443c0,0,0.001,0,0.001,0.001c4.929,4.929,7.645,11.477,7.645,18.435c0,6.966-2.715,13.517-7.644,18.446
	c-4.923,4.923-11.469,7.633-18.435,7.633c-6.973,0-13.524-2.711-18.446-7.633C227.391,65.356,227.391,48.812,237.56,38.643z"/>
<path d="M442.495,234.061c-0.102-4.547-3.816-8.18-8.364-8.18h-77.488v-54.892c0-19.934-16.218-36.152-36.152-36.152h-56.122
	v-13.778c0-4.62-3.746-8.366-8.366-8.366c-4.62,0-8.366,3.746-8.366,8.366v13.778h-56.116c-19.934,0-36.152,16.218-36.152,36.152
	v37.523c0,4.62,3.746,8.366,8.366,8.366c4.62,0,8.366-3.746,8.366-8.366v-37.523c0-10.708,8.712-19.42,19.42-19.42h64.449
	c0.011,0,0.021,0.001,0.032,0.001c0.011,0,0.021-0.001,0.032-0.001h64.456c10.708,0,19.42,8.712,19.42,19.42v54.892H77.873
	c-4.548,0-8.262,3.633-8.364,8.18c-0.031,1.408-0.054,2.817-0.054,4.231v75.626c0,4.62,3.746,8.366,8.366,8.366
	c4.62,0,8.366-3.746,8.366-8.366v-71.305h339.628V378.55c0,39.08-31.794,70.874-70.874,70.874c-4.62,0-8.366,3.746-8.366,8.366
	c0,4.62,3.746,8.366,8.366,8.366c6.145,0,12.143-0.642,17.934-1.853v7.687c0,7.839-0.776,15.641-2.312,23.274h-26.966v-11.444
	c0-4.62-3.746-8.366-8.366-8.366c-4.62,0-8.366,3.746-8.366,8.366v11.445H303.98v-11.444c0-4.62-3.746-8.366-8.366-8.366
	c-4.62,0-8.366,3.746-8.366,8.366v11.444h-22.886v-11.444c0-4.62-3.746-8.366-8.366-8.366c-4.62,0-8.366,3.746-8.366,8.366v11.444
	h-22.886v-11.444c0-4.62-3.746-8.366-8.366-8.366c-4.62,0-8.366,3.746-8.366,8.366v11.444h-22.886v-11.444
	c0-4.62-3.746-8.366-8.366-8.366c-4.62,0-8.366,3.746-8.366,8.366v11.444h-26.945c-1.54-7.622-2.319-15.425-2.319-23.274v-7.686
	c5.79,1.209,11.787,1.852,17.931,1.852c4.62,0,8.366-3.746,8.366-8.366c0-4.62-3.746-8.366-8.366-8.366
	c-39.08,0-70.874-31.794-70.874-70.874v-27.823c0-4.62-3.746-8.366-8.366-8.366s-8.366,3.746-8.366,8.366v27.823
	c0,35.998,21.831,66.982,52.942,80.442v12.999c0,11.285,1.411,22.492,4.193,33.318c0.692,3.373,3.435,6.083,6.997,6.604
	c0.405,0.059,0.81,0.088,1.211,0.088c0.079,0,0.16-0.001,0.238-0.003h241.945c0.078,0.002,0.157,0.003,0.235,0.003
	c3.812,0,7.14-2.576,8.098-6.264c2.848-10.975,4.291-22.328,4.291-33.745v-13.001c31.11-13.459,52.94-44.442,52.94-80.439V238.293
	C442.548,236.878,442.526,235.469,442.495,234.061z"/>
<path d="M166.009,294.103c-27.303,0-49.515,22.212-49.515,49.515c0,27.309,22.212,49.527,49.515,49.527
	c27.309,0,49.527-22.218,49.527-49.527C215.537,316.315,193.319,294.103,166.009,294.103z M166.009,376.413
	c-18.077,0-32.783-14.712-32.783-32.795c0-18.077,14.706-32.783,32.783-32.783c18.083,0,32.795,14.706,32.795,32.784
	C198.805,361.701,184.093,376.413,166.009,376.413z"/>
<path d="M382.818,363.849c4.411,1.372,9.101-1.092,10.472-5.506c1.477-4.752,2.226-9.706,2.226-14.724
	c0-27.303-22.212-49.515-49.515-49.515s-49.515,22.212-49.515,49.515c0,27.309,22.213,49.527,49.515,49.527
	c6.682,0,13.168-1.311,19.28-3.896c4.256-1.8,6.245-6.708,4.445-10.964c-1.799-4.255-6.71-6.248-10.964-4.445
	c-4.038,1.708-8.33,2.573-12.761,2.573c-18.077,0-32.783-14.712-32.783-32.795c0-18.077,14.707-32.784,32.783-32.784
	c18.076,0,32.784,14.706,32.784,32.784c0,3.332-0.495,6.615-1.472,9.758C375.941,357.787,378.406,362.477,382.818,363.849z"/>
<path d="M291.522,392.93l-29.602-29.593c-1.568-1.569-3.697-2.451-5.915-2.451c-2.219,0-4.347,0.881-5.915,2.451l-29.387,29.387
	l-0.215,0.206c-0.042,0.04-0.084,0.081-0.125,0.123c-11.381,11.381-11.381,29.899,0.008,41.288
	c5.525,5.509,12.851,8.544,20.632,8.544c5.363,0,10.51-1.441,15.001-4.142c4.485,2.697,9.635,4.138,15.005,4.138
	c7.797,0,15.127-3.036,20.632-8.541c5.52-5.505,8.56-12.838,8.56-20.647s-3.041-15.142-8.56-20.648
	C291.602,393.006,291.563,392.968,291.522,392.93z M279.817,422.501c-2.353,2.353-5.481,3.649-8.809,3.649
	c-3.327,0-6.455-1.295-8.808-3.649c-0.041-0.041-0.083-0.083-0.125-0.123l-0.279-0.268c-3.236-3.103-8.344-3.103-11.581,0
	l-0.279,0.268c-0.04,0.038-0.079,0.076-0.117,0.115c-2.366,2.36-5.497,3.66-8.817,3.66c-3.32,0-6.45-1.3-8.808-3.651
	c-2.353-2.353-3.649-5.481-3.649-8.808c0-3.302,1.276-6.408,3.595-8.755l0.207-0.199c0.042-0.04,0.084-0.081,0.125-0.123
	l23.533-23.533l23.533,23.533c0.041,0.041,0.083,0.083,0.125,0.123l0.212,0.204c2.318,2.338,3.593,5.442,3.593,8.75
	C283.469,417.024,282.175,420.149,279.817,422.501z"/>
<g>
</g>
<g>
</g>
<g>
</g>
<g>
</g>
<g>
</g>
<g>
</g>
<g>
</g>
<g>
</g>
<g>
</g>
<g>
</g>
<g>
</g>
<g>
</g>
<g>
</g>
<g>
</g>
<g>
</g>
</svg>
