<?xml version="1.0" encoding="iso-8859-1"?>
<!-- Generator: Adobe Illustrator 19.0.0, SVG Export Plug-In . SVG Version: 6.00 Build 0)  -->
<svg version="1.1" id="Layer_1" xmlns="http://www.w3.org/2000/svg" xmlns:xlink="http://www.w3.org/1999/xlink" x="0px" y="0px"
	 viewBox="0 0 512 512" style="enable-background:new 0 0 512 512;" xml:space="preserve">
<path style="fill:#F75469;" d="M311.612,73.001v44.98c0,10.122,2.767,19.853,7.745,28.249c4.99,8.407,12.203,15.49,21.083,20.338
	c17.784,9.708,28.84,28.343,28.84,48.587v255.361c0,17.867-14.485,32.352-32.352,32.352H175.643
	c-17.867,0-32.352-14.485-32.352-32.352V215.155c0-10.122,2.767-19.841,7.757-28.249c4.978-8.395,12.191-15.478,21.083-20.338
	c17.772-9.696,28.828-28.331,28.828-48.587v-44.98C200.959,73.001,311.612,73.001,311.612,73.001z"/>
<path style="fill:#DD3551;" d="M340.44,166.568c-8.88-4.848-16.093-11.931-21.083-20.338c-4.978-8.395-7.745-18.127-7.745-28.249
	v-44.98H270.82v44.98c0,10.122,2.767,19.853,7.745,28.249c4.99,8.407,12.203,15.49,21.083,20.338
	c17.784,9.708,28.84,28.343,28.84,48.587v255.361c0,17.867-14.485,32.352-32.352,32.352h40.792
	c17.867,0,32.352-14.485,32.352-32.352V215.155C369.28,194.911,358.224,176.276,340.44,166.568z"/>
<rect x="143.29" y="215.158" style="fill:#2AB573;" width="225.989" height="238.949"/>
<rect x="168.121" y="215.158" style="fill:#81D8AB;" width="28.379" height="238.949"/>
<rect x="328.485" y="215.158" style="fill:#1F9E5E;" width="40.794" height="238.949"/>
<rect x="195.141" y="269.079" transform="matrix(-0.7071 -0.7071 0.7071 -0.7071 204.0078 744.9608)" style="fill:#F75469;" width="122.299" height="122.299"/>
<rect x="190.15" y="8.605" style="fill:#2AB573;" width="132.257" height="64.396"/>
<rect x="190.15" y="8.605" style="fill:#81D8AB;" width="24.824" height="64.396"/>
<rect x="280.607" y="8.605" style="fill:#1F9E5E;" width="41.811" height="64.396"/>
<path d="M344.405,159.048c-7.325-3.999-13.448-9.904-17.705-17.077c-4.256-7.176-6.505-15.381-6.505-23.726V82.13h1.933
	c4.899,0,8.868-3.971,8.868-8.868V8.868c0-4.898-3.969-8.868-8.868-8.868H189.872c-4.899,0-8.868,3.971-8.868,8.868v64.394
	c0,4.898,3.969,8.868,8.868,8.868h1.934v36.114c0,17.021-9.276,32.656-24.213,40.805c-10.13,5.536-18.588,13.696-24.457,23.593
	c-5.887,9.918-9,21.252-9,32.776v29.075c0,4.898,3.969,8.868,8.868,8.868s8.868-3.971,8.868-8.868v-20.203h149.134
	c4.899,0,8.868-3.971,8.868-8.868c0-4.898-3.969-8.868-8.868-8.868H152.742c1.016-5.217,2.912-10.249,5.65-14.861
	c4.247-7.163,10.371-13.07,17.702-17.076c20.633-11.257,33.449-32.857,33.449-56.372V82.13h92.917v36.114
	c0,11.526,3.107,22.859,8.988,32.775c5.883,9.912,14.341,18.071,24.46,23.596c12.296,6.713,20.744,18.495,23.355,31.938h-31.651
	c-4.899,0-8.868,3.971-8.868,8.868c0,4.898,3.969,8.868,8.868,8.868h32.516v221.203h-32.516c-4.899,0-8.868,3.971-8.868,8.868
	s3.969,8.868,8.868,8.868h32.516v7.55c0,12.949-10.534,23.483-23.482,23.483H175.358c-12.949,0-23.483-10.534-23.483-23.483v-7.55
	h149.134c4.899,0,8.868-3.971,8.868-8.868s-3.969-8.868-8.868-8.868H151.874V275.238c0-4.898-3.969-8.868-8.868-8.868
	s-8.868,3.971-8.868,8.868V470.78c0,22.729,18.492,41.22,41.22,41.22h161.286c22.729,0,41.219-18.491,41.219-41.22V215.418
	C377.864,191.914,365.042,170.314,344.405,159.048z M198.741,17.737h114.521v46.657H198.741V17.737z"/>
<path d="M256.001,425.841c2.269,0,4.539-0.866,6.272-2.598l86.478-86.478c3.463-3.463,3.463-9.079,0-12.541l-86.478-86.478
	c-3.465-3.463-9.079-3.463-12.542,0l-86.478,86.478c-3.463,3.463-3.463,9.079,0,12.541l86.478,86.478
	C251.462,424.974,253.733,425.841,256.001,425.841z M256.001,256.558l73.936,73.936l-73.936,73.936l-73.936-73.936L256.001,256.558z
	"/>
<path d="M274,303.663c-3.105-3.29-6.917-5.598-11.081-6.801v-3.615c0-4.898-3.969-8.868-8.868-8.868s-8.868,3.971-8.868,8.868v5.137
	c-4.198,2.034-7.772,5.237-10.284,9.341c-3.947,6.445-4.731,14.213-2.15,21.31l0,0c3.608,9.917,7.499,24.454,5.559,37.391
	c-0.577,3.846,1.42,7.621,4.926,9.307c1.229,0.591,2.54,0.877,3.841,0.877c2.413,0,4.788-0.985,6.506-2.839
	c0.909-0.979,22.286-24.258,26.759-48.73C281.766,317.234,279.454,309.442,274,303.663z M262.891,321.852
	c-1.266,6.934-4.471,13.994-8.067,20.207c-1.193-6.09-2.996-12.461-5.405-19.087c-0.992-2.727-0.045-4.921,0.608-5.987
	c1.12-1.83,2.984-3.032,5.115-3.295c2.237-0.278,4.411,0.505,5.962,2.147C262.64,317.466,263.292,319.658,262.891,321.852z"/>
<g>
</g>
<g>
</g>
<g>
</g>
<g>
</g>
<g>
</g>
<g>
</g>
<g>
</g>
<g>
</g>
<g>
</g>
<g>
</g>
<g>
</g>
<g>
</g>
<g>
</g>
<g>
</g>
<g>
</g>
</svg>
