<?xml version="1.0" encoding="iso-8859-1"?>
<!-- Generator: Adobe Illustrator 19.0.0, SVG Export Plug-In . SVG Version: 6.00 Build 0)  -->
<svg version="1.1" id="Layer_1" xmlns="http://www.w3.org/2000/svg" xmlns:xlink="http://www.w3.org/1999/xlink" x="0px" y="0px"
	 viewBox="0 0 511.998 511.998" style="enable-background:new 0 0 511.998 511.998;" xml:space="preserve">
<path style="fill:#F75469;" d="M178.488,109.495L178.488,109.495C54.476,109.445-15.438,252.32,61.043,349.939
	c9.681,12.357,20.211,24.264,31.591,35.643c106.893,106.893,260.354,138.836,395.08,95.829c17.849-5.698,20.859-29.635,4.915-39.479
	c-81.833-50.518-143.615-130.4-170.63-224.954C303.762,153.148,244.871,109.521,178.488,109.495z"/>
<path style="fill:#DD3551;" d="M492.628,441.934c-81.833-50.518-143.615-130.4-170.63-224.954
	c-18.236-63.829-77.127-107.458-143.511-107.484l0,0c-6.075-0.003-12.017,0.35-17.822,1.011
	c55.526,14.073,62.221,78.346,78.469,135.214C268.87,349.796,402.553,386.327,492.628,441.934
	C498.078,445.297,508.572,451.775,492.628,441.934z"/>
<g>
	<path style="fill:#2AB573;" d="M60.757,135.629c-4.307-4.09-13.043-12.925-21.883-25.083
		c-25.636-35.258-8.588-85.324,33.101-98.062l0,0c-9.282,58.051,5.769,83.064,15.168,103.042"/>
	<path style="fill:#2AB573;" d="M225.945,104.068c-32.526,12.962-35.916,49.094-35.916,49.094
		c-87.355-16.582-103.313,59.344-103.313,59.344c-46.749,0-66.815,31.835-75.289,55.656C1.747,180.807,68.413,93.167,168.255,93.194
		C188.416,93.208,207.926,97.018,225.945,104.068z"/>
</g>
<path d="M190.331,445.387c-33.738-17.756-64.647-40.561-91.869-67.781c-10.986-10.988-21.345-22.673-30.789-34.739
	C57.13,329.41,49.257,314.643,44.27,298.975c-1.703-5.353-7.419-8.307-12.773-6.607c-5.351,1.703-8.31,7.422-6.606,12.773
	c5.723,17.985,14.73,34.897,26.769,50.264c9.948,12.707,20.855,25.013,32.419,36.58c28.67,28.669,61.23,52.691,96.778,71.399
	c1.51,0.795,3.132,1.173,4.726,1.173c3.655,0,7.187-1.977,9.008-5.435C197.209,454.151,195.3,448.002,190.331,445.387z"/>
<path d="M496.771,432.517c-81.152-50.106-140.2-127.95-166.263-219.192c-11.405-39.923-37.727-73.295-74.116-93.968
	c-4.884-2.773-11.091-1.064-13.866,3.819c-2.774,4.884-1.064,11.091,3.818,13.865c31.73,18.026,54.675,47.101,64.606,81.871
	c27.459,96.13,89.657,178.135,175.138,230.913c3.997,2.466,6.046,6.71,5.478,11.354c-0.574,4.69-3.617,8.355-8.139,9.8
	c-37.808,12.067-76.953,18.068-116.035,18.066c-50.638-0.001-101.159-10.079-148.428-30.09c-5.167-2.188-11.139,0.228-13.328,5.399
	c-2.19,5.171,0.228,11.139,5.399,13.329c49.802,21.084,103.004,31.7,156.356,31.699c41.156-0.001,82.409-6.322,122.221-19.03
	c12.116-3.872,20.598-14.106,22.139-26.704C513.289,451.092,507.546,439.164,496.771,432.517z"/>
<path d="M229.384,113.816c3.878-1.546,6.417-5.304,6.405-9.477c-0.012-4.173-2.576-7.917-6.463-9.438
	c-19.589-7.664-40.243-11.558-61.389-11.573c-0.003,0-0.004,0-0.007,0c-5.613,0-10.165,4.547-10.169,10.162
	c-0.004,5.616,4.546,10.171,10.162,10.175c11.499,0.008,22.832,1.319,33.876,3.91c-11.915,11.129-17.521,24.974-20.107,34.347
	c-43.792-5.353-69.728,12.049-84.031,28.27c-10.514,11.924-16.174,24.756-18.942,32.721c-22.966,1.666-42.262,10.905-56.755,26.883
	c3.249-21.585,11.306-42.52,23.758-61.146c19.979-29.884,49.79-51.25,83.936-60.163c5.434-1.418,8.688-6.973,7.27-12.407
	c-1.42-5.434-6.976-8.689-12.407-7.271c-11.587,3.025-22.728,7.311-33.269,12.722c-8.368-17.875-16.904-41.247-9.564-87.141
	c0.553-3.464-0.717-6.97-3.364-9.275c-2.645-2.304-6.292-3.082-9.648-2.055c-23.161,7.079-40.855,24.322-48.544,47.31
	c-7.636,22.827-3.922,47.05,10.189,66.457c5.567,7.655,11.097,14.061,15.641,18.923c-6.242,6.668-11.985,13.881-17.144,21.597
	C6.547,190.659-3.334,230.518,0.996,269.585c0.522,4.709,4.226,8.433,8.932,8.981c0.396,0.046,0.79,0.068,1.18,0.068
	c4.257,0,8.12-2.672,9.576-6.761c7.936-22.306,25.775-48.896,65.708-48.896c4.781,0,8.925-3.369,9.944-8.04
	c0.588-2.699,15.271-65.946,91.474-51.482c2.796,0.531,5.69-0.159,7.974-1.859c2.283-1.7,3.752-4.305,4.042-7.136
	C199.952,153.231,203.229,124.24,229.384,113.816z M39.419,56.822C43.14,45.696,50.09,36.428,59.292,29.966
	c-3.474,41.401,6.143,64.662,14.397,82.003c-4.47,3.049-8.79,6.328-12.953,9.811c-4.053-4.341-8.985-10.062-13.965-16.911
	C36.577,90.846,33.896,73.333,39.419,56.822z"/>
<g>
</g>
<g>
</g>
<g>
</g>
<g>
</g>
<g>
</g>
<g>
</g>
<g>
</g>
<g>
</g>
<g>
</g>
<g>
</g>
<g>
</g>
<g>
</g>
<g>
</g>
<g>
</g>
<g>
</g>
</svg>
