<?xml version="1.0" encoding="iso-8859-1"?>
<!-- Generator: Adobe Illustrator 19.0.0, SVG Export Plug-In . SVG Version: 6.00 Build 0)  -->
<svg version="1.1" id="Layer_1" xmlns="http://www.w3.org/2000/svg" xmlns:xlink="http://www.w3.org/1999/xlink" x="0px" y="0px"
	 viewBox="0 0 512 512" style="enable-background:new 0 0 512 512;" xml:space="preserve">
<path style="fill:#E6E6E6;" d="M477.038,176.824H306.647c-14.929,0-27.032-12.102-27.032-27.032l0,0
	c0-14.929,12.102-27.032,27.032-27.032h79.587c14.929,0,27.032-12.102,27.032-27.032l0,0c0-14.929-12.102-27.032-27.032-27.032
	H251.03c-14.929,0-27.032,12.102-27.032,27.032l0,0c0,14.929-12.102,27.032-27.032,27.032H105.02
	c-14.929,0-27.032,12.102-27.032,27.032l0,0c0,14.929,12.102,27.032,27.032,27.032h91.945c14.929,0,27.032,12.102,27.032,27.032l0,0
	c0,14.929,12.102,27.032,27.032,27.032h130.097c12.56,0,24.249,6.413,30.998,17.004l15.262,23.953l13.422-22.829
	c6.603-11.232,18.658-18.128,31.686-18.128h4.544c14.929,0,27.032-12.102,27.032-27.032l0,0
	C504.07,188.927,491.967,176.824,477.038,176.824z"/>
<path style="fill:#B2741C;" d="M493.415,360.329c0,3.703-0.721,7.351-2.108,10.923c-1.748,4.489-4.555,8.869-8.356,13.107
	c-30.234,33.838-122.671,58.457-232.017,58.457S49.151,418.197,18.918,384.359c-3.801-4.238-6.608-8.618-8.356-13.107
	c-1.387-3.572-2.108-7.22-2.108-10.923c0-45.569,108.559-82.498,242.481-82.498S493.415,314.761,493.415,360.329z"/>
<path style="fill:#BC7F32;" d="M491.307,371.252c-15.707-40.402-117.341-71.575-240.373-71.575S26.269,330.849,10.562,371.252
	c1.748,4.489,4.555,8.869,8.356,13.107c30.234-33.838,122.671-58.468,232.017-58.468s201.783,24.63,232.017,58.468L491.307,371.252z
	"/>
<path style="fill:#995E14;" d="M250.934,416.606c-120.806,0-220.964-30.057-239.422-69.387c-2.003,4.268-3.058,8.645-3.058,13.107
	c0,45.56,108.562,82.494,242.481,82.494s242.481-36.934,242.481-82.494c0-4.461-1.055-8.837-3.058-13.107
	C471.898,386.549,371.74,416.606,250.934,416.606z"/>
<path style="fill:#F75469;" d="M414.139,299.316c48.704,15.084,79.276,36.831,79.276,61.013c0,24.172-30.572,45.918-79.276,61.002
	L414.139,299.316L414.139,299.316z"/>
<path d="M416.301,291.734c-45.49-14.091-104.313-21.852-165.628-21.852c-65.647,0-127.476,8.736-174.1,24.598
	C27.194,311.278,0,334.751,0,360.573c0,25.817,27.194,49.286,76.573,66.083c46.626,15.861,108.455,24.596,174.1,24.596
	c61.317,0,120.137-7.76,165.628-21.852c54.842-16.985,85.044-41.428,85.044-68.827C501.345,333.166,471.143,308.719,416.301,291.734
	z M16.384,360.573c0-17.726,24.473-36.636,65.466-50.582c13.552-4.61,28.473-8.592,44.445-11.911
	c0.281,6.669,1.103,16.121,3.289,27.175c0.771,3.903,4.195,6.605,8.028,6.605c0.525,0,1.062-0.051,1.597-0.157
	c4.438-0.877,7.326-5.187,6.448-9.625c-2.278-11.53-2.92-21.172-3.065-27.093c33.041-5.699,69.854-8.717,108.082-8.717
	c2.133,0,4.261,0.012,6.386,0.032c2.774,20.516,14.327,77.956,59.326,118.37c1.565,1.406,3.521,2.097,5.471,2.097
	c2.245,0,4.48-0.917,6.098-2.719c3.023-3.366,2.745-8.546-0.62-11.568c-38.854-34.894-50.422-85.479-53.613-105.834
	c48.7,1.588,94.67,8.189,131.966,19.017v109.812c-8.164,2.37-16.739,4.539-25.672,6.497c-11.388-3.496-22.112-8.227-31.885-14.108
	c-3.879-2.334-8.912-1.081-11.244,2.796s-1.08,8.911,2.796,11.243c3.332,2.005,6.762,3.888,10.276,5.652
	c-30.51,4.733-63.891,7.258-98.162,7.312c-48.123-13.402-81.101-41.96-98.015-84.912c-1.658-4.21-6.415-6.277-10.624-4.62
	c-4.21,1.658-6.278,6.415-4.62,10.624c9.871,25.065,29.207,55.944,66.948,77.473c-46.632-3.006-89.46-10.657-123.631-22.282
	C40.857,397.2,16.384,378.295,16.384,360.573z M422.069,410.24v-99.346c39.598,13.909,62.892,32.145,62.892,49.679
	C484.961,378.099,461.667,396.332,422.069,410.24z"/>
<path d="M104.758,185.26h91.945c10.388,0,18.84,8.452,18.84,18.84c0,19.422,15.802,35.224,35.223,35.224h73.539
	c4.525,0,8.192-3.668,8.192-8.192c0-4.524-3.667-8.192-8.192-8.192h-73.539c-10.388,0-18.839-8.452-18.839-18.84
	c0-19.422-15.802-35.224-35.224-35.224h-91.945c-10.388,0-18.84-8.452-18.84-18.84c0-10.388,8.452-18.84,18.84-18.84h38.788
	c4.525,0,8.192-3.668,8.192-8.192s-3.667-8.192-8.192-8.192h-38.788c-19.422,0-35.224,15.802-35.224,35.224
	C69.534,169.459,85.336,185.26,104.758,185.26z"/>
<path d="M170.852,131.196h25.851c19.422,0,35.224-15.802,35.224-35.224c0-10.388,8.451-18.84,18.839-18.84h135.205
	c10.388,0,18.84,8.452,18.84,18.84s-8.452,18.84-18.84,18.84h-79.586c-19.422,0-35.224,15.802-35.224,35.224
	s15.802,35.224,35.224,35.224h57.785c4.525,0,8.192-3.668,8.192-8.192c0-4.524-3.667-8.192-8.192-8.192h-57.785
	c-10.388,0-18.84-8.452-18.84-18.84c0-10.388,8.452-18.84,18.84-18.84h79.586c19.422,0,35.224-15.802,35.224-35.224
	s-15.802-35.224-35.224-35.224H250.766c-19.421,0-35.223,15.802-35.223,35.224c0,10.388-8.452,18.84-18.84,18.84h-25.851
	c-4.525,0-8.192,3.668-8.192,8.192C162.66,127.528,166.326,131.196,170.852,131.196z"/>
<path d="M476.776,168.876h-86.392c-4.525,0-8.192,3.668-8.192,8.192c0,4.524,3.667,8.192,8.192,8.192h86.392
	c10.388,0,18.84,8.452,18.84,18.84s-8.452,18.84-18.84,18.84h-4.544c-15.862,0-30.71,8.494-38.749,22.168l-6.64,11.295
	l-8.073-12.669c-8.297-13.021-22.467-20.794-37.907-20.794h-29.799c-4.525,0-8.192,3.668-8.192,8.192
	c0,4.524,3.667,8.192,8.192,8.192h29.799c9.812,0,18.817,4.94,24.09,13.215l15.263,23.953c1.506,2.364,4.113,3.79,6.909,3.79
	c0.048,0,0.098,0,0.147-0.001c2.85-0.051,5.47-1.582,6.915-4.039l13.421-22.829c5.108-8.69,14.543-14.087,24.624-14.087h4.544
	c19.422,0,35.224-15.802,35.224-35.224C512,184.677,496.198,168.876,476.776,168.876z"/>
<g>
</g>
<g>
</g>
<g>
</g>
<g>
</g>
<g>
</g>
<g>
</g>
<g>
</g>
<g>
</g>
<g>
</g>
<g>
</g>
<g>
</g>
<g>
</g>
<g>
</g>
<g>
</g>
<g>
</g>
</svg>
