<?xml version="1.0" encoding="iso-8859-1"?>
<!-- Generator: Adobe Illustrator 19.0.0, SVG Export Plug-In . SVG Version: 6.00 Build 0)  -->
<svg version="1.1" id="Layer_1" xmlns="http://www.w3.org/2000/svg" xmlns:xlink="http://www.w3.org/1999/xlink" x="0px" y="0px"
	 viewBox="0 0 512 512" style="enable-background:new 0 0 512 512;" xml:space="preserve">
<path style="fill:#CCCCCC;" d="M281.444,163.895v50.497h-7.799h-34.757h-7.799v-50.497c8.006,0.972,16.45,1.409,25.177,1.409
	C264.994,165.304,273.438,164.867,281.444,163.895z"/>
<path style="fill:#999999;" d="M258.452,147.598v66.794h3.392h15.116h3.392v-66.794c-3.482,1.286-7.155,1.863-10.95,1.863
	C265.606,149.462,261.934,148.883,258.452,147.598z"/>
<path style="fill:#CCCCCC;" d="M256.267,7.949c50.748,0,91.883,41.147,91.883,91.894c0,42.02-28.203,59.333-66.706,64.052
	c-8.006,0.972-16.45,1.409-25.177,1.409c-8.727,0-17.171-0.437-25.177-1.409c-38.514-4.719-66.717-22.031-66.717-64.052
	C164.373,49.095,205.508,7.949,256.267,7.949z"/>
<rect x="238.894" y="214.395" style="fill:#FCCA5F;" width="34.757" height="289.173"/>
<rect x="255.18" y="214.395" style="fill:#E8B459;" width="17.378" height="289.173"/>
<path style="fill:#E6E6E6;" d="M348.151,99.843c0,6.019-0.579,11.524-1.693,16.57c-8.236-42.304-45.494-74.221-90.19-74.221
	c-44.707,0-81.965,31.928-90.201,74.243c-1.114-5.046-1.693-10.562-1.693-16.592c0-50.748,41.136-91.894,91.894-91.894
	C307.015,7.949,348.151,49.095,348.151,99.843z"/>
<path d="M256.005,0c-55.188,0-100.087,44.899-100.087,100.087c0,6.441,0.62,12.552,1.844,18.166c0.013,0.066,0.026,0.13,0.04,0.194
	c6.337,28.844,28.135,46.572,64.833,52.774v43.414c0,4.524,3.668,8.192,8.192,8.192h34.363v272.789h-18.372V241.549
	c0-4.524-3.668-8.192-8.192-8.192s-8.192,3.668-8.192,8.192v262.259c0,4.524,3.668,8.192,8.192,8.192h34.757
	c4.524,0,8.192-3.668,8.192-8.192v-281c4.341-0.206,7.799-3.78,7.799-8.173v-43.413c36.709-6.202,58.505-23.943,64.821-52.799
	c1.252-5.668,1.886-11.837,1.886-18.336C356.081,44.899,311.187,0,256.005,0z M239.02,173.151c5.409,0.39,11.09,0.589,16.985,0.589
	c5.894,0,11.575-0.198,16.985-0.589v33.292h-33.97V173.151z M280.195,156.006c-7.373,0.896-15.511,1.349-24.19,1.349
	c-8.679,0-16.817-0.454-24.181-1.348c-33.075-4.051-51.938-16.959-57.619-39.424c1.915-8.875,5.233-17.331,9.91-25.151
	c2.322-3.883,1.057-8.913-2.826-11.236c-1.999-1.195-4.299-1.434-6.38-0.861c9.256-36.148,42.103-62.951,81.096-62.951
	c36.744,0,68.009,23.815,79.236,56.814c-7.869-10.189-17.704-18.905-29.12-25.521c-3.916-2.269-8.927-0.934-11.196,2.981
	c-2.269,3.915-0.934,8.927,2.981,11.196c20.483,11.87,34.928,31.756,39.884,54.731C332.117,139.05,313.257,151.956,280.195,156.006z
	"/>
<path d="M282.373,37.755c-8.554-2.33-17.425-3.512-26.368-3.512c-23.362,0-46.098,8.222-64.02,23.151
	c-3.477,2.896-3.946,8.061-1.051,11.538c1.62,1.945,3.951,2.949,6.299,2.949c1.848,0,3.708-0.623,5.239-1.897
	c14.984-12.482,33.996-19.355,53.534-19.355c7.488,0,14.91,0.987,22.061,2.936c4.366,1.188,8.868-1.385,10.058-5.751
	C289.313,43.448,286.738,38.945,282.373,37.755z"/>
<g>
</g>
<g>
</g>
<g>
</g>
<g>
</g>
<g>
</g>
<g>
</g>
<g>
</g>
<g>
</g>
<g>
</g>
<g>
</g>
<g>
</g>
<g>
</g>
<g>
</g>
<g>
</g>
<g>
</g>
</svg>
