<?xml version="1.0" encoding="iso-8859-1"?>
<!-- Generator: Adobe Illustrator 19.0.0, SVG Export Plug-In . SVG Version: 6.00 Build 0)  -->
<svg version="1.1" id="Layer_1" xmlns="http://www.w3.org/2000/svg" xmlns:xlink="http://www.w3.org/1999/xlink" x="0px" y="0px"
	 viewBox="0 0 512.002 512.002" style="enable-background:new 0 0 512.002 512.002;" xml:space="preserve">
<path style="fill:#F75469;" d="M503.668,255.745c0-32.713-37.942-59.952-88.181-65.948c31.284-39.764,38.852-85.853,15.72-108.985
	c-23.131-23.131-69.221-15.563-108.985,15.72c-5.996-50.239-33.235-88.181-65.948-88.181s-59.952,37.942-65.948,88.181
	c-39.764-31.284-85.853-38.852-108.985-15.72s-15.563,69.221,15.72,108.985c-50.235,5.996-88.177,33.235-88.177,65.948
	s37.942,59.951,88.181,65.948c-31.284,39.764-38.852,85.853-15.72,108.985c23.131,23.131,69.221,15.562,108.985-15.722
	c5.996,50.239,33.235,88.181,65.948,88.181s59.952-37.942,65.948-88.181c39.764,31.284,85.853,38.852,108.985,15.722
	c23.131-23.132,15.563-69.221-15.72-108.985C465.726,315.697,503.668,288.458,503.668,255.745z"/>
<path style="fill:#DD3551;" d="M430.738,166.568c-12.693-15.704-34.104-24.813-60.178-25.043
	c-0.193-25.613-9.095-47.345-25.095-60.25c-7.843,4.193-15.657,9.29-23.243,15.258c-1.142-9.572-3.061-18.692-5.636-27.194
	c-1.973-0.207-3.966-0.32-5.979-0.32c-18.792,0-38.017,9.195-54.319,25.196c-16.304-16.007-35.529-25.204-54.325-25.204
	c-2.02,0-4.019,0.114-5.997,0.323c-2.577,8.503-4.495,17.626-5.638,27.2c-7.582-5.966-15.397-11.063-23.236-15.256
	c-15.989,12.905-24.886,34.627-25.083,60.229c-26.085,0.225-47.506,9.34-60.199,25.055c4.192,7.84,9.289,15.653,15.254,23.235
	c-9.581,1.143-18.709,3.065-27.218,5.644c-2.179,20.418,6.878,42.056,24.82,60.292c-17.953,18.241-27.013,39.887-24.826,60.313
	c8.51,2.58,17.641,4.502,27.225,5.646c-5.964,7.581-11.059,15.392-15.251,23.229c12.693,15.704,34.105,24.813,60.178,25.043
	c0.193,25.613,9.094,47.345,25.095,60.25c7.842-4.193,15.657-9.29,23.243-15.258c1.142,9.572,3.061,18.692,5.636,27.194
	c1.972,0.207,3.965,0.32,5.979,0.32c18.793,0,38.017-9.193,54.32-25.197c16.302,16.007,35.528,25.204,54.325,25.204
	c2.02,0,4.018-0.115,5.996-0.323c2.577-8.504,4.496-17.626,5.638-27.2c7.584,5.965,15.397,11.063,23.236,15.256
	c15.989-12.905,24.887-34.626,25.083-60.229c26.083-0.227,47.505-9.342,60.198-25.056c-4.193-7.84-9.289-15.652-15.254-23.234
	c9.581-1.143,18.709-3.065,27.218-5.644c2.179-20.418-6.877-42.056-24.819-60.291c17.956-18.242,27.015-39.887,24.826-60.314
	c-8.51-2.58-17.642-4.502-27.225-5.646C421.451,182.217,426.546,174.406,430.738,166.568z"/>
<path style="fill:#F75469;" d="M415.493,189.81c-8.719-21.053-40.397-28.472-74.328-18.94c9.536-33.929,2.122-65.608-18.93-74.33
	c-21.052-8.722-48.697,8.433-65.95,39.165c-17.248-30.734-44.891-47.894-65.944-39.175c-21.053,8.719-28.472,40.397-18.94,74.328
	c-33.929-9.536-65.608-2.122-74.33,18.93s8.433,48.697,39.165,65.95c-30.734,17.248-47.894,44.891-39.175,65.944
	c8.719,21.053,40.397,28.47,74.328,18.94c-9.536,33.929-2.122,65.608,18.93,74.33c21.052,8.722,48.697-8.433,65.95-39.165
	c17.248,30.734,44.891,47.894,65.944,39.175c21.053-8.719,28.472-40.397,18.94-74.328c33.929,9.536,65.609,2.122,74.33-18.929
	c8.721-21.052-8.433-48.697-39.165-65.951C407.052,238.506,424.212,210.862,415.493,189.81z"/>
<path style="fill:#DD3551;" d="M390.593,265.258c-4.34-3.407-9.11-6.605-14.275-9.505c5.166-2.899,9.939-6.098,14.279-9.504
	c-3.097-14.22-13.083-26.448-27.716-34.662c4.537-16.149,2.956-31.85-4.901-44.092c-5.477,0.66-11.112,1.772-16.814,3.373
	c1.6-5.694,2.712-11.321,3.373-16.79c-7.594-4.833-16.743-7.434-26.559-7.434c-5.74,0-11.635,0.856-17.536,2.513
	c-8.21-14.635-20.435-24.626-34.653-27.729c-3.407,4.34-6.605,9.11-9.504,14.275c-2.899-5.166-6.098-9.938-9.504-14.279
	c-14.226,3.098-26.458,13.091-34.672,27.732c-5.902-1.656-11.795-2.513-17.536-2.513c-9.809,0-18.952,2.598-26.543,7.425
	c0.661,5.468,1.771,11.095,3.371,16.787c-5.703-1.602-11.339-2.716-16.818-3.377c-7.866,12.245-9.451,27.953-4.913,44.108
	c-14.627,8.21-24.61,20.431-27.712,34.643c4.34,3.407,9.11,6.605,14.275,9.504c-5.166,2.899-9.938,6.097-14.279,9.504
	c3.097,14.221,13.083,26.449,27.715,34.663c-4.537,16.149-2.956,31.85,4.901,44.092c5.477-0.66,11.113-1.771,16.815-3.373
	c-1.6,5.694-2.712,11.321-3.373,16.791c7.594,4.833,16.742,7.434,26.558,7.434c5.741,0,11.635-0.856,17.536-2.513
	c8.21,14.635,20.435,24.625,34.654,27.729c3.407-4.34,6.605-9.11,9.505-14.275c2.899,5.166,6.098,9.939,9.505,14.279
	c14.227-3.098,26.457-13.09,34.671-27.733c5.901,1.656,11.795,2.513,17.534,2.513c0.002,0,0.002,0,0.005,0
	c9.808,0,18.95-2.598,26.541-7.425c-0.661-5.468-1.771-11.095-3.371-16.788c5.703,1.602,11.339,2.716,16.817,3.377
	c7.866-12.246,9.451-27.953,4.913-44.108C377.508,291.692,387.492,279.472,390.593,265.258z"/>
<path style="fill:#F75469;" d="M366.378,255.745c0-14.559-16.887-26.681-39.245-29.35c13.923-17.697,17.291-38.21,6.997-48.503
	c-10.295-10.295-30.807-6.926-48.503,6.997c-2.669-22.358-14.791-39.245-29.35-39.245c-14.559,0-26.681,16.887-29.35,39.245
	c-17.697-13.923-38.21-17.291-48.503-6.997c-10.295,10.295-6.926,30.807,6.997,48.503c-22.358,2.669-39.245,14.791-39.245,29.35
	s16.887,26.681,39.245,29.35c-13.923,17.697-17.291,38.21-6.997,48.504c10.295,10.295,30.807,6.926,48.503-6.997
	c2.669,22.358,14.791,39.245,29.35,39.245c14.559,0,26.681-16.887,29.35-39.245c17.697,13.923,38.21,17.292,48.503,6.997
	c10.295-10.295,6.926-30.807-6.997-48.504C349.492,282.426,366.378,270.304,366.378,255.745z"/>
<circle style="fill:#DD3551;" cx="256.273" cy="255.745" r="44.868"/>
<path d="M483.256,206.085c-14.077-10.4-32.505-18.125-52.91-22.301c11.475-17.381,19.045-35.875,21.643-53.182
	c3.422-22.791-1.894-42.544-14.971-55.621c-13.079-13.077-32.834-18.395-55.621-14.971c-17.308,2.6-35.8,10.168-53.183,21.643
	c-4.177-20.405-11.901-38.834-22.301-52.91c-13.693-18.535-31.42-28.744-49.914-28.744s-36.222,10.209-49.916,28.744
	c-10.4,14.076-18.124,32.504-22.301,52.91c-17.381-11.476-35.874-19.045-53.182-21.643c-22.793-3.42-42.544,1.894-55.621,14.971
	c-13.077,13.077-18.393,32.831-14.971,55.621c2.599,17.302,10.165,35.792,21.635,53.169c-10.916,2.219-21.215,5.446-30.757,9.643
	c-4.351,1.915-6.328,6.995-4.413,11.346c1.916,4.353,6.996,6.327,11.347,4.413c8.671-3.814,18.104-6.715,28.144-8.692
	c-0.256,9.153,2.509,18.877,8.238,28.398c5.927,9.852,14.864,19.202,25.788,27.111c-10.925,7.907-19.863,17.257-25.791,27.107
	c-5.736,9.528-8.502,19.26-8.242,28.419c-18.304-3.626-34.69-10.364-46.984-19.447c-14.031-10.366-21.758-23.176-21.758-36.068
	c0-15.518,10.569-27.21,19.436-34.285c3.717-2.965,4.326-8.382,1.36-12.099c-2.966-3.715-8.384-4.325-12.098-1.359
	C9.203,221.593,0,238.549,0,256.001c0,18.494,10.209,36.222,28.745,49.916c14.076,10.4,32.504,18.124,52.91,22.301
	C70.179,345.6,62.61,364.092,60.011,381.4c-3.422,22.791,1.894,42.544,14.971,55.621c13.078,13.077,32.836,18.398,55.621,14.971
	c17.308-2.599,35.799-10.168,53.182-21.643c4.177,20.405,11.901,38.834,22.301,52.91c13.696,18.535,31.423,28.744,49.916,28.744
	c18.492,0,36.22-10.209,49.915-28.744c10.4-14.077,18.124-32.505,22.301-52.91c17.383,11.475,35.875,19.045,53.183,21.643
	c22.79,3.424,42.543-1.894,55.621-14.971c13.077-13.077,18.393-32.83,14.971-55.621c-2.6-17.307-10.169-35.8-21.643-53.182
	c20.404-4.177,38.833-11.901,52.91-22.301c18.535-13.696,28.744-31.423,28.744-49.916C512,237.508,501.792,219.781,483.256,206.085z
	 M383.957,77.037c17.247-2.591,31.773,1.003,40.889,10.119c9.116,9.116,12.71,23.638,10.119,40.89
	c-2.269,15.111-9.087,31.456-19.46,46.958c-10.136-10.734-26.792-16.772-47.063-16.579c-4.754,0.04-8.576,3.927-8.536,8.681
	c0.04,4.729,3.887,8.536,8.607,8.536c0.024,0,0.049,0,0.073,0c0.239-0.001,0.475-0.002,0.712-0.002
	c19.193,0,33.358,6.6,37.964,17.722c6.621,15.986-7.892,39.074-33.856,54.229c-3.81-12.073-15.734-21.939-32.353-26.819
	c8.346-15.283,9.76-30.769,3.806-42.016c2.034-1.059,3.647-2.918,4.317-5.301c5.048-17.963,5.784-36.085,2.072-51.024
	c-2.681-10.793-7.607-19.631-14.267-25.923C352.489,86.129,368.84,79.307,383.957,77.037z M407.254,318.666
	c-6.624,15.986-33.213,22.049-62.292,14.405c5.845-11.231,4.394-26.637-3.907-41.84c16.612-4.877,28.535-14.737,32.349-26.803
	C399.365,279.588,413.876,302.679,407.254,318.666z M318.641,407.264c-15.983,6.624-39.074-7.894-54.23-33.855
	c12.073-3.81,21.939-15.734,26.819-32.353c15.196,8.298,30.595,9.752,41.824,3.916C340.697,374.05,334.632,400.642,318.641,407.264z
	 M193.336,407.254c-15.99-6.625-22.052-33.229-14.399-62.314c5.832,3.005,12.916,4.132,20.65,3.189
	c4.72-0.575,8.079-4.868,7.504-9.587c-0.576-4.72-4.876-8.076-9.588-7.504c-4.066,0.494-9.669,0.331-13.271-3.271
	c-6.75-6.75-3.378-23.044,7.675-37.094c1.925-2.446,2.378-5.741,1.187-8.617c-1.19-2.875-3.842-4.885-6.933-5.254
	c-17.751-2.119-31.656-11.255-31.656-20.802c0-9.545,13.905-18.683,31.656-20.802c3.091-0.37,5.743-2.378,6.933-5.254
	c1.191-2.875,0.738-6.171-1.187-8.617c-11.053-14.05-14.425-30.344-7.675-37.094c6.749-6.749,23.044-3.379,37.093,7.675
	c2.447,1.924,5.743,2.378,8.618,1.188c2.876-1.191,4.885-3.843,5.254-6.934c2.118-17.751,11.255-31.657,20.802-31.657
	c9.545,0,18.683,13.906,20.802,31.657c0.368,3.09,2.377,5.741,5.254,6.933c2.875,1.193,6.171,0.737,8.618-1.188
	c14.049-11.055,30.344-14.426,37.092-7.675c6.751,6.75,3.379,23.044-7.674,37.094c-1.925,2.446-2.378,5.741-1.187,8.617
	c1.19,2.875,3.842,4.884,6.933,5.254c17.751,2.119,31.656,11.257,31.656,20.802c0,9.546-13.905,18.683-31.656,20.802
	c-3.091,0.368-5.742,2.378-6.933,5.254c-1.191,2.875-0.738,6.171,1.187,8.617c11.053,14.05,14.423,30.344,7.674,37.094
	c-6.75,6.749-23.042,3.379-37.092-7.675c-2.447-1.924-5.743-2.377-8.618-1.188c-2.876,1.191-4.885,3.843-5.254,6.933
	c-2.119,17.751-11.257,31.657-20.802,31.657c-9.546,0-18.684-13.905-20.802-31.657c-0.564-4.721-4.847-8.087-9.568-7.529
	c-4.721,0.564-8.091,4.847-7.529,9.568c2.788,23.372,14.411,40.763,29.471,45.523C232.414,399.365,209.322,413.877,193.336,407.254z
	 M193.359,104.739c15.99-6.615,39.075,7.892,54.231,33.856c-12.075,3.808-21.939,15.734-26.819,32.355
	c-15.196-8.298-30.595-9.753-41.825-3.916C171.303,137.952,177.371,111.359,193.359,104.739z M318.664,104.748
	c15.988,6.624,22.051,33.215,14.406,62.292c-11.231-5.845-26.638-4.393-41.839,3.909c-4.877-16.612-14.736-28.535-26.803-32.35
	C279.586,112.638,302.676,98.123,318.664,104.748z M219.932,38.976c10.367-14.031,23.177-21.758,36.069-21.758
	c12.891,0,25.702,7.727,36.068,21.758c9.085,12.295,15.823,28.684,19.449,46.99c-9.153-0.256-18.876,2.51-28.396,8.239
	c-9.851,5.927-19.202,14.864-27.11,25.788c-7.907-10.925-17.256-19.863-27.107-25.793c-9.528-5.734-19.26-8.502-28.419-8.241
	C204.111,67.656,210.849,51.27,219.932,38.976z M77.037,128.046c-2.592-17.252,1.003-31.774,10.119-40.89
	s23.639-12.712,40.889-10.119c15.118,2.27,31.472,9.094,46.98,19.476c-6.653,6.29-11.572,15.121-14.254,25.904
	c-2.774,11.157-3.067,24.088-0.935,37.405c-13.315-2.134-26.248-1.841-37.405,0.93c-10.793,2.682-19.631,7.607-25.922,14.267
	C86.129,159.512,79.306,143.162,77.037,128.046z M104.747,193.336c6.624-15.987,33.213-22.05,62.291-14.405
	c-5.845,11.231-4.393,26.637,3.909,41.839c-16.612,4.877-28.534,14.737-32.349,26.803
	C112.635,232.415,98.123,209.323,104.747,193.336z M138.594,264.413c3.81,12.074,15.734,21.939,32.353,26.819
	c-8.298,15.196-9.752,30.595-3.917,41.825c-29.081,7.642-55.672,1.574-62.292-14.414C98.118,302.656,112.63,279.567,138.594,264.413
	z M128.046,434.965c-17.249,2.591-31.774-1.003-40.889-10.119c-9.116-9.116-12.711-23.638-10.119-40.89
	c2.27-15.118,9.094-31.472,19.475-46.98c6.29,6.652,15.121,11.572,25.904,14.254c11.157,2.774,24.088,3.067,37.406,0.935
	c-2.134,13.317-1.842,26.247,0.931,37.405c2.681,10.793,7.607,19.631,14.266,25.923
	C159.513,425.873,143.161,432.696,128.046,434.965z M292.068,473.026c-10.366,14.031-23.176,21.758-36.068,21.758
	c-12.892,0-25.703-7.727-36.069-21.758c-9.085-12.295-15.823-28.685-19.449-46.992c9.152,0.256,18.876-2.511,28.396-8.239
	c9.851-5.927,19.202-14.864,27.111-25.788c7.907,10.925,17.256,19.863,27.107,25.793c9.121,5.49,18.433,8.279,27.246,8.278
	c0.391,0,0.781-0.016,1.171-0.028C307.888,444.352,301.15,460.735,292.068,473.026z M434.964,383.957
	c2.591,17.252-1.003,31.773-10.119,40.89c-9.116,9.116-23.64,12.709-40.889,10.119c-15.118-2.27-31.472-9.094-46.981-19.476
	c6.653-6.29,11.573-15.121,14.254-25.904c2.774-11.157,3.068-24.088,0.935-37.405c13.314,2.131,26.247,1.842,37.405-0.931
	c10.793-2.681,19.631-7.607,25.923-14.267C425.871,352.49,432.694,368.841,434.964,383.957z M473.025,292.07
	c-12.294,9.085-28.684,15.824-46.992,19.449c0.256-9.153-2.509-18.876-8.238-28.396c-5.927-9.852-14.863-19.202-25.788-27.111
	c10.926-7.907,19.863-17.257,25.793-27.107c5.736-9.528,8.502-19.259,8.241-28.419c18.304,3.626,34.69,10.364,46.984,19.446
	c14.031,10.367,21.758,23.177,21.758,36.069S487.056,281.703,473.025,292.07z"/>
<path d="M256.001,309.478c29.486,0,53.477-23.989,53.477-53.477c0-7.213-1.414-14.217-4.206-20.817
	c-1.854-4.38-6.906-6.429-11.282-4.576c-4.379,1.851-6.429,6.903-4.576,11.282c1.889,4.467,2.847,9.215,2.847,14.111
	c0,19.994-16.266,36.259-36.259,36.259s-36.259-16.266-36.259-36.259c0-19.993,16.266-36.258,36.259-36.258
	c5.511,0,10.797,1.202,15.714,3.571c4.28,2.064,9.428,0.265,11.493-4.017c2.064-4.283,0.264-9.428-4.018-11.492
	c-7.267-3.502-15.069-5.278-23.188-5.278c-29.486,0-53.477,23.989-53.477,53.476C202.524,285.488,226.514,309.478,256.001,309.478z"
	/>
<g>
</g>
<g>
</g>
<g>
</g>
<g>
</g>
<g>
</g>
<g>
</g>
<g>
</g>
<g>
</g>
<g>
</g>
<g>
</g>
<g>
</g>
<g>
</g>
<g>
</g>
<g>
</g>
<g>
</g>
</svg>
