<?xml version="1.0" encoding="iso-8859-1"?>
<!-- Generator: Adobe Illustrator 19.0.0, SVG Export Plug-In . SVG Version: 6.00 Build 0)  -->
<svg version="1.1" id="Layer_1" xmlns="http://www.w3.org/2000/svg" xmlns:xlink="http://www.w3.org/1999/xlink" x="0px" y="0px"
	 viewBox="0 0 512 512" style="enable-background:new 0 0 512 512;" xml:space="preserve">
<path style="fill:#2AB573;" d="M114.108,258.034c50.627,49.871,79.753,117.541,79.753,188.607l0,0h124.894l0,0
	c0-71.066,29.125-138.736,79.752-188.607c49.606-48.866,81.222-122.777,81.222-205.501H32.887
	C32.887,135.256,64.502,209.168,114.108,258.034z"/>
<path style="fill:#1F9E5E;" d="M405.592,52.533c0,82.723-24.576,156.635-63.137,205.501
	C303.1,307.905,298.45,375.575,298.45,446.641h20.302c0-71.066,29.125-138.736,79.752-188.607
	c49.606-48.866,81.221-122.777,81.221-205.501C479.725,52.533,405.592,52.533,405.592,52.533z"/>
<path style="fill:#FCCA5F;" d="M344.426,502.149H168.188v-19.478c0-19.899,16.131-36.03,36.03-36.03h104.178
	c19.899,0,36.03,16.131,36.03,36.03V502.149z"/>
<path style="fill:#E8B459;" d="M249.028,446.641h59.369c19.899,0,36.03,16.131,36.03,36.03v19.478h-59.369v-19.478
	C285.057,462.772,268.927,446.641,249.028,446.641z"/>
<path style="fill:#FCCA5F;" d="M461.428,9.282H51.185c-17.355,0-31.425,14.07-31.425,31.425v11.826h473.092V40.707
	C492.853,23.352,478.783,9.282,461.428,9.282z"/>
<path style="fill:#E8B459;" d="M461.428,9.282h-78.846c17.355,0,31.425,14.07,31.425,31.425v11.826h78.846V40.707
	C492.853,23.352,478.783,9.282,461.428,9.282z"/>
<path style="fill:#F75469;" d="M32.882,52.528h446.845c0,13.508-0.842,26.774-2.475,39.747H35.357
	C33.724,79.302,32.882,66.036,32.882,52.528z"/>
<path d="M461.122,0H50.879C28.276,0,9.888,18.389,9.888,40.992v11.826c0,5.283,4.282,9.567,9.567,9.567h3.698
	c0.304,10.464,1.098,20.903,2.38,31.147c0,0.008,0.001,0.014,0.003,0.02c0.009,0.066,0.015,0.133,0.023,0.198
	c2.663,21.254,7.438,42.119,14.189,62.017c1.353,3.985,5.073,6.495,9.059,6.495c1.019,0,2.056-0.165,3.075-0.51
	c5.004-1.698,7.683-7.13,5.985-12.133c-5.195-15.308-9.122-31.241-11.756-47.491H159.06c5.285,0,9.567-4.283,9.567-9.567
	s-4.282-9.567-9.567-9.567H43.62c-0.666-6.82-1.119-13.706-1.33-20.609l310.659-0.004c5.285,0,9.567-4.283,9.567-9.567
	s-4.282-9.567-9.567-9.567L29.021,43.251v-2.259c0-12.053,9.807-21.858,21.858-21.858h410.243c12.052,0,21.858,9.805,21.858,21.858
	v2.259l-99.418-0.004c-5.285,0-9.567,4.283-9.567,9.567s4.282,9.567,9.567,9.567l86.146,0.004
	c-0.212,6.902-0.665,13.788-1.33,20.609H193.502c-5.285,0-9.567,4.283-9.567,9.567s4.282,9.567,9.567,9.567h272.401
	c-9.467,58.463-35.653,111.181-74.41,149.378c-26.207,25.823-46.715,55.911-60.958,89.429
	c-13.112,30.856-20.327,63.249-21.49,96.424h-0.93c-0.009,0-0.017,0-0.024,0c-0.004,0-0.008,0-0.013,0h-25.286
	c-5.285,0-9.567,4.283-9.567,9.567s4.282,9.567,9.567,9.567h25.311c14.586,0.006,26.45,11.874,26.45,26.463v9.911H177.449v-9.911
	c0-14.587,11.865-26.455,26.45-26.463h47.562c5.285,0,9.567-4.283,9.567-9.567s-4.282-9.567-9.567-9.567h-47.538
	c-0.004,0-0.008,0-0.013,0c-0.008,0-0.017,0-0.024,0h-0.935c-1.162-33.173-8.374-65.564-21.484-96.422
	c-14.246-33.535-34.753-63.624-60.951-89.433c-20.214-19.915-37.051-43.772-50.046-70.909c-2.283-4.766-7.997-6.778-12.761-4.496
	c-4.766,2.282-6.778,7.995-4.496,12.76c13.953,29.139,32.079,54.801,53.875,76.275c24.407,24.043,43.506,52.064,56.769,83.283
	c12.706,29.91,19.44,61.363,20.066,93.566c-15.15,7.421-25.61,22.996-25.61,40.973v19.478c0,5.283,4.282,9.567,9.567,9.567h176.238
	c5.285,0,9.567-4.283,9.567-9.567v-19.478c0-17.978-10.461-33.555-25.615-40.975c0.626-32.203,7.361-63.656,20.07-93.563
	c13.261-31.206,32.364-59.226,56.779-83.285c44.172-43.534,73.121-104.399,81.517-171.379c1.299-10.318,2.101-20.833,2.406-31.37
	h3.703c5.285,0,9.567-4.283,9.567-9.567V40.99C502.114,18.389,483.725,0,461.122,0z"/>
<g>
</g>
<g>
</g>
<g>
</g>
<g>
</g>
<g>
</g>
<g>
</g>
<g>
</g>
<g>
</g>
<g>
</g>
<g>
</g>
<g>
</g>
<g>
</g>
<g>
</g>
<g>
</g>
<g>
</g>
</svg>
