<?xml version="1.0" encoding="iso-8859-1"?>
<!-- Generator: Adobe Illustrator 19.0.0, SVG Export Plug-In . SVG Version: 6.00 Build 0)  -->
<svg version="1.1" id="Layer_1" xmlns="http://www.w3.org/2000/svg" xmlns:xlink="http://www.w3.org/1999/xlink" x="0px" y="0px"
	 viewBox="0 0 512 512" style="enable-background:new 0 0 512 512;" xml:space="preserve">
<path style="fill:#FCCA5F;" d="M380.81,83.228v419.901H131.747V83.228c0-41.351,33.518-74.869,74.869-74.869h99.324
	c20.676,0,39.387,8.385,52.941,21.928S380.81,62.552,380.81,83.228z"/>
<path style="fill:#E8B459;" d="M350.277,94.612c0.131-0.061,0.26-0.124,0.391-0.184c9.683-4.445,19.757-8.19,30.141-11.199V503.13
	c-10.529-3.045-20.723-6.872-30.531-11.392V94.612z"/>
<path style="fill:#F9E5C5;" d="M318.034,112.943c-24.742,17-45.797,38.951-61.752,64.439c-0.735-1.183-1.493-2.366-2.251-3.526
	c9.913-7.995,16.265-20.251,16.265-33.989c0-14.128-6.72-26.695-17.126-34.666l41.26-15.863L318.034,112.943z"/>
<path style="fill:#2AB573;" d="M350.678,94.416v0.011c-11.452,5.249-22.364,11.452-32.645,18.516l-23.605-23.605l-41.26,15.863
	c-7.351-5.64-16.564-8.994-26.534-8.994c-13.508,0-25.569,6.134-33.564,15.76c-9.855-6.674-20.285-12.543-31.186-17.54
	c23.019-26.201,56.778-42.718,94.396-42.718S327.648,68.226,350.678,94.416z"/>
<path style="fill:#F75469;" d="M253.169,105.202c10.407,7.972,17.126,20.538,17.126,34.666c0,13.738-6.352,25.994-16.265,33.989
	c-15.989-24.478-36.745-45.556-60.959-61.889c7.995-9.626,20.055-15.759,33.564-15.759
	C236.606,96.208,245.818,99.562,253.169,105.202z"/>
<path style="fill:#E8B459;" d="M380.807,503.129H131.745c52.195-15.093,96.349-49.116,124.537-94.155
	C284.47,454.013,328.624,488.036,380.807,503.129z"/>
<path d="M185.499,245.05c15.847,0,28.74-12.892,28.74-28.74c0-4.758-3.856-8.615-8.615-8.615s-8.615,3.857-8.615,8.615
	c0,6.346-5.163,11.511-11.511,11.511c-6.347,0-11.511-5.163-11.511-11.511c0-6.347,5.163-11.511,11.511-11.511
	c4.759,0,8.615-3.857,8.615-8.615c0-4.758-3.856-8.615-8.615-8.615c-15.847,0-28.74,12.892-28.74,28.74
	S169.652,245.05,185.499,245.05z"/>
<path d="M221.021,347.352c4.759,0,8.615-3.857,8.615-8.615c0-4.758-3.856-8.615-8.615-8.615c-15.847,0-28.74,12.892-28.74,28.74
	c0,15.848,12.894,28.74,28.74,28.74s28.74-12.892,28.74-28.74c0-4.758-3.856-8.615-8.615-8.615c-4.759,0-8.615,3.857-8.615,8.615
	c0,6.346-5.163,11.511-11.511,11.511c-6.347,0-11.511-5.163-11.511-11.511C209.51,352.515,214.673,347.352,221.021,347.352z"/>
<path d="M331.708,395.988c15.847,0,28.74-12.892,28.74-28.74c0-4.758-3.856-8.615-8.615-8.615c-4.759,0-8.615,3.857-8.615,8.615
	c0,6.346-5.163,11.511-11.511,11.511s-11.511-5.163-11.511-11.511c0-6.347,5.163-11.511,11.511-11.511
	c4.759,0,8.615-3.857,8.615-8.615s-3.856-8.615-8.615-8.615c-15.847,0-28.74,12.892-28.74,28.74
	C302.968,383.096,315.861,395.988,331.708,395.988z"/>
<path d="M389.148,83.479C389.148,37.448,351.698,0,305.667,0h-99.331c-45.999,0-83.425,37.399-83.477,83.386
	c0,0.033-0.006,0.064-0.006,0.098v134.137c0,4.758,3.856,8.615,8.615,8.615c4.759,0,8.615-3.857,8.615-8.615V95.281
	c6.115,2.142,12.116,4.561,17.936,7.234c10.419,4.776,20.495,10.444,29.957,16.851c23.399,15.785,43.103,35.79,58.565,59.461
	c0.723,1.105,1.445,2.232,2.162,3.386c20.843,33.28,31.859,71.74,31.859,111.223s-11.017,77.943-31.86,111.225
	c-25.467,40.691-63.739,71.231-108.62,86.936v-245.26c0-4.758-3.856-8.615-8.615-8.615s-8.615,3.857-8.615,8.615v257.049
	c0,2.708,1.273,5.259,3.438,6.886c0.553,0.415,1.156,0.732,1.777,0.999V512h255.862v-0.729c0.621-0.268,1.224-0.585,1.777-0.999
	c2.165-1.628,3.438-4.178,3.438-6.886V83.501C389.147,83.494,389.148,83.487,389.148,83.479z M206.336,17.23h99.331
	c34.416,0,62.776,26.381,65.945,59.981c-8.43,2.718-16.748,5.944-24.801,9.641c-9.631,4.414-18.996,9.549-27.938,15.282
	l-18.63-18.63c-2.41-2.408-6.006-3.17-9.183-1.949l-37.019,14.232c-8.285-5.201-17.757-7.937-27.683-7.937
	c-12.971,0-25.284,4.78-34.795,13.293c-5.048-3.185-10.238-6.176-15.538-8.958c21.579-20.201,50.142-31.604,79.979-31.604
	c23.512,0,46.179,6.936,65.552,20.058c3.941,2.668,9.296,1.638,11.964-2.302c2.667-3.939,1.638-9.296-2.302-11.964
	c-22.237-15.061-48.247-23.022-75.215-23.022c-36.49,0-71.321,14.862-96.55,40.974c-6.214-2.642-12.589-5.018-19.063-7.108
	C143.558,43.614,171.919,17.23,206.336,17.23z M278.387,135.194c-0.898-9.683-4.422-18.762-10.168-26.398l23.8-9.15l12.495,12.496
	C295.181,119.184,286.462,126.88,278.387,135.194z M206.402,111.322c5.796-4.028,12.726-6.243,19.958-6.243
	c7.776,0,15.138,2.495,21.295,7.218c8.738,6.694,13.751,16.837,13.751,27.827c0,7.431-2.325,14.514-6.547,20.394
	C241.255,141.672,225.015,125.184,206.402,111.322z M263.307,413.803c22.562-36.024,34.486-77.647,34.486-120.368
	c0-40.885-10.929-80.759-31.628-115.663c14.992-22.693,33.968-42.01,56.47-57.472c9.898-6.801,20.448-12.784,31.36-17.787
	c5.848-2.684,11.844-5.105,17.921-7.235v396.318c-35.632-12.463-67.127-34.265-91.618-63.535c-3.053-3.649-8.487-4.132-12.134-1.079
	c-3.649,3.053-4.133,8.486-1.079,12.135c19.346,23.122,42.74,41.933,68.968,55.653h-160.13
	C211.442,476.197,241.657,448.393,263.307,413.803z"/>
<circle cx="348.467" cy="155.045" r="8.615"/>
<circle cx="329.514" cy="255.357" r="8.615"/>
<circle cx="241.137" cy="280.041" r="8.615"/>
<circle cx="167.049" cy="346.95" r="8.615"/>
<circle cx="168.519" cy="154.264" r="8.615"/>
<g>
</g>
<g>
</g>
<g>
</g>
<g>
</g>
<g>
</g>
<g>
</g>
<g>
</g>
<g>
</g>
<g>
</g>
<g>
</g>
<g>
</g>
<g>
</g>
<g>
</g>
<g>
</g>
<g>
</g>
</svg>
