<?xml version="1.0" encoding="iso-8859-1"?>
<!-- Generator: Adobe Illustrator 19.0.0, SVG Export Plug-In . SVG Version: 6.00 Build 0)  -->
<svg version="1.1" id="Layer_1" xmlns="http://www.w3.org/2000/svg" xmlns:xlink="http://www.w3.org/1999/xlink" x="0px" y="0px"
	 viewBox="0 0 512 512" style="enable-background:new 0 0 512 512;" xml:space="preserve">
<path style="fill:#FCCA5F;" d="M363.071,351.357c18.848,16.038,30.121,36.4,30.121,58.563c0,51.691-61.307,93.602-136.929,93.602
	c-75.633,0-136.929-41.911-136.929-93.602c0-22.163,11.263-42.526,30.11-58.563c15.664-13.337,18.804-36.016,8.54-53.843
	c-4.709-8.178-7.289-17.091-7.289-26.411c0-31.428,29.397-58.168,70.44-68.058h70.254c41.033,9.89,70.429,36.631,70.429,68.058
	c0,9.32-2.58,18.233-7.289,26.411C344.267,315.341,347.406,338.02,363.071,351.357z M305.111,444.081v-26.345h-97.697v26.345
	H305.111z"/>
<path style="fill:#E8B459;" d="M370.141,409.92c0-22.163-11.263-42.526-30.11-58.563c-15.664-13.337-18.804-36.016-8.54-53.843
	c4.709-8.178,7.289-17.091,7.289-26.411c0-31.428-29.397-58.168-70.44-68.058h23.051c41.044,9.89,70.44,36.631,70.44,68.058
	c0,9.32-2.58,18.233-7.289,26.411c-10.264,17.827-7.124,40.506,8.54,53.843c18.848,16.038,30.11,36.4,30.11,58.563
	c0,51.691-61.296,93.602-136.929,93.602c-3.883,0-7.725-0.116-11.525-0.333C314.974,499.188,370.141,458.959,370.141,409.92z"/>
<rect x="207.412" y="417.736" style="fill:#E6E6E6;" width="97.697" height="26.345"/>
<path style="fill:#4D4D4D;" d="M221.136,294.671c8.672-8.804,20.736-14.27,34.073-14.27c14.457,0,27.41,6.411,36.181,16.554
	c7.245,8.387,11.636,19.32,11.636,31.274c0,26.411-21.405,47.817-47.817,47.817s-47.827-21.405-47.827-47.817
	C207.382,315.155,212.629,303.31,221.136,294.671z"/>
<path style="fill:#FCCA5F;" d="M297.131,12.053c-5.456,27.256-5.456,54.502,0,81.758c-1.91,0.384-3.831,0.735-5.741,1.065
	c-23.425,4.018-46.829,4.029-70.254,0c-1.921-0.318-3.842-0.681-5.763-1.065c5.456-27.256,5.456-54.502,0-81.758
	C242.629,6.609,269.875,6.609,297.131,12.053z"/>
<path style="fill:#E6E6E6;" d="M291.39,203.045v93.91c-8.771-10.143-21.724-16.554-36.181-16.554
	c-13.337,0-25.401,5.467-34.073,14.27v-91.626V94.876c23.425,4.029,46.829,4.018,70.254,0V203.045z"/>
<path d="M174.712,233.545c1.843,0,3.697-0.616,5.232-1.879c8.934-7.361,20.102-13.307,32.697-17.47v77.517
	c-8.888,10.204-13.754,23.122-13.754,36.759c0,30.906,25.149,56.049,56.06,56.049c30.905,0,56.049-25.143,56.049-56.049
	c0-13.457-4.843-26.475-13.641-36.659c-10.662-12.33-26.119-19.401-42.408-19.401c-9.155,0-17.958,2.188-25.84,6.295v-20.442h53.788
	v9.294c0,4.547,3.685,8.233,8.233,8.233c4.548,0,8.233-3.686,8.233-8.233v-53.373c32.675,10.776,53.964,32.917,53.964,57.161
	c0,7.664-2.082,15.168-6.192,22.302c-12.405,21.548-8.057,48.556,10.341,64.221c8.752,7.447,15.539,15.703,20.174,24.538
	c1.472,2.807,4.334,4.411,7.298,4.411c1.288,0,2.596-0.303,3.817-0.943c4.026-2.112,5.579-7.089,3.467-11.114
	c-5.617-10.71-13.72-20.613-24.082-29.43c-12.353-10.517-15.188-28.797-6.744-43.466c5.565-9.665,8.389-19.933,8.389-30.519
	c0-32.828-28.042-62.13-70.429-74.377v-95.07c3.954-1.25,6.414-5.302,5.582-9.461c-5.216-26.053-5.216-52.473,0-78.526
	c0.429-2.142-0.012-4.366-1.223-6.183s-3.096-3.078-5.237-3.506c-28.196-5.632-56.787-5.632-84.983,0
	c-2.142,0.428-4.026,1.689-5.237,3.506c-1.212,1.818-1.651,4.042-1.223,6.183c5.215,26.053,5.215,52.473,0,78.526
	c-0.428,2.141,0.012,4.365,1.222,6.182c1.047,1.571,2.597,2.723,4.381,3.284v95.057c-16.619,4.803-31.445,12.336-43.168,21.996
	c-3.508,2.891-4.009,8.08-1.119,11.59C169.981,232.523,172.337,233.545,174.712,233.545z M255.975,106.356
	c8.979,0,17.963-0.569,26.917-1.696v13.098h-53.788v-13.095C238.035,105.788,247.003,106.356,255.975,106.356z M284.896,302.581
	c6.212,7.191,9.632,16.387,9.632,25.892c0,21.827-17.757,39.584-39.584,39.584c-21.834,0-39.595-17.757-39.595-39.584
	c0-10.433,4.028-20.277,11.339-27.728c0.009-0.009,0.016-0.018,0.024-0.026c0.008-0.008,0.015-0.016,0.023-0.024
	c7.506-7.619,17.524-11.815,28.208-11.815C266.449,288.879,277.367,293.874,284.896,302.581z M229.106,241.801v-24.882h37.912
	c4.548,0,8.233-3.686,8.233-8.233s-3.685-8.233-8.233-8.233h-37.912v-24.882h24.19c4.548,0,8.233-3.686,8.233-8.233
	s-3.685-8.233-8.233-8.233h-24.19v-24.882h53.788v24.882h-5.997c-4.548,0-8.233,3.686-8.233,8.233s3.685,8.233,8.233,8.233h5.997
	V241.8h-53.788V241.801z M287.303,18.946c-3.655,22.75-3.655,45.712,0.001,68.461c-20.805,3.307-41.836,3.31-62.631-0.003
	c3.655-22.75,3.654-45.709-0.001-68.459C245.488,15.641,266.487,15.642,287.303,18.946z"/>
<path d="M392.929,401.932c-4.548,0-8.233,3.686-8.233,8.233c0,47.072-57.733,85.369-128.696,85.369s-128.696-38.297-128.696-85.369
	c0-19.063,9.41-37.145,27.216-52.295c18.397-15.663,22.744-42.672,10.336-64.22c-4.107-7.133-6.19-14.636-6.19-22.302
	c0-7.183,1.841-14.247,5.469-20.995c2.154-4.004,0.653-8.997-3.351-11.151c-4.007-2.154-8.996-0.653-11.151,3.351
	c-4.932,9.17-7.433,18.859-7.433,28.794c0,10.587,2.821,20.856,8.387,30.519c8.446,14.669,5.61,32.95-6.74,43.465
	c-21.286,18.111-33.008,41.136-33.008,64.833c0,27.803,15.516,53.721,43.689,72.982C181.743,501.753,217.78,512,256,512
	c38.215,0,74.251-10.247,101.47-28.853c28.176-19.26,43.693-45.18,43.693-72.982C401.162,405.618,397.475,401.932,392.929,401.932z"
	/>
<path d="M304.848,409.748h-97.697c-4.548,0-8.233,3.686-8.233,8.233v26.345c0,4.547,3.685,8.233,8.233,8.233h97.697
	c4.548,0,8.233-3.686,8.233-8.233v-26.345C313.081,413.434,309.395,409.748,304.848,409.748z M296.615,436.093h-81.231v-9.879
	h81.231V436.093z"/>
<path d="M243.367,78.241c4.548,0,8.233-3.686,8.233-8.233V34.881c0-4.547-3.685-8.233-8.233-8.233c-4.548,0-8.233,3.686-8.233,8.233
	v35.127C235.134,74.555,238.819,78.241,243.367,78.241z"/>
<path d="M268.615,78.241c4.548,0,8.233-3.686,8.233-8.233V34.881c0-4.547-3.685-8.233-8.233-8.233c-4.548,0-8.233,3.686-8.233,8.233
	v35.127C260.382,74.555,264.067,78.241,268.615,78.241z"/>
<g>
</g>
<g>
</g>
<g>
</g>
<g>
</g>
<g>
</g>
<g>
</g>
<g>
</g>
<g>
</g>
<g>
</g>
<g>
</g>
<g>
</g>
<g>
</g>
<g>
</g>
<g>
</g>
<g>
</g>
</svg>
