<?xml version="1.0" encoding="iso-8859-1"?>
<!-- Generator: Adobe Illustrator 19.0.0, SVG Export Plug-In . SVG Version: 6.00 Build 0)  -->
<svg version="1.1" id="Layer_1" xmlns="http://www.w3.org/2000/svg" xmlns:xlink="http://www.w3.org/1999/xlink" x="0px" y="0px"
	 viewBox="0 0 512 512" style="enable-background:new 0 0 512 512;" xml:space="preserve">
<path style="fill:#2AB573;" d="M464.893,186.265v260.769c0,30.648-24.85,55.498-55.498,55.498H103.193
	c-30.648,0-55.498-24.85-55.498-55.498V186.265c0-30.648,24.85-55.486,55.498-55.486h8.324h289.554h8.324
	C440.043,130.779,464.893,155.617,464.893,186.265z"/>
<path style="fill:#1F9E5E;" d="M409.395,130.779h-8.324h-83.616c30.648,0,55.498,24.837,55.498,55.486v260.769
	c0,30.648-24.85,55.498-55.498,55.498h91.94c30.648,0,55.498-24.85,55.498-55.498V186.265
	C464.893,155.617,440.043,130.779,409.395,130.779z"/>
<rect x="111.523" y="8.921" style="fill:#FCCA5F;" width="289.554" height="121.858"/>
<rect x="347.123" y="8.921" style="fill:#E8B459;" width="53.941" height="121.858"/>
<path style="fill:#FCCA5F;" d="M409.223,316.656c0,25.781-13.645,49.368-36.275,67.586c-28.049,22.594-69.903,36.937-116.648,36.937
	c-84.467,0-152.923-46.794-152.923-104.523S171.833,212.12,256.3,212.12c46.745,0,88.598,14.343,116.648,36.95
	C395.578,267.287,409.223,290.874,409.223,316.656z"/>
<path style="fill:#E8B459;" d="M409.223,316.656c0,25.781-13.645,49.368-36.275,67.586V249.07
	C395.578,267.287,409.223,290.874,409.223,316.656z"/>
<path d="M409.971,121.88V9.195c0-5.078-4.115-9.195-9.195-9.195H111.222c-5.078,0-9.195,4.117-9.195,9.195v95.12
	c0,5.078,4.117,9.195,9.195,9.195s9.195-4.117,9.195-9.195V18.389h271.165v103.469h-41.074c-5.079,0-9.195,4.117-9.195,9.195
	c0,5.078,4.115,9.195,9.195,9.195H409.1c25.533,0,46.305,20.766,46.305,46.291v170.67c0,5.078,4.115,9.195,9.195,9.195
	c5.079,0,9.195-4.117,9.195-9.195v-170.67C473.793,151.165,445.241,122.35,409.971,121.88z"/>
<path d="M464.599,382.952c-5.079,0-9.195,4.117-9.195,9.195v55.161c0,25.533-20.771,46.304-46.305,46.304H102.898
	c-25.533,0-46.304-20.771-46.304-46.304V186.538c0-25.525,20.771-46.291,46.304-46.291h216.35c5.079,0,9.195-4.117,9.195-9.195
	c0-5.078-4.115-9.195-9.195-9.195h-216.35c-35.672,0-64.693,29.015-64.693,64.68v260.769c0,35.672,29.02,64.693,64.693,64.693H409.1
	c35.672,0,64.694-29.02,64.694-64.693v-55.161C473.793,387.069,469.678,382.952,464.599,382.952z"/>
<path d="M154.364,249.722c4.226-2.816,5.368-8.525,2.552-12.75c-2.816-4.225-8.524-5.367-12.75-2.552
	c-32.422,21.607-50.279,50.909-50.279,82.51c0,31.051,17.329,59.995,48.792,81.5c30.395,20.775,70.642,32.216,113.326,32.216
	c42.679,0,82.925-11.442,113.321-32.216c31.469-21.507,48.798-50.451,48.798-81.5c0-31.051-17.33-59.996-48.797-81.506
	c-30.398-20.78-70.642-32.224-113.322-32.224c-29.328,0-58.044,5.508-83.042,15.927c-4.687,1.954-6.902,7.337-4.949,12.025
	c1.954,4.687,7.335,6.902,12.025,4.949c22.777-9.494,49.045-14.511,75.966-14.511c79.252,0,143.729,42.77,143.729,95.341
	c0,52.564-64.477,95.329-143.729,95.329s-143.729-42.764-143.729-95.329C112.277,291.676,127.223,267.808,154.364,249.722z"/>
<path d="M230.836,312.945c-5.078,0-9.195,4.117-9.195,9.195v25.811c0,5.078,4.117,9.195,9.195,9.195h15.842v12.745
	c0,5.078,4.117,9.195,9.195,9.195c5.079,0,9.195-4.117,9.195-9.195v-51.461h16.1c5.079,0,9.195-4.117,9.195-9.195v-24.52
	c0-5.078-4.115-9.195-9.195-9.195c-5.079,0-9.195,4.117-9.195,9.195v15.325h-6.906v-32.104c0-5.078-4.115-9.195-9.195-9.195
	c-5.078,0-9.195,4.117-9.195,9.195v70.82h-6.647v-16.616C240.03,317.061,235.914,312.945,230.836,312.945z"/>
<path d="M152.923,99.159V41.086c0-5.078-4.117-9.195-9.195-9.195c-5.078,0-9.195,4.117-9.195,9.195v58.073
	c0,5.078,4.117,9.195,9.195,9.195C148.806,108.353,152.923,104.236,152.923,99.159z"/>
<path d="M287.651,99.159V41.086c0-5.078-4.115-9.195-9.195-9.195c-5.079,0-9.195,4.117-9.195,9.195v58.073
	c0,5.078,4.115,9.195,9.195,9.195C283.535,108.353,287.651,104.236,287.651,99.159z"/>
<path d="M197.832,99.159V41.086c0-5.078-4.117-9.195-9.195-9.195s-9.195,4.117-9.195,9.195v58.073c0,5.078,4.117,9.195,9.195,9.195
	S197.832,104.236,197.832,99.159z"/>
<path d="M377.469,99.159V41.086c0-5.078-4.115-9.195-9.195-9.195s-9.195,4.117-9.195,9.195v58.073c0,5.078,4.115,9.195,9.195,9.195
	S377.469,104.236,377.469,99.159z"/>
<path d="M323.365,31.892c-5.079,0-9.195,4.117-9.195,9.195v58.073c0,5.078,4.115,9.195,9.195,9.195c5.079,0,9.195-4.117,9.195-9.195
	V41.086C332.559,36.008,328.444,31.892,323.365,31.892z"/>
<path d="M242.741,99.159V41.086c0-5.078-4.117-9.195-9.195-9.195c-5.078,0-9.195,4.117-9.195,9.195v58.073
	c0,5.078,4.117,9.195,9.195,9.195C238.624,108.353,242.741,104.236,242.741,99.159z"/>
<g>
</g>
<g>
</g>
<g>
</g>
<g>
</g>
<g>
</g>
<g>
</g>
<g>
</g>
<g>
</g>
<g>
</g>
<g>
</g>
<g>
</g>
<g>
</g>
<g>
</g>
<g>
</g>
<g>
</g>
</svg>
