<?xml version="1.0" encoding="iso-8859-1"?>
<!-- Generator: Adobe Illustrator 19.0.0, SVG Export Plug-In . SVG Version: 6.00 Build 0)  -->
<svg version="1.1" id="Layer_1" xmlns="http://www.w3.org/2000/svg" xmlns:xlink="http://www.w3.org/1999/xlink" x="0px" y="0px"
	 viewBox="0 0 512 512" style="enable-background:new 0 0 512 512;" xml:space="preserve">
<path style="fill:#F75469;" d="M399.18,285.485v105.314c0,21.914-17.763,39.677-39.677,39.677c-10.957,0-20.876-4.435-28.059-11.618
	c-7.171-7.183-11.618-17.102-11.618-28.059V285.485c12.585,3.68,25.901,5.65,39.677,5.65
	C373.279,291.134,386.595,289.165,399.18,285.485z"/>
<path style="fill:#DD3551;" d="M370.862,290.668v100.13c0,21.914-5.086,39.677-11.359,39.677c21.914,0,39.677-17.763,39.677-39.677
	V285.485C390.09,288.143,380.614,289.894,370.862,290.668z"/>
<path style="fill:#FCCA5F;" d="M500.779,149.855c0,64.245-42.885,118.477-101.599,135.626c-12.585,3.68-25.901,5.65-39.677,5.65
	c-13.116,0-25.807-1.781-37.849-5.131c-0.613-0.165-1.227-0.342-1.828-0.519c-58.714-17.138-101.61-71.381-101.61-135.626
	c0-22.929,5.461-44.584,15.156-63.726c23.294-46.011,71.027-77.549,126.131-77.549C437.524,8.579,500.779,71.822,500.779,149.855z"
	/>
<path style="fill:#E8B459;" d="M500.779,149.859c0,64.245-42.885,118.477-101.599,135.626c-12.585,3.68-25.901,5.65-39.677,5.65
	c8.256,0,16.229-1.97,23.778-5.65c35.183-17.149,60.884-71.381,60.884-135.626c0-78.033-37.908-141.276-84.662-141.276
	C437.524,8.583,500.779,71.826,500.779,149.859z"/>
<path style="fill:#2AB573;" d="M423.724,23.987c-8.516,17.421-31.208,29.888-57.841,29.888c-29.109,0-53.477-14.861-59.846-34.818
	c16.489-6.758,34.546-10.474,53.465-10.474C382.62,8.583,404.452,14.138,423.724,23.987z"/>
<path style="fill:#F75469;" d="M500.779,149.855c0,15.64-2.536,30.678-7.23,44.725H225.445c-0.059-0.177-0.118-0.354-0.177-0.543
	c-0.212-0.649-0.425-1.309-0.625-1.958c-0.047-0.13-0.094-0.271-0.13-0.401c-0.201-0.625-0.389-1.25-0.566-1.875
	c-0.153-0.495-0.295-0.991-0.425-1.486c-0.165-0.566-0.33-1.144-0.472-1.722c-0.012-0.012-0.024-0.035-0.024-0.047
	c-0.212-0.79-0.413-1.58-0.613-2.383c-0.425-1.675-0.802-3.35-1.156-5.036c-0.189-0.861-0.354-1.71-0.519-2.571
	c-0.024-0.118-0.047-0.248-0.083-0.377c-0.165-0.908-0.33-1.828-0.484-2.748c-0.094-0.566-0.189-1.12-0.271-1.687
	c-0.094-0.578-0.177-1.156-0.259-1.734c-0.177-1.262-0.342-2.524-0.484-3.798c-0.083-0.625-0.153-1.25-0.212-1.887
	c-0.283-2.807-0.484-5.626-0.602-8.48c-0.035-0.755-0.059-1.51-0.071-2.276c-0.047-1.238-0.059-2.477-0.059-3.715
	c0-1.923,0.035-3.845,0.118-5.756v-0.13c0.035-0.885,0.083-1.781,0.142-2.654c0.059-1.144,0.142-2.288,0.248-3.42
	c0.059-0.837,0.142-1.675,0.224-2.5c0.083-0.826,0.177-1.651,0.271-2.477c0.094-0.79,0.201-1.569,0.307-2.347
	c0.071-0.566,0.153-1.12,0.236-1.675c0.212-1.415,0.436-2.831,0.696-4.234c0.083-0.436,0.153-0.873,0.248-1.309
	c0.106-0.578,0.212-1.168,0.33-1.746c0.035-0.13,0.059-0.271,0.094-0.413c0.354-1.757,0.755-3.491,1.179-5.225
	c0.024-0.094,0.047-0.177,0.059-0.271c0.224-0.861,0.436-1.71,0.672-2.559c0.224-0.849,0.46-1.687,0.696-2.524
	c0.035-0.106,0.071-0.224,0.106-0.342c0.236-0.837,0.495-1.663,0.755-2.5c0.271-0.885,0.554-1.769,0.849-2.642h268.103
	C498.243,119.189,500.779,134.227,500.779,149.855z"/>
<path style="fill:#81D8AB;" d="M255.746,149.859c0,15.64,1.864,30.678,5.308,44.725h-35.608c-4.694-14.047-7.23-29.085-7.23-44.725
	c0-15.628,2.536-30.666,7.23-44.725h35.608C257.609,119.193,255.746,134.231,255.746,149.859z"/>
<path style="fill:#DD3551;" d="M500.779,149.859c0,15.64-2.536,30.678-7.23,44.725h-53.713c2.807-14.047,4.329-29.085,4.329-44.725
	c0-15.628-1.522-30.666-4.329-44.725h53.713C498.243,119.193,500.779,134.231,500.779,149.859z"/>
<path style="fill:#FCCA5F;" d="M192.751,357.9v105.314c0,21.914-17.763,39.677-39.677,39.677c-10.957,0-20.876-4.435-28.059-11.618
	c-7.171-7.183-11.618-17.102-11.618-28.059V357.9c12.585,3.68,25.901,5.65,39.677,5.65S180.166,361.58,192.751,357.9z"/>
<g>
	<path style="fill:#E8B459;" d="M164.433,363.085v100.13c0,21.914-5.086,39.677-11.359,39.677c21.914,0,39.677-17.763,39.677-39.677
		V357.901C183.66,360.559,174.184,362.309,164.433,363.085z"/>
	<path style="fill:#E8B459;" d="M336.81,222.274c0,22.929-5.461,44.584-15.156,63.726c-0.613-0.165-1.227-0.342-1.828-0.519
		c-58.714-17.138-101.61-71.381-101.61-135.626c0-3.31,0.113-6.593,0.337-9.846c2.213-32.156,39.205-48.627,64.498-28.648
		C315.797,137.23,336.81,177.293,336.81,222.274z"/>
</g>
<path style="fill:#DD3551;" d="M334.086,194.58h-108.64c-0.059-0.177-0.118-0.354-0.177-0.543c-0.212-0.649-0.425-1.309-0.625-1.958
	c-0.047-0.13-0.094-0.271-0.13-0.401c-0.201-0.625-0.389-1.25-0.566-1.875c-0.153-0.495-0.295-0.991-0.425-1.486
	c-0.165-0.566-0.33-1.144-0.472-1.722c-0.012-0.012-0.024-0.035-0.024-0.047c-0.212-0.79-0.413-1.58-0.613-2.383
	c-0.425-1.675-0.802-3.35-1.156-5.036c-0.189-0.861-0.354-1.71-0.519-2.571c-0.024-0.118-0.047-0.248-0.083-0.377
	c-0.165-0.908-0.33-1.828-0.484-2.748c-0.094-0.566-0.189-1.12-0.271-1.687c-0.094-0.578-0.177-1.156-0.259-1.734
	c-0.177-1.262-0.342-2.524-0.484-3.798c-0.083-0.625-0.153-1.25-0.212-1.887c-0.283-2.807-0.484-5.626-0.602-8.48
	c-0.035-0.755-0.059-1.51-0.071-2.276c-0.047-1.238-0.059-2.477-0.059-3.715c0-1.923,0.035-3.845,0.118-5.756v-0.13
	c0.035-0.885,0.083-1.781,0.142-2.654c0.059-1.144,0.142-2.288,0.248-3.42c0.059-0.837,0.142-1.675,0.224-2.5
	c0.083-0.826,0.177-1.651,0.271-2.477c0.094-0.79,0.201-1.569,0.307-2.347c0.071-0.566,0.153-1.12,0.236-1.675
	c0.212-1.415,0.436-2.831,0.696-4.234c0.083-0.436,0.153-0.873,0.248-1.309c0.106-0.578,0.212-1.168,0.33-1.746
	c0.035-0.13,0.059-0.271,0.094-0.413c0.354-1.757,0.755-3.491,1.179-5.225c0.024-0.094,0.047-0.177,0.059-0.271
	c0.224-0.861,0.436-1.71,0.672-2.559c0.224-0.849,0.46-1.687,0.696-2.524c0.035-0.106,0.071-0.224,0.106-0.342
	c0.236-0.837,0.495-1.663,0.755-2.5c0.271-0.885,0.554-1.769,0.849-2.642h49.077C304.8,125.582,326.726,157.451,334.086,194.58z"/>
<path style="fill:#F75469;" d="M153.074,80.998c78.021,0,141.276,63.243,141.276,141.276c0,64.245-42.885,118.477-101.599,135.626
	c-12.585,3.68-25.901,5.65-39.677,5.65c-13.776,0-27.092-1.97-39.677-5.65c-58.714-17.138-101.61-71.381-101.61-135.626
	C11.786,144.241,75.041,80.998,153.074,80.998z"/>
<path style="fill:#DD3551;" d="M294.35,222.274c0,64.245-42.885,118.477-101.599,135.626c-12.585,3.68-25.901,5.65-39.677,5.65
	c8.256,0,16.229-1.97,23.778-5.65c35.183-17.149,60.884-71.381,60.884-135.626c0-78.033-37.908-141.276-84.662-141.276
	C231.095,80.998,294.35,144.241,294.35,222.274z"/>
<path style="fill:#FCCA5F;" d="M217.295,96.402c-8.516,17.421-31.209,29.888-57.841,29.888c-29.109,0-53.477-14.861-59.846-34.818
	c16.489-6.758,34.546-10.474,53.465-10.474C176.191,80.998,198.023,86.553,217.295,96.402z"/>
<path style="fill:#2AB573;" d="M294.35,222.274c0,15.64-2.536,30.678-7.23,44.725H19.016c-4.694-14.047-7.23-29.085-7.23-44.725
	c0-15.628,2.536-30.666,7.23-44.725h268.103C291.814,191.608,294.35,206.646,294.35,222.274z"/>
<path style="fill:#1F9E5E;" d="M294.35,222.274c0,15.64-2.536,30.678-7.23,44.725h-53.713c2.807-14.047,4.329-29.085,4.329-44.725
	c0-15.628-1.521-30.666-4.329-44.725h53.713C291.814,191.608,294.35,206.646,294.35,222.274z"/>
<path d="M152.79,213.691c-4.895,0-8.846,3.963-8.846,8.846c0,4.883,3.951,8.846,8.846,8.846c4.883,0,8.846-3.963,8.846-8.846
	C161.636,217.654,157.673,213.691,152.79,213.691z"/>
<circle cx="241.493" cy="222.54" r="8.846"/>
<circle cx="211.924" cy="222.54" r="8.846"/>
<path d="M64.082,213.691c-4.895,0-8.858,3.963-8.858,8.846c0,4.883,3.963,8.846,8.858,8.846c4.883,0,8.846-3.963,8.846-8.846
	C72.928,217.654,68.965,213.691,64.082,213.691z"/>
<path d="M93.651,213.691c-4.895,0-8.858,3.963-8.858,8.846c0,4.883,3.963,8.846,8.858,8.846c4.883,0,8.846-3.963,8.846-8.846
	C102.497,217.654,98.534,213.691,93.651,213.691z"/>
<path d="M123.221,213.691c-4.895,0-8.846,3.963-8.846,8.846c0,4.883,3.951,8.846,8.846,8.846c4.883,0,8.846-3.963,8.846-8.846
	C132.066,217.654,128.103,213.691,123.221,213.691z"/>
<path d="M182.359,213.691c-4.895,0-8.846,3.963-8.846,8.846c0,4.883,3.951,8.846,8.846,8.846c4.883,0,8.846-3.963,8.846-8.846
	C191.205,217.654,187.242,213.691,182.359,213.691z"/>
<path d="M453.42,243.199c-15.82,16.009-35.531,27.786-57.007,34.058c-12.014,3.512-24.527,5.295-37.194,5.295
	s-25.18-1.781-37.2-5.296c-8.912-2.598-17.535-6.163-25.731-10.596c4.378-14.23,6.624-29.05,6.624-44.122
	c0-16.264-2.585-32.254-7.684-47.523c-7.692-23.077-21.108-43.986-38.56-60.772h139.89c4.885,0,8.846-3.961,8.846-8.846
	c0-4.885-3.961-8.846-8.846-8.846H234.419c-4.316-2.811-8.779-5.409-13.382-7.762c-21.26-10.864-44.221-16.372-68.246-16.372
	c-19.677,0-38.795,3.746-56.813,11.132c-9.972,4.079-19.535,9.259-28.426,15.398c-4.02,2.776-5.028,8.286-2.252,12.305
	c2.776,4.02,8.285,5.028,12.305,2.252c5.496-3.796,11.287-7.165,17.289-10.087c11.066,19.215,35.994,31.981,64.278,31.981
	c16.939,0,33.282-4.647,46.015-13.085c4.073-2.699,5.186-8.188,2.487-12.26s-8.188-5.186-12.26-2.489
	c-9.87,6.539-22.741,10.141-36.244,10.141c-20.558,0-39.097-8.493-47.656-21.042c13.251-4.353,27.095-6.558,41.275-6.558
	c21.2,0,41.453,4.857,60.195,14.434c26.993,13.799,48.686,36.882,60.934,64.424H31.654c6.406-14.425,15.424-27.767,26.504-39.078
	c3.418-3.49,3.36-9.091-0.13-12.509c-3.489-3.418-9.091-3.361-12.509,0.13c-15.877,16.209-28.04,36.095-35.176,57.505
	c-5.1,15.273-7.685,31.264-7.685,47.526c0,16.277,2.585,32.266,7.684,47.523c15.572,46.705,53.066,82.816,100.289,96.593
	c13.627,3.984,27.812,6.005,42.16,6.005c10.415,0,20.74-1.079,30.831-3.186v94.004c0,17.001-13.83,30.831-30.831,30.831
	c-8.24,0-15.984-3.206-21.799-9.022c-5.824-5.834-9.032-13.579-9.032-21.809v-78.205c0-4.885-3.961-8.846-8.846-8.846
	s-8.846,3.961-8.846,8.846v78.206c0,12.95,5.045,25.135,14.209,34.314c9.162,9.163,21.348,14.209,34.314,14.209
	c26.756,0,48.523-21.767,48.523-48.523v-98.855c39.696-13.537,71.836-43.07,88.745-81.231c6.658,3.459,13.561,6.4,20.641,8.815
	v98.856c0,26.755,21.767,48.522,48.523,48.522c26.755,0,48.522-21.767,48.522-48.522v-98.86c21.874-7.477,41.91-20.02,58.262-36.569
	c3.433-3.475,3.4-9.076-0.074-12.509C462.454,239.69,456.853,239.724,453.42,243.199z M189.984,349.673
	c-12.014,3.512-24.527,5.293-37.194,5.293c-12.667,0-25.181-1.781-37.2-5.296c-37.64-10.981-68.266-38.048-83.959-73.563h173.066
	c4.885,0,8.846-3.961,8.846-8.846c0-4.885-3.961-8.846-8.846-8.846H25.282c-3.265-11.611-4.933-23.647-4.933-35.879
	c0-12.222,1.669-24.259,4.935-35.879h255.002c3.266,11.619,4.935,23.656,4.935,35.879c0,12.231-1.668,24.267-4.934,35.879h-47.163
	c-4.885,0-8.846,3.961-8.846,8.846c0,4.885,3.961,8.846,8.846,8.846h40.813C258.244,311.614,227.62,338.683,189.984,349.673z
	 M359.22,421.893c-17,0-30.83-13.83-30.83-30.83v-94.007c10.091,2.108,20.415,3.186,30.83,3.186c10.416,0,20.741-1.079,30.831-3.187
	v94.007C390.051,408.062,376.221,421.893,359.22,421.893z"/>
<path d="M501.657,102.597C481.184,41.23,423.943,0,359.219,0c-49.776,0-96.22,24.608-124.24,65.826
	c-2.747,4.041-1.697,9.542,2.342,12.289c4.04,2.747,9.542,1.697,12.289-2.342c12.988-19.106,30.467-34.16,50.495-44.152
	c11.036,19.262,35.994,32.064,64.327,32.064c25.797,0,49.451-10.962,61.626-27.918c23.653,13.811,42.847,34.862,54.289,60.785
	h-57.646c-4.885,0-8.846,3.961-8.846,8.846s3.961,8.846,8.846,8.846h64.015c3.265,11.609,4.932,23.647,4.932,35.879
	c0,12.231-1.668,24.267-4.934,35.879H322.054c-4.885,0-8.846,3.961-8.846,8.846c0,4.885,3.961,8.846,8.846,8.846h158.292
	c-3.377,7.625-7.461,14.935-12.24,21.824c-2.785,4.014-1.789,9.525,2.226,12.311c1.538,1.067,3.294,1.579,5.035,1.579
	c2.801,0,5.558-1.328,7.276-3.804c8.125-11.71,14.523-24.481,19.014-37.951c5.1-15.262,7.687-31.253,7.687-47.529
	S506.755,117.854,501.657,102.597z M364.433,45.991c-20.684,0-39.316-8.59-47.803-21.259c13.537-4.598,27.897-7.04,42.589-7.04
	c17.816,0,34.989,3.542,50.734,10.06C400.634,38.892,383.422,45.991,364.433,45.991z"/>
<path d="M428.229,150.118c0-4.883-3.951-8.846-8.834-8.846c-4.895,0-8.858,3.963-8.858,8.846c0,4.883,3.963,8.846,8.858,8.846
	C424.278,158.964,428.229,155.001,428.229,150.118z"/>
<circle cx="448.441" cy="150.122" r="8.846"/>
<circle cx="361.279" cy="150.122" r="8.846"/>
<path d="M294.325,150.118c0,4.883,3.963,8.846,8.846,8.846c4.895,0,8.846-3.963,8.846-8.846s-3.951-8.846-8.846-8.846
	C298.288,141.272,294.325,145.235,294.325,150.118z"/>
<circle cx="390.329" cy="150.122" r="8.846"/>
<path d="M323.387,150.118c0,4.883,3.951,8.846,8.846,8.846c4.883,0,8.846-3.963,8.846-8.846s-3.963-8.846-8.846-8.846
	C327.338,141.272,323.387,145.235,323.387,150.118z"/>
<path d="M34.502,213.691c-4.895,0-8.858,3.963-8.858,8.846c0,4.883,3.963,8.846,8.858,8.846c4.883,0,8.846-3.963,8.846-8.846
	C43.347,217.654,39.384,213.691,34.502,213.691z"/>
<circle cx="271.062" cy="222.54" r="8.846"/>
<circle cx="477.491" cy="150.122" r="8.846"/>
<g>
</g>
<g>
</g>
<g>
</g>
<g>
</g>
<g>
</g>
<g>
</g>
<g>
</g>
<g>
</g>
<g>
</g>
<g>
</g>
<g>
</g>
<g>
</g>
<g>
</g>
<g>
</g>
<g>
</g>
</svg>
