<?xml version="1.0" encoding="iso-8859-1"?>
<!-- Generator: Adobe Illustrator 19.0.0, SVG Export Plug-In . SVG Version: 6.00 Build 0)  -->
<svg version="1.1" id="Layer_1" xmlns="http://www.w3.org/2000/svg" xmlns:xlink="http://www.w3.org/1999/xlink" x="0px" y="0px"
	 viewBox="0 0 512 512" style="enable-background:new 0 0 512 512;" xml:space="preserve">
<path style="fill:#CCCCCC;" d="M396.646,491.967c-93.567,13.735-187.134,13.735-280.701,0
	c-33.752-4.955-57.445-35.931-53.175-69.777c10.295-81.589,13.02-163.178,8.177-244.767C65.693,88.923,133.983,12.924,222.583,9.801
	c22.011-0.776,44.021-0.793,66.032-0.048c89.151,3.013,158.314,78.631,153.028,167.676c-4.843,81.587-2.118,163.174,8.177,244.761
	C454.091,456.037,430.399,487.013,396.646,491.967z"/>
<g>
	<path style="fill:#999999;" d="M410.044,422.19c-8.179-81.589-10.343-163.178-6.496-244.767
		c4.174-88.499-50.079-164.498-120.469-167.621c-8.724-0.387-17.448-0.585-26.173-0.594c11.033,0.008,22.068,0.204,33.102,0.594
		c88.601,3.125,156.889,79.122,151.635,167.621c-4.844,81.589-2.118,163.178,8.176,244.767c4.27,33.846-19.422,64.822-53.175,69.777
		c-46.784,6.867-93.567,10.302-140.35,10.302c37.168,0,74.336-3.433,111.503-10.302C394.615,487.013,413.438,456.035,410.044,422.19
		z"/>
	<circle style="fill:#999999;" cx="146.262" cy="243.19" r="38.768"/>
	<circle style="fill:#999999;" cx="362.564" cy="243.19" r="38.768"/>
	<path style="fill:#999999;" d="M254.414,255.738c14.292,18.256,30.785,36.512,43.549,45.152c-25.081,12.822-62.018,12.822-87.099,0
		C223.628,292.25,240.121,273.994,254.414,255.738z"/>
	<path style="fill:#999999;" d="M380.602,435.678H131.989c-10.563,0-19.123-8.562-19.123-19.123l0,0
		c0-10.563,8.562-19.123,19.123-19.123h248.613c10.563,0,19.123,8.562,19.123,19.123l0,0
		C399.726,427.115,391.164,435.678,380.602,435.678z"/>
	<path style="fill:#999999;" d="M491.037,209.767v100.7c0,29.663-19.535,54.743-46.438,63.124h-0.013
		c-5.71-63.922-6.773-127.831-3.178-191.741h21.7C478.541,181.851,491.037,194.359,491.037,209.767z"/>
	<path style="fill:#999999;" d="M71.183,181.851c3.596,63.922,2.532,127.831-3.178,191.741h-0.013
		c-26.903-8.368-46.425-33.461-46.425-63.124v-100.7c0-15.408,12.496-27.916,27.916-27.916H71.183z"/>
</g>
<path d="M97.697,243.471c0,26.615,21.652,48.267,48.264,48.267s48.262-21.653,48.262-48.267s-21.65-48.267-48.262-48.267
	S97.697,216.855,97.697,243.471z M145.961,214.193c16.141,0,29.272,13.134,29.272,29.277s-13.131,29.277-29.272,29.277
	c-16.142,0-29.273-13.134-29.273-29.277C116.688,227.327,129.819,214.193,145.961,214.193z"/>
<path d="M391.531,297.251v19.179c0,16.143-13.131,29.277-29.272,29.277c-11.793,0-22.383-7.02-26.977-17.884
	c-2.045-4.83-7.618-7.089-12.444-5.046c-4.83,2.042-7.091,7.614-5.048,12.444c7.572,17.907,25.028,29.477,44.468,29.477
	c26.613,0,48.262-21.653,48.262-48.267v-19.179c0-5.244-4.25-9.495-9.495-9.495S391.531,292.007,391.531,297.251z"/>
<path d="M145.961,364.697c19.439,0,36.895-11.57,44.467-29.477c2.042-4.83-0.218-10.402-5.048-12.444
	c-4.824-2.041-10.4,0.218-12.444,5.046c-4.593,10.864-15.182,17.884-26.975,17.884c-16.142,0-29.273-13.134-29.273-29.277v-19.179
	c0-5.244-4.25-9.495-9.495-9.495s-9.495,4.251-9.495,9.495v19.179C97.697,343.044,119.349,364.697,145.961,364.697z"/>
<path d="M420.686,169.031c-37.595-29.564-91.481-26.328-125.34,7.53c-3.708,3.708-3.708,9.721,0,13.428
	c1.855,1.853,4.286,2.781,6.715,2.781c2.43,0,4.86-0.927,6.715-2.781c27.06-27.063,70.126-29.658,100.172-6.031
	c4.12,3.24,10.092,2.528,13.333-1.594C425.523,178.241,424.808,172.273,420.686,169.031z"/>
<path d="M136.973,149.312c-5.221,0.495-9.051,5.129-8.557,10.349c0.495,5.222,5.145,9.058,10.35,8.556
	c22.581-2.141,44.702,5.791,60.68,21.762c1.855,1.853,4.284,2.78,6.714,2.78c2.431,0,4.862-0.927,6.716-2.783
	c3.707-3.709,3.706-9.721-0.003-13.428C192.875,156.562,165.21,146.626,136.973,149.312z"/>
<path d="M89.296,179.243c1.848,2.631,4.789,4.036,7.778,4.036c1.885,0,3.791-0.56,5.452-1.727c2.697-1.895,5.546-3.627,8.47-5.149
	c4.651-2.422,6.461-8.156,4.037-12.807c-2.423-4.653-8.156-6.458-12.806-4.039c-3.666,1.908-7.239,4.08-10.622,6.458
	C87.315,169.03,86.282,174.952,89.296,179.243z"/>
<path d="M328.881,221.562c-4.939-1.753-10.369,0.833-12.122,5.777c-1.833,5.173-2.764,10.6-2.764,16.133
	c0,26.615,21.652,48.267,48.264,48.267s48.262-21.653,48.262-48.267s-21.65-48.267-48.262-48.267c-6.511,0-12.834,1.277-18.79,3.797
	c-4.829,2.043-7.09,7.615-5.045,12.445c2.042,4.83,7.613,7.09,12.444,5.046c3.603-1.524,7.435-2.297,11.392-2.297
	c16.141,0,29.272,13.134,29.272,29.277s-13.131,29.277-29.272,29.277c-16.142,0-29.273-13.134-29.273-29.277
	c0-3.364,0.562-6.657,1.672-9.786C336.41,228.741,333.824,223.315,328.881,221.562z"/>
<path d="M201.082,301.752c0.205,3.351,2.166,6.345,5.155,7.873c13.869,7.091,30.871,10.636,47.872,10.636
	s34.002-3.546,47.872-10.636c2.989-1.528,4.95-4.522,5.155-7.873c0.205-3.351-1.375-6.562-4.155-8.443
	c-10.303-6.972-25.39-22.697-41.395-43.141c-1.799-2.298-4.558-3.641-7.476-3.641c-2.918,0-5.677,1.343-7.476,3.641
	c-16.006,20.444-31.094,36.169-41.395,43.141C202.456,295.19,200.876,298.4,201.082,301.752z M254.109,271.167
	c7.057,8.533,15.951,18.614,24.891,26.968c-15.748,4.21-34.035,4.21-49.783,0C238.16,289.781,247.052,279.7,254.109,271.167z"/>
<path d="M380.297,426.465H196.493c-5.245,0-9.495,4.251-9.495,9.495c0,5.244,4.25,9.495,9.495,9.495h183.804
	c15.781,0,28.619-12.839,28.619-28.619s-12.839-28.619-28.619-28.619H131.685c-15.781,0-28.619,12.839-28.619,28.619
	s12.839,28.619,28.619,28.619h35.689c5.245,0,9.495-4.251,9.495-9.495c0-5.244-4.25-9.495-9.495-9.495h-35.689
	c-5.308,0-9.628-4.32-9.628-9.628s4.32-9.628,9.628-9.628h248.612c5.308,0,9.628,4.32,9.628,9.628S385.606,426.465,380.297,426.465z
	"/>
<path d="M462.803,172.638h-11.742c1.448-55.324-24.133-107.37-69.176-140.112c-4.242-3.084-10.179-2.143-13.264,2.097
	c-3.084,4.242-2.145,10.18,2.097,13.264c41.308,30.028,64.168,78.351,61.149,129.254c-0.092,1.524-0.185,3.061-0.243,4.459
	c-3.603,64.038-2.526,129.013,3.199,193.117c1.465,16.437,3.237,32.907,5.267,48.952c3.599,28.458-16.646,55.008-45.133,59.186
	c-92.21,13.538-185.719,13.539-277.935,0c-28.483-4.177-48.728-30.728-45.13-59.183c2.031-16.047,3.803-32.517,5.267-48.951
	c5.724-64.068,6.802-129.023,3.204-193.052c-0.063-1.475-0.151-2.94-0.247-4.526c-2.403-40.507,11.296-79.33,38.573-109.318
	c27.021-29.705,63.931-46.842,103.929-48.254c21.68-0.762,43.672-0.774,65.369-0.038c18.892,0.638,37.169,4.725,54.327,12.146
	c4.813,2.081,10.403-0.133,12.484-4.945c2.083-4.813-0.132-10.403-4.945-12.484c-19.348-8.368-39.947-12.977-61.224-13.696
	C266.5-0.197,244.068-0.185,221.95,0.593c-45.154,1.593-86.814,20.931-117.307,54.452C75.158,87.459,59.758,129.027,60.931,172.64
	H49.18c-20.629,0-37.411,16.783-37.411,37.411v100.7c0,30.676,18.117,57.699,45.8,69.494c-1.304,13.798-2.811,27.574-4.515,41.042
	c-2.384,18.844,2.659,37.549,14.196,52.671c11.52,15.096,28.217,24.928,47.018,27.686C161.296,508.549,208.637,512,255.994,512
	c47.346-0.001,94.709-3.452,141.722-10.356c18.803-2.757,35.502-12.589,47.02-27.686c11.537-15.121,16.58-33.827,14.196-52.672
	c-1.704-13.468-3.209-27.244-4.515-41.045c27.689-11.805,45.813-38.828,45.813-69.491v-100.7
	C500.229,189.42,483.44,172.638,462.803,172.638z M30.757,310.749v-100.7c0-10.157,8.263-18.421,18.421-18.421h12.683
	c2.754,55.879,1.909,112.4-2.523,168.343C41.867,350.09,30.757,331.54,30.757,310.749z M481.238,310.749
	c0,20.781-11.114,39.329-28.593,49.218c-4.429-55.917-5.274-112.407-2.523-168.339h12.682c10.164,0,18.435,8.263,18.435,18.421
	V310.749z"/>
<circle cx="108.649" cy="125.892" r="9.495"/>
<circle cx="137.084" cy="106.724" r="9.495"/>
<circle cx="368.806" cy="70.098" r="9.495"/>
<circle cx="346.055" cy="95.33" r="9.495"/>
<circle cx="382.137" cy="97.229" r="9.495"/>
<circle cx="412.484" cy="367.059" r="9.495"/>
<g>
</g>
<g>
</g>
<g>
</g>
<g>
</g>
<g>
</g>
<g>
</g>
<g>
</g>
<g>
</g>
<g>
</g>
<g>
</g>
<g>
</g>
<g>
</g>
<g>
</g>
<g>
</g>
<g>
</g>
</svg>
