<?xml version="1.0" encoding="iso-8859-1"?>
<!-- Generator: Adobe Illustrator 19.0.0, SVG Export Plug-In . SVG Version: 6.00 Build 0)  -->
<svg version="1.1" id="Layer_1" xmlns="http://www.w3.org/2000/svg" xmlns:xlink="http://www.w3.org/1999/xlink" x="0px" y="0px"
	 viewBox="0 0 512 512" style="enable-background:new 0 0 512 512;" xml:space="preserve">
<g>
	<path style="fill:#DBA46B;" d="M140.197,294.407v70.272c-23.315,0-42.203-18.898-42.203-42.203c0-10.782,4.036-20.617,10.684-28.07
		H140.197z"/>
	<path style="fill:#DBA46B;" d="M312.358,466.709c-16.624,9.204-35.762,14.437-56.107,14.437s-39.472-5.233-56.096-14.437
		c26.688-3.569,48.491-22.608,56.107-47.806C263.867,444.101,285.67,463.141,312.358,466.709z"/>
	<path style="fill:#DBA46B;" d="M403.846,294.407c6.647,7.453,10.684,17.288,10.684,28.07c0,23.304-18.887,42.203-42.203,42.203
		v-70.272H403.846z"/>
</g>
<path style="fill:#F4C48D;" d="M372.327,294.407v70.675c0,19.225-4.678,37.361-12.958,53.333
	c-7.224-3.395-12.218-10.738-12.218-19.235c0-0.522,0.011-1.044,0.054-1.567v-0.011c0.054-0.74,0.141-1.469,0.272-2.176
	c0.152-1.523,0.228-3.068,0.228-4.624c0-25.622-20.769-46.38-46.38-46.38c-17.571,0-32.857,9.759-40.723,24.164
	c-0.022,0.022-0.033,0.033-0.033,0.054c-1.403,2.796-2.622,5.701-3.645,8.693c0,0.011,0,0.022-0.011,0.033
	c-0.228,0.696-0.446,1.393-0.653,2.1c-0.218-0.707-0.435-1.403-0.664-2.1c-0.011-0.011-0.011-0.022-0.011-0.033
	c-1.023-2.992-2.241-5.897-3.645-8.693c0-0.022-0.011-0.033-0.033-0.054c-7.866-14.405-23.152-24.164-40.723-24.164
	c-25.611,0-46.38,20.759-46.38,46.38c0,1.556,0.076,3.101,0.228,4.624c0.131,0.707,0.218,1.436,0.272,2.176v0.011
	c0.044,0.522,0.054,1.044,0.054,1.567c0,8.497-4.994,15.83-12.207,19.225c-8.279-15.971-12.958-34.097-12.958-53.322v-70.675
	H372.327z"/>
<path style="fill:#995E14;" d="M389.615,399.777c-0.316,37.361-30.703,67.541-68.129,67.541c-3.09,0-6.147-0.207-9.128-0.609
	c-26.688-3.569-48.491-22.608-56.096-47.806c-7.616,25.198-29.419,44.237-56.107,47.806c-2.992,0.403-6.038,0.609-9.128,0.609
	c-37.426,0-67.813-30.18-68.129-67.542c0.283,10.423,8.084,18.963,18.169,20.41c1.001,0.152,2.024,0.228,3.057,0.228
	c3.231,0,6.288-0.718,9.03-2.013c7.213-3.394,12.207-10.727,12.207-19.225c0-0.522-0.011-1.044-0.054-1.567v-0.011
	c-0.054-0.74-0.141-1.469-0.272-2.176c-0.152-1.523-0.228-3.068-0.228-4.624c0-25.622,20.769-46.38,46.38-46.38
	c17.571,0,32.857,9.759,40.723,24.164c0.022,0.022,0.033,0.033,0.033,0.054c1.403,2.796,2.622,5.701,3.645,8.693
	c0,0.011,0,0.022,0.011,0.033c0.228,0.696,0.446,1.393,0.664,2.1c0.207-0.707,0.424-1.404,0.653-2.1
	c0.011-0.011,0.011-0.022,0.011-0.033c1.023-2.992,2.241-5.897,3.645-8.693c0-0.022,0.011-0.033,0.033-0.054
	c7.866-14.405,23.152-24.164,40.723-24.164c25.611,0,46.38,20.759,46.38,46.38c0,1.556-0.076,3.101-0.228,4.624
	c-0.131,0.707-0.218,1.436-0.272,2.176v0.011c-0.044,0.522-0.054,1.044-0.054,1.567c0,8.497,4.994,15.841,12.218,19.235
	c2.731,1.284,5.788,2.002,9.019,2.002c1.044,0,2.067-0.076,3.057-0.228C381.532,418.74,389.332,410.2,389.615,399.777z"/>
<path style="fill:#B2741C;" d="M371.446,420.187c-12.425,13.426-30.213,21.825-49.96,21.825c-3.09,0-6.147-0.207-9.128-0.609
	c-21.212-2.836-39.339-15.447-49.703-33.155c-2.858-4.884-9.931-4.885-12.791-0.001c-10.369,17.709-28.496,30.32-49.71,33.157
	c-2.992,0.403-6.038,0.609-9.128,0.609c-19.747,0-37.535-8.399-49.96-21.825c1.001,0.152,2.024,0.228,3.057,0.228
	c3.231,0,6.288-0.718,9.03-2.013c7.213-3.394,12.207-10.727,12.207-19.225c0-0.522-0.011-1.044-0.054-1.567v-0.011
	c-0.054-0.74-0.141-1.469-0.272-2.176c-0.152-1.523-0.228-3.068-0.228-4.624c0-25.622,20.769-46.38,46.38-46.38
	c17.571,0,32.857,9.759,40.723,24.164c0.022,0.022,0.033,0.033,0.033,0.054c1.403,2.796,2.622,5.701,3.645,8.693
	c0,0.011,0,0.022,0.011,0.033c0.228,0.696,0.446,1.393,0.664,2.1c0.207-0.707,0.424-1.404,0.653-2.1
	c0.011-0.011,0.011-0.022,0.011-0.033c1.023-2.992,2.241-5.897,3.645-8.693c0-0.022,0.011-0.033,0.033-0.054
	c7.866-14.405,23.152-24.164,40.723-24.164c25.611,0,46.38,20.759,46.38,46.38c0,1.556-0.076,3.101-0.228,4.624
	c-0.131,0.707-0.218,1.436-0.272,2.176v0.011c-0.044,0.522-0.054,1.044-0.054,1.567c0,8.497,4.994,15.841,12.218,19.235
	c2.731,1.284,5.788,2.002,9.019,2.002C369.433,420.416,370.456,420.34,371.446,420.187z"/>
<path style="fill:#F75469;" d="M365.549,165.525H146.975c18.169-79.498,60.263-135.159,109.276-135.159
	C305.275,30.366,347.369,86.027,365.549,165.525z"/>
<path style="fill:#DD3551;" d="M256.251,30.366c29.257,0.008,54.377,55.666,65.226,135.159h44.061
	C347.359,86.032,305.271,30.375,256.251,30.366z"/>
<path style="fill:#F75469;" d="M365.549,165.525H146.975H8.421l7.05,32.607l6.038,27.928c8.628,39.885,43.9,68.347,84.71,68.347
	h2.459h31.519h98.658h34.815h98.658h31.519h2.459c40.799,0,76.082-28.461,84.699-68.347l6.016-27.809l7.083-32.726L365.549,165.525
	L365.549,165.525z"/>
<rect x="140.197" y="294.404" style="fill:#DBA46B;" width="232.13" height="34.271"/>
<path style="fill:#DD3551;" d="M443.69,226.06l6.038-27.928l7.05-32.607h47.325l-7.05,32.607l-6.038,27.928
	c-8.628,39.885-43.9,68.347-84.71,68.347h-2.459h-31.519H358.98C399.79,294.407,435.062,265.945,443.69,226.06z"/>
<polygon style="fill:#FCCA5F;" points="504.103,165.525 497.02,198.251 496.465,198.132 15.471,198.132 8.421,165.525 
	146.975,165.525 365.549,165.525 "/>
<path style="fill:#DD3551;" d="M493.181,198.132l-2.177,10.064c-8.617,39.885-43.9,68.347-84.699,68.347h-2.459h-31.519H273.67
	h-34.815h-98.658h-31.519h-2.459c-40.81,0-76.082-28.461-84.71-68.347l-2.176-10.064h-3.862l6.038,27.928
	c8.628,39.885,43.9,68.347,84.71,68.347h2.459h31.519h98.658h34.815h98.658h31.519h2.459c40.799,0,76.082-28.461,84.699-68.347
	l6.016-27.809l-0.555-0.12L493.181,198.132L493.181,198.132z"/>
<path d="M510.191,160.644c-1.549-1.92-3.883-3.037-6.351-3.037H157.128c8.892-34.079,22.292-63.034,39.051-84.16
	c17.997-22.688,38.68-34.679,59.813-34.679c18.378,0,36.696,9.233,52.972,26.7c16.523,17.731,30.584,43.39,40.664,74.204
	c1.401,4.284,6.008,6.618,10.292,5.219c4.283-1.401,6.619-6.009,5.218-10.292C342.166,64.374,301.363,22.449,255.99,22.449
	c-26.291,0-51.395,14.127-72.597,40.857c-18.838,23.748-33.676,56.257-43.111,94.302H8.16c-2.468,0-4.801,1.116-6.351,3.037
	c-1.549,1.919-2.147,4.437-1.625,6.848l13.088,60.536c4.566,21.107,16.335,40.197,33.138,53.756
	c13.688,11.044,30.258,18.043,47.603,20.261c-2.899,6.442-4.441,13.475-4.441,20.675c0,25.065,18.407,45.905,42.413,49.729
	c0.788,13.638,3.824,27.109,8.945,39.714c-5.712-1.288-9.969-6.254-10.138-12.368c-0.123-4.474-3.831-7.974-8.303-7.934
	c-4.476,0.081-8.051,3.751-8.013,8.228c0.353,41.704,34.575,75.633,76.289,75.633c2.514,0,5.04-0.126,7.536-0.372
	c17.686,9.29,37.568,14.2,57.688,14.2c20.126,0,40.011-4.91,57.698-14.2c2.494,0.246,5.019,0.372,7.537,0.372
	c41.714,0,75.936-33.928,76.289-75.633c0.037-4.476-3.538-8.147-8.013-8.228c-0.05,0-0.1-0.001-0.15-0.001
	c-4.408,0-8.031,3.511-8.153,7.935c-0.169,6.109-4.419,11.071-10.124,12.365c5.118-12.602,8.153-26.072,8.941-39.711
	c24.005-3.824,42.413-24.664,42.413-49.729c0-7.2-1.542-14.233-4.441-20.675c17.342-2.218,33.91-9.217,47.598-20.261
	c16.806-13.559,28.573-32.651,33.132-53.755l13.099-60.535C512.338,165.082,511.74,162.564,510.191,160.644z M223.618,468.261
	c13.353-6.386,24.655-16.545,32.379-29.25c7.721,12.706,19.02,22.865,32.371,29.251c-10.424,3.267-21.357,4.968-32.378,4.968
	C244.972,473.229,234.041,471.529,223.618,468.261z M321.225,459.401c-2.699,0-5.404-0.181-8.047-0.537
	c-23.211-3.104-42.588-19.619-49.366-42.075c-1.039-3.445-4.212-5.802-7.809-5.802c-0.001,0-0.001,0-0.002,0
	c-3.597,0-6.77,2.355-7.811,5.799c-6.788,22.459-26.17,38.976-49.384,42.08c-2.645,0.356-5.35,0.536-8.04,0.536
	c-22.533,0-42.285-12.593-52.529-31.111c1.82,0.346,3.699,0.528,5.626,0.528c4.377,0,8.587-0.94,12.505-2.79
	c10.262-4.829,16.892-15.274,16.892-26.608c0-0.508-0.008-1.269-0.072-2.105c-0.001-0.023-0.003-0.046-0.004-0.069
	c-0.069-0.929-0.175-1.829-0.318-2.679c-0.107-1.155-0.16-2.339-0.16-3.525c0-8.975,3.17-17.694,8.928-24.553
	c2.897-3.452,2.448-8.599-1.004-11.496c-3.452-2.897-8.598-2.447-11.496,1.004c-8.221,9.794-12.747,22.24-12.747,35.045
	c0,1.825,0.09,3.653,0.269,5.437c0.023,0.225,0.054,0.448,0.096,0.67c0.065,0.355,0.116,0.758,0.151,1.202
	c0.003,0.06,0.008,0.12,0.013,0.18c0.025,0.296,0.026,0.592,0.026,0.888c0,1.98-0.461,3.896-1.29,5.627
	c-5.011-12.591-7.555-25.907-7.555-39.724V314.69c0-4.506-3.653-8.16-8.16-8.16s-8.16,3.653-8.16,8.16v41.076
	c-14.842-3.665-25.883-17.089-25.883-33.047c0-7.196,2.266-14.144,6.43-19.91h118.108v37.3c-6.129-2.347-12.725-3.606-19.507-3.606
	c-6.982,0-13.784,1.303-20.219,3.873c-4.185,1.671-6.223,6.419-4.551,10.605c1.67,4.184,6.415,6.224,10.604,4.551
	c4.501-1.797,9.267-2.709,14.167-2.709c13.986,0,26.839,7.622,33.551,19.895c1.197,2.404,2.248,4.922,3.125,7.484
	c0.207,0.633,0.404,1.265,0.602,1.907c1.054,3.424,4.219,5.758,7.798,5.758c0.018,0,0.038,0,0.057,0
	c3.602-0.025,6.762-2.409,7.775-5.865c0.175-0.598,0.358-1.187,0.551-1.777c0.002-0.004,0.003-0.009,0.005-0.012
	c0.875-2.561,1.925-5.078,3.121-7.484c6.71-12.279,19.565-19.906,33.556-19.906c21.075,0,38.221,17.145,38.221,38.221
	c0,1.189-0.054,2.374-0.16,3.523c-0.144,0.851-0.249,1.751-0.318,2.68c-0.002,0.023-0.003,0.045-0.005,0.067
	c-0.063,0.82-0.071,1.554-0.071,2.107c0,11.345,6.637,21.794,16.907,26.621c3.921,1.842,8.123,2.777,12.489,2.777
	c1.927,0,3.807-0.182,5.626-0.528C363.51,446.808,343.758,459.401,321.225,459.401z M255.996,360.315
	c-2.648-3.884-5.767-7.356-9.242-10.383v-47.123h18.496v47.115C261.769,352.953,258.646,356.428,255.996,360.315z M380.225,355.766
	v-41.075c0-4.506-3.652-8.16-8.16-8.16c-4.507,0-8.16,3.653-8.16,8.16v50.633c0,13.827-2.545,27.15-7.558,39.744
	c-0.834-1.736-1.298-3.659-1.298-5.647c0-0.296,0.001-0.592,0.025-0.888c0.005-0.058,0.01-0.115,0.013-0.174
	c0.035-0.446,0.086-0.853,0.152-1.209c0.041-0.222,0.072-0.444,0.096-0.668c0.178-1.779,0.269-3.609,0.269-5.44
	c0-30.074-24.466-54.54-54.54-54.54c-6.779,0-13.371,1.258-19.497,3.601v-37.296h118.111c4.164,5.766,6.43,12.714,6.43,19.91
	C406.109,338.677,395.068,352.1,380.225,355.766z M455.338,269.082c-13.912,11.225-31.419,17.408-49.294,17.408H105.958
	c-17.879,0-35.386-6.182-49.299-17.408c-13.912-11.225-23.656-27.03-27.435-44.504l-3.901-18.044h43.74
	c4.506,0,8.16-3.653,8.16-8.16c0-4.506-3.653-8.16-8.16-8.16H21.794l-3.522-16.287h475.454l-3.525,16.287H98.35
	c-4.506,0-8.16,3.653-8.16,8.16c0,4.506,3.653,8.16,8.16,8.16h388.32l-3.905,18.045
	C478.991,242.051,469.251,257.856,455.338,269.082z"/>
<path d="M215.997,315.6c-0.609-4.465-4.717-7.597-9.186-6.984l-26.438,3.601c-4.465,0.608-7.592,4.721-6.984,9.186
	c0.557,4.092,4.057,7.06,8.075,7.06c0.367,0,0.738-0.025,1.111-0.076l26.438-3.601C213.479,324.179,216.605,320.065,215.997,315.6z"
	/>
<path d="M331.627,312.218l-26.449-3.601c-4.464-0.602-8.578,2.518-9.186,6.985c-0.608,4.465,2.519,8.578,6.985,9.186l26.449,3.601
	c0.374,0.05,0.744,0.075,1.111,0.075c4.017,0,7.517-2.969,8.075-7.06C339.22,316.939,336.093,312.826,331.627,312.218z"/>
<g>
</g>
<g>
</g>
<g>
</g>
<g>
</g>
<g>
</g>
<g>
</g>
<g>
</g>
<g>
</g>
<g>
</g>
<g>
</g>
<g>
</g>
<g>
</g>
<g>
</g>
<g>
</g>
<g>
</g>
</svg>
