<?xml version="1.0" encoding="iso-8859-1"?>
<!-- Generator: Adobe Illustrator 19.0.0, SVG Export Plug-In . SVG Version: 6.00 Build 0)  -->
<svg version="1.1" id="Layer_1" xmlns="http://www.w3.org/2000/svg" xmlns:xlink="http://www.w3.org/1999/xlink" x="0px" y="0px"
	 viewBox="0 0 512 512" style="enable-background:new 0 0 512 512;" xml:space="preserve">
<path style="fill:#FCCA5F;" d="M503.81,259.775H8.727l16.763,77.512c11.044,51.069,56.217,87.516,108.466,87.516H378.58
	c52.25,0,97.421-36.447,108.466-87.516L503.81,259.775z"/>
<path style="fill:#E8B459;" d="M407.379,259.775l-16.763,77.512c-11.044,51.069-56.217,87.516-108.466,87.516h96.431
	c52.25,0,97.421-36.447,108.466-87.516l16.763-77.512H407.379z"/>
<path style="fill:#F75469;" d="M146.978,259.77C165.15,157.979,207.25,86.693,256.265,86.693
	c49.028,0,91.126,71.286,109.298,173.076"/>
<path style="fill:#DD3551;" d="M365.563,259.773h-62.598c-7.76-101.77-25.739-173.054-46.684-173.076
	C305.299,86.719,347.392,157.991,365.563,259.773z"/>
<g>
	<path style="fill:#2AB573;" d="M489.815,324.481l-2.763,12.802c-3.147,14.527-9.046,27.87-17.088,39.533l-0.113-0.079
		l-30.171-52.256L489.815,324.481L489.815,324.481z"/>
	<polygon style="fill:#2AB573;" points="398.658,324.481 428.829,376.736 368.486,376.736 	"/>
	<polygon style="fill:#2AB573;" points="357.636,324.481 327.465,376.736 297.293,324.481 	"/>
	<polygon style="fill:#2AB573;" points="256.272,324.481 286.432,376.736 226.1,376.736 	"/>
	<polygon style="fill:#2AB573;" points="215.239,324.481 185.067,376.736 154.907,324.481 	"/>
	<polygon style="fill:#2AB573;" points="113.874,324.481 144.046,376.736 83.703,376.736 	"/>
	<path style="fill:#2AB573;" d="M72.841,324.481l-30.16,52.256l-0.113,0.079c-8.031-11.662-13.941-25.006-17.076-39.533
		l-2.763-12.802H72.841z"/>
</g>
<path d="M384.736,286.302h-24.813c-4.672,0-8.459,3.787-8.459,8.459c0,4.672,3.787,8.459,8.459,8.459h24.813
	c4.672,0,8.459-3.788,8.459-8.459S389.408,286.302,384.736,286.302z"/>
<path d="M510.125,254.713c-1.606-1.991-4.025-3.148-6.584-3.148H156.909c18.605-93.836,57.873-156.162,99.084-156.162
	c23.461,0,42.248,19.859,53.875,36.519c17.194,24.634,31.535,60.013,41.476,102.314c1.069,4.548,5.624,7.37,10.17,6.299
	c4.548-1.069,7.369-5.623,6.299-10.17C357.388,186,342.148,148.612,323.74,122.239c-19.978-28.624-43.406-43.755-67.748-43.755
	c-26.793,0-52.176,18.11-73.4,52.371c-18.795,30.339-33.579,71.965-42.919,120.709H105.03c-4.672,0-8.459,3.787-8.459,8.459
	c0,4.672,3.787,8.459,8.459,8.459h388.025l-3.853,17.819h-76.271c-4.672,0-8.459,3.788-8.459,8.459s3.788,8.459,8.459,8.459h72.612
	l-2.822,13.052h-43.314c-3.023,0-5.814,1.612-7.326,4.23c-1.511,2.618-1.511,5.843,0,8.459l27.49,47.613
	c-19.358,25.153-49.344,40.025-81.263,40.025h-244.63c-31.921,0-61.909-14.874-81.264-40.026l27.481-47.614
	c1.51-2.618,1.51-5.841,0-8.459c-1.51-2.618-4.304-4.23-7.326-4.23H29.278l-2.822-13.052h303.58c4.672,0,8.459-3.787,8.459-8.459
	c0-4.672-3.787-8.459-8.459-8.459H22.798l-3.853-17.819h53.233c4.672,0,8.459-3.787,8.459-8.459c0-4.672-3.787-8.459-8.459-8.459
	H8.46c-2.558,0-4.977,1.157-6.584,3.148c-1.606,1.991-2.225,4.601-1.685,7.1l16.761,77.506c3.307,15.324,9.49,29.639,18.383,42.552
	c22.314,32.34,59.079,51.648,98.345,51.648h244.63c39.266,0,76.031-19.307,98.346-51.649c8.877-12.874,15.064-27.187,18.393-42.55
	l16.761-77.506C512.35,259.314,511.73,256.704,510.125,254.713z M32.936,333.191H57.92l-15.694,27.19
	c-3.938-7.778-6.878-16.015-8.738-24.633L32.936,333.191z M469.764,360.389l-15.704-27.198h25.003l-0.552,2.551
	C476.641,344.38,473.698,352.621,469.764,360.389z"/>
<path d="M113.603,316.273c-3.022,0-5.814,1.612-7.326,4.23l-30.171,52.256c-1.511,2.618-1.511,5.842,0,8.459
	c1.511,2.617,4.303,4.23,7.326,4.23h60.343c3.023,0,5.814-1.612,7.326-4.23c1.511-2.618,1.511-5.842,0-8.459l-30.171-52.256
	C119.418,317.885,116.625,316.273,113.603,316.273z M98.084,368.528l15.519-26.879l15.519,26.879H98.084z"/>
<path d="M184.796,385.447L184.796,385.447c3.023,0,5.815-1.612,7.327-4.23l30.171-52.256c1.511-2.618,1.511-5.842,0-8.459
	c-1.511-2.617-4.303-4.23-7.326-4.23h-60.332c-3.022,0-5.814,1.612-7.326,4.23c-1.511,2.618-1.511,5.841,0,8.459l30.16,52.256
	C178.98,383.834,181.773,385.447,184.796,385.447z M200.315,333.191l-15.518,26.877l-15.512-26.877H200.315z"/>
<path d="M225.829,385.447h60.331c3.022,0,5.814-1.612,7.326-4.23c1.511-2.618,1.511-5.841,0-8.459l-30.16-52.256
	c-1.51-2.618-4.303-4.231-7.326-4.231l0,0c-3.022,0-5.814,1.612-7.326,4.23l-30.171,52.256c-1.511,2.618-1.511,5.843,0,8.459
	S222.807,385.447,225.829,385.447z M255.999,341.653l15.512,26.877h-31.03L255.999,341.653z"/>
<path d="M289.696,320.502c-1.511,2.618-1.511,5.842,0,8.459l30.171,52.256c1.511,2.617,4.304,4.23,7.326,4.23
	s5.814-1.612,7.326-4.23l30.171-52.256c1.511-2.618,1.511-5.842,0-8.459c-1.511-2.617-4.303-4.23-7.326-4.23h-60.343
	C294,316.273,291.207,317.885,289.696,320.502z M342.713,333.191l-15.519,26.879l-15.519-26.879H342.713z"/>
<path d="M360.89,372.758c-1.511,2.618-1.511,5.842,0,8.459c1.511,2.617,4.303,4.23,7.326,4.23h60.343
	c3.023,0,5.814-1.612,7.326-4.23c1.511-2.618,1.511-5.842,0-8.459l-30.171-52.256c-1.511-2.617-4.304-4.23-7.326-4.23
	c-3.022,0-5.814,1.612-7.326,4.23L360.89,372.758z M398.387,341.651l15.519,26.879h-31.039L398.387,341.651z"/>
<path d="M178.369,211.252l-4.676,21.43c-0.996,4.565,1.897,9.072,6.462,10.069c0.608,0.132,1.214,0.196,1.811,0.196
	c3.89,0,7.393-2.701,8.256-6.658l4.676-21.43c0.996-4.565-1.897-9.072-6.462-10.069
	C183.874,203.795,179.365,206.687,178.369,211.252z"/>
<path d="M212.929,211.951l-2.82,21.43c-0.609,4.632,2.652,8.881,7.284,9.491c0.374,0.05,0.747,0.073,1.114,0.073
	c4.181,0,7.816-3.099,8.377-7.356l2.82-21.43c0.609-4.632-2.652-8.881-7.284-9.491C217.788,204.057,213.538,207.319,212.929,211.951
	z"/>
<path d="M247.539,213.055v21.43c0,4.672,3.787,8.459,8.459,8.459s8.459-3.787,8.459-8.459v-21.43c0-4.672-3.787-8.459-8.459-8.459
	S247.539,208.384,247.539,213.055z"/>
<path d="M289.579,204.668c-4.631,0.61-7.893,4.859-7.284,9.491l2.82,21.43c0.561,4.258,4.196,7.356,8.377,7.356
	c0.368,0,0.74-0.024,1.114-0.073c4.631-0.61,7.893-4.859,7.284-9.491l-2.82-21.43C298.46,207.32,294.211,204.06,289.579,204.668z"/>
<path d="M323.562,204.79c-4.565,0.996-7.458,5.503-6.462,10.068l4.675,21.43c0.864,3.958,4.366,6.658,8.256,6.658
	c0.598,0,1.203-0.063,1.811-0.196c4.565-0.996,7.458-5.503,6.462-10.068l-4.675-21.43
	C332.634,206.687,328.122,203.795,323.562,204.79z"/>
<g>
</g>
<g>
</g>
<g>
</g>
<g>
</g>
<g>
</g>
<g>
</g>
<g>
</g>
<g>
</g>
<g>
</g>
<g>
</g>
<g>
</g>
<g>
</g>
<g>
</g>
<g>
</g>
<g>
</g>
</svg>
