<?xml version="1.0" encoding="iso-8859-1"?>
<!-- Generator: Adobe Illustrator 19.0.0, SVG Export Plug-In . SVG Version: 6.00 Build 0)  -->
<svg version="1.1" id="Layer_1" xmlns="http://www.w3.org/2000/svg" xmlns:xlink="http://www.w3.org/1999/xlink" x="0px" y="0px"
	 viewBox="0 0 511.999 511.999" style="enable-background:new 0 0 511.999 511.999;" xml:space="preserve">
<g>
	<path style="fill:#FCCA5F;" d="M0.73,252.227c-0.474-2.2-0.72-4.469-0.73-6.808C0.355,247.659,0.602,249.927,0.73,252.227z"/>
	<path style="fill:#FCCA5F;" d="M471.457,278.66c-18.443,0-33.389-14.946-33.389-33.389c0-0.826,0.027-1.643,0.088-2.461v-0.027
		c0.088-1.16,0.229-2.302,0.43-3.427c0.237-2.39,0.36-4.815,0.36-7.267c0-40.277-32.651-72.929-72.929-72.929
		c-27.625,0-51.656,15.359-64.027,38.002c-0.027,0.027-0.044,0.052-0.052,0.088c-2.205,4.385-4.121,8.954-5.72,13.663
		c0,0.018-0.009,0.036-0.018,0.052c-0.369,1.092-0.708,2.196-1.042,3.304c-0.334-1.107-0.673-2.212-1.042-3.304
		c-0.009-0.018-0.018-0.036-0.018-0.052c-1.599-4.709-3.514-9.278-5.721-13.663c-0.009-0.036-0.027-0.061-0.052-0.088
		c-12.371-22.643-36.403-38.002-64.027-38.002c-40.277,0-72.929,32.651-72.929,72.929c0,2.452,0.123,4.877,0.36,7.267
		c0.202,1.125,0.342,2.267,0.43,3.427v0.027c0.061,0.817,0.088,1.634,0.088,2.461c0,18.443-14.945,33.389-33.389,33.389
		c-18.126,0-32.88-14.436-33.381-32.449c0.501,58.729,48.274,106.186,107.118,106.186c48.384,0,89.265-32.077,102.562-76.119
		c13.298,44.041,54.178,76.119,102.562,76.119c58.844,0,106.616-47.456,107.118-106.186
		C504.337,264.224,489.584,278.66,471.457,278.66z"/>
</g>
<g>
	<path style="fill:#E8B459;" d="M504.837,246.208c-0.503,58.734-48.276,106.191-107.119,106.191
		c-48.384,0-89.271-32.075-102.56-76.119c-13.3,44.043-54.186,76.119-102.57,76.119c-58.843,0-106.615-47.457-107.109-106.191
		c0.237,8.673,3.779,16.506,9.403,22.308c16.773,37.235,54.215,63.164,97.706,63.164c48.384,0,89.271-32.075,102.57-76.119
		c13.29,44.043,54.176,76.119,102.56,76.119c43.491,0,80.924-25.919,97.696-63.154C501.048,262.724,504.59,254.881,504.837,246.208z
		"/>
	<path style="fill:#E8B459;" d="M438.067,245.419c-5.446-34.887-35.627-61.595-72.044-61.595c-27.626,0-51.66,15.362-64.032,38.005
		c-0.02,0.03-0.039,0.049-0.049,0.089c-2.21,4.381-4.124,8.959-5.722,13.665c0,0.02-0.01,0.03-0.02,0.049
		c-0.365,1.095-0.701,2.2-1.036,3.305c-0.335-1.105-0.681-2.21-1.046-3.305c-0.01-0.02-0.02-0.03-0.02-0.049
		c-1.598-4.706-3.512-9.284-5.713-13.665c-0.01-0.039-0.03-0.059-0.059-0.089c-12.372-22.643-36.397-38.005-64.023-38.005
		c-36.426,0-66.608,26.708-72.054,61.595v-0.148c0-0.829-0.03-1.648-0.089-2.457v-0.03c-0.089-1.164-0.227-2.299-0.434-3.424
		c-0.237-2.398-0.355-4.815-0.355-7.271c0-40.274,32.648-72.932,72.932-72.932c27.626,0,51.65,15.362,64.023,38.005
		c0.03,0.03,0.049,0.049,0.059,0.089c2.2,4.381,4.114,8.959,5.713,13.665c0,0.02,0.01,0.03,0.02,0.049
		c0.365,1.095,0.71,2.2,1.046,3.305c0.335-1.105,0.671-2.21,1.036-3.305c0.01-0.02,0.02-0.03,0.02-0.049
		c1.598-4.706,3.512-9.284,5.722-13.665c0.01-0.039,0.03-0.059,0.049-0.089c12.372-22.643,36.407-38.005,64.032-38.005
		c40.274,0,72.922,32.658,72.922,72.932c0,2.457-0.118,4.874-0.355,7.271c-0.207,1.125-0.345,2.259-0.434,3.424v0.03
		c-0.059,0.809-0.089,1.628-0.089,2.457L438.067,245.419L438.067,245.419z"/>
</g>
<path d="M192.358,360.017c-30.414,0-59.055-11.796-80.648-33.216c-21.582-21.407-33.609-49.928-33.868-80.307
	c-0.035-4.059,3.207-7.388,7.265-7.462c4.025-0.065,7.418,3.136,7.531,7.193c0.394,14.162,11.807,25.255,25.983,25.255
	c14.331,0,25.99-11.659,25.99-25.99c0-0.682-0.022-1.304-0.067-1.903c-0.004-0.052-0.008-0.105-0.011-0.158
	c-0.071-0.884-0.18-1.738-0.325-2.543c-0.035-0.192-0.062-0.386-0.081-0.58c-0.262-2.65-0.396-5.34-0.396-7.997
	c0-33.745,21.315-64.114,53.038-75.572c3.846-1.388,8.084,0.602,9.474,4.446c1.388,3.844-0.603,8.085-4.446,9.474
	c-25.879,9.346-43.267,34.123-43.267,61.653c0,2.082,0.101,4.189,0.298,6.269c0.213,1.245,0.372,2.545,0.472,3.867
	c0.005,0.062,0.009,0.124,0.012,0.187c0.065,0.922,0.098,1.858,0.098,2.857c0,22.491-18.298,40.789-40.789,40.789
	c-7.003,0-13.574-1.725-19.313-4.782c4.994,12.919,12.703,24.756,22.825,34.797c18.803,18.651,43.743,28.923,70.227,28.923
	c21.85,0,42.591-6.934,59.982-20.051c16.831-12.695,29.437-30.739,35.496-50.806c0.943-3.124,3.821-5.261,7.084-5.261
	c3.263,0,6.141,2.137,7.084,5.261c5.386,17.839,15.684,33.8,29.783,46.159c3.073,2.694,3.38,7.369,0.687,10.443
	c-2.694,3.073-7.369,3.381-10.443,0.687c-11.322-9.925-20.51-21.877-27.127-35.179c-7.904,15.81-19.472,29.818-33.651,40.513
	C241.274,352.051,217.45,360.017,192.358,360.017z"/>
<path d="M397.483,360.017c-19.078,0-37.968-4.788-54.627-13.846c-3.59-1.953-4.918-6.446-2.966-10.036
	c1.952-3.59,6.445-4.918,10.035-2.966c14.496,7.882,30.941,12.049,47.558,12.049c26.483,0,51.423-10.272,70.227-28.923
	c10.122-10.041,17.83-21.878,22.825-34.797c-5.739,3.058-12.311,4.782-19.313,4.782c-22.491,0-40.789-18.298-40.789-40.789
	c0-1.004,0.033-1.946,0.099-2.872c0.003-0.059,0.007-0.116,0.011-0.173c0.1-1.322,0.258-2.621,0.472-3.867
	c0.197-2.079,0.298-4.186,0.298-6.268c0-36.132-29.396-65.529-65.529-65.529c-23.979,0-46.025,13.086-57.534,34.15
	c-0.013,0.025-0.027,0.048-0.04,0.073c-2.005,4.011-3.757,8.208-5.209,12.479c-0.008,0.025-0.017,0.049-0.025,0.074l0,0
	c-0.343,1.014-0.657,2.041-0.967,3.07c-0.942,3.125-3.82,5.263-7.083,5.263s-6.142-2.137-7.085-5.261
	c-0.311-1.029-0.626-2.057-0.968-3.072c-0.005-0.015-0.01-0.03-0.015-0.044l0,0c-1.453-4.282-3.21-8.49-5.219-12.51
	c-0.014-0.024-0.027-0.048-0.04-0.072c-11.509-21.065-33.555-34.15-57.534-34.15c-4.087,0-7.4-3.313-7.4-7.4s3.313-7.4,7.4-7.4
	c29.287,0,56.218,15.919,70.366,41.57c0.153,0.25,0.292,0.508,0.415,0.775c0.027,0.052,0.052,0.105,0.079,0.158
	c0.026-0.052,0.052-0.105,0.079-0.157c0.123-0.266,0.262-0.525,0.416-0.775c14.147-25.65,41.078-41.57,70.366-41.57
	c44.293,0,80.329,36.035,80.329,80.329c0,2.657-0.133,5.348-0.396,7.997c-0.02,0.194-0.046,0.388-0.081,0.58
	c-0.145,0.806-0.255,1.664-0.326,2.551c-0.002,0.05-0.006,0.101-0.01,0.148c-0.044,0.599-0.067,1.221-0.067,1.903
	c0,14.331,11.659,25.99,25.99,25.99c14.176,0,25.589-11.094,25.983-25.255c0.112-4.057,3.445-7.272,7.531-7.193
	c4.058,0.074,7.299,3.403,7.265,7.462c-0.259,30.379-12.288,58.9-33.868,80.307C456.538,348.221,427.897,360.017,397.483,360.017z
	 M306.973,202.629c-0.003,0.004-0.007,0.007-0.011,0.011C306.965,202.637,306.969,202.633,306.973,202.629z M282.868,202.63
	c0.003,0.004,0.007,0.007,0.011,0.011C282.876,202.637,282.872,202.633,282.868,202.63z M306.983,202.619
	c0,0.001-0.001,0.001-0.002,0.002C306.982,202.62,306.983,202.619,306.983,202.619z M280.988,199.364
	C280.988,199.365,280.988,199.365,280.988,199.364L280.988,199.364z M308.853,199.365L308.853,199.365L308.853,199.365z
	 M280.984,199.35c0,0.001,0,0.002,0,0.003C280.984,199.352,280.984,199.351,280.984,199.35z M308.857,199.35
	c0,0.001,0,0.001,0,0.002C308.857,199.352,308.857,199.351,308.857,199.35z"/>
<g>
</g>
<g>
</g>
<g>
</g>
<g>
</g>
<g>
</g>
<g>
</g>
<g>
</g>
<g>
</g>
<g>
</g>
<g>
</g>
<g>
</g>
<g>
</g>
<g>
</g>
<g>
</g>
<g>
</g>
</svg>
