<?xml version="1.0" encoding="iso-8859-1"?>
<!-- Generator: Adobe Illustrator 19.0.0, SVG Export Plug-In . SVG Version: 6.00 Build 0)  -->
<svg version="1.1" id="Layer_1" xmlns="http://www.w3.org/2000/svg" xmlns:xlink="http://www.w3.org/1999/xlink" x="0px" y="0px"
	 viewBox="0 0 512.002 512.002" style="enable-background:new 0 0 512.002 512.002;" xml:space="preserve">
<path style="fill:#FCCA5F;" d="M503.941,145.66l-65.942,38.073l-39.516,22.817c-7.572-10.026-19.608-16.51-33.154-16.51
	c-5.696,0-11.114,1.144-16.044,3.22v-34.098V56.368L503.941,145.66z"/>
<path style="fill:#F75469;" d="M467.045,223.371h21.407c0,127.997-103.759,231.767-231.756,231.767S24.939,351.368,24.939,223.371
	h21.407h359.731L467.045,223.371L467.045,223.371z"/>
<path style="fill:#DD3551;" d="M488.452,223.371c0,127.997-103.759,231.767-231.756,231.767
	c60.856,0,110.177-103.77,110.177-231.767L488.452,223.371L488.452,223.371z"/>
<g>
	<path style="fill:#2AB573;" d="M467.045,223.371h-60.967c-1.255-6.218-3.886-11.947-7.595-16.821l39.516-22.817
		C454.831,189.051,467.045,204.773,467.045,223.371z"/>
	<path style="fill:#2AB573;" d="M406.077,223.371H46.346c0-12.191,5.252-23.161,13.624-30.767
		c7.372-6.706,17.188-10.792,27.947-10.792c10.193,0,19.53,3.675,26.759,9.771c3.819-19.02,20.607-33.343,40.749-33.343
		c2.731,0,5.407,0.266,7.983,0.788c7.15,1.377,13.646,4.608,18.975,9.149c3.176-14.201,13.612-25.659,27.203-30.245v-0.011
		c4.186-1.432,8.672-2.198,13.346-2.198c13.912,0,26.215,6.828,33.765,17.321c6.939-9.66,17.909-16.211,30.456-17.188
		c1.088-0.089,2.187-0.133,3.298-0.133c19.83,0,36.396,13.879,40.56,32.455c5.152-4.397,11.403-7.561,18.276-9.016v34.098
		c4.93-2.076,10.348-3.22,16.044-3.22c13.546,0,25.582,6.484,33.154,16.51C402.191,211.424,404.823,217.153,406.077,223.371z"/>
</g>
<path style="fill:#1F9E5E;" d="M345.954,219.929v3.442H115.508c7.028-13.002,20.774-21.829,36.585-21.829
	c2.731,0,5.407,0.266,7.983,0.788c7.15,1.377,13.646,4.608,18.975,9.149c3.176-14.201,13.612-25.659,27.203-30.245v-0.011
	c4.186-1.432,8.672-2.198,13.346-2.198c13.912,0,26.215,6.828,33.765,17.321c6.939-9.66,17.909-16.211,30.456-17.188
	c1.088-0.089,2.187-0.133,3.298-0.133c19.83,0,36.396,13.879,40.56,32.455c0.056-0.044,0.1-0.089,0.155-0.133
	C334.984,205.306,345.954,210.569,345.954,219.929z"/>
<g>
	<path style="fill:#FCCA5F;" d="M246.98,69.703l40.171,66.153c-12.547,0.977-23.516,7.528-30.456,17.188
		c-7.55-10.492-19.852-17.321-33.765-17.321c-4.674,0-9.16,0.766-13.346,2.198L246.98,69.703z"/>
	<path style="fill:#FCCA5F;" d="M171.556,81.739l-7.683,75.057l-0.466,2.232c-2.576-0.522-5.252-0.788-7.983-0.788
		c-20.141,0-36.929,14.323-40.749,33.343c-7.228-6.096-16.566-9.771-26.759-9.771c-10.759,0-20.574,4.086-27.947,10.792
		l-1.055-1.377l-50.32-36.418L171.556,81.739z"/>
</g>
<path d="M179.95,267.128h220.398c4.599,0,8.327-3.728,8.327-8.327c0-4.599-3.728-8.327-8.327-8.327H179.95
	c-4.599,0-8.327,3.728-8.327,8.327C171.623,263.4,175.352,267.128,179.95,267.128z"/>
<path d="M147.196,267.128h8.883c4.599,0,8.327-3.728,8.327-8.327c0-4.599-3.728-8.327-8.327-8.327h-8.883
	c-4.599,0-8.327,3.728-8.327,8.327C138.869,263.4,142.597,267.128,147.196,267.128z"/>
<path d="M507.838,138.696L353.182,49.404c-2.576-1.488-5.751-1.488-8.327,0c-2.576,1.488-4.164,4.237-4.164,7.212v96.546
	c-1.93,0.701-3.821,1.511-5.65,2.446c-7.996-16.52-24.541-27.455-43.537-27.941l-37.673-62.038
	c-1.543-2.543-4.307-4.068-7.303-4.003c-2.975,0.066-5.688,1.713-7.118,4.322l-35.935,65.555
	c-11.202,4.671-20.321,13.344-25.618,24.125c-4.131-2.115-8.536-3.642-13.063-4.513c-3.124-0.633-6.367-0.955-9.638-0.955
	c-19.667,0-37.187,11.608-45.231,28.827c-6.871-3.429-14.501-5.255-22.276-5.255c-9.953,0-19.56,2.95-27.708,8.4l-35.057-25.372
	l136.652-61.274l-3.422,33.419c-0.469,4.576,2.861,8.664,7.436,9.132c4.566,0.466,8.664-2.86,9.132-7.436l4.89-47.767
	c0.303-2.96-0.996-5.856-3.408-7.598c-2.412-1.742-5.569-2.066-8.283-0.848L4.92,147.46c-2.714,1.217-4.572,3.788-4.877,6.746
	s0.993,5.855,3.401,7.598l44.223,32.003c-4.713,6.329-7.875,13.699-9.2,21.485H24.673c-4.599,0-8.327,3.728-8.327,8.327
	c0,64.131,24.973,124.423,70.319,169.771c45.346,45.35,105.637,70.324,169.765,70.324s124.42-24.974,169.765-70.324
	c45.345-45.349,70.319-105.641,70.319-169.771c0-4.599-3.728-8.327-8.327-8.327h-13.772c-2.136-12.795-9.133-24.093-19.366-31.692
	l52.791-30.48c2.576-1.488,4.164-4.237,4.164-7.211C512.002,142.933,510.414,140.184,507.838,138.696z M247.082,86.601
	l26.619,43.834c-6.397,2.234-12.279,5.754-17.285,10.368c-8.668-7.944-19.968-12.661-31.855-13.116L247.082,86.601z M65.307,199.012
	c6.115-5.562,14.049-8.625,22.343-8.625c7.822,0,15.419,2.774,21.39,7.809c2.251,1.898,5.334,2.466,8.114,1.496
	c2.779-0.97,4.839-3.337,5.418-6.222c3.101-15.444,16.806-26.655,32.584-26.655c2.162,0,4.29,0.21,6.409,0.638
	c5.553,1.069,10.791,3.597,15.149,7.31c2.221,1.893,5.271,2.485,8.041,1.56c2.768-0.925,4.85-3.232,5.487-6.081
	c2.512-11.233,10.841-20.495,21.739-24.172c0.044-0.016,0.085-0.036,0.13-0.051c3.365-1.14,6.915-1.722,10.554-1.722
	c10.666,0,20.762,5.181,27.005,13.858c1.566,2.174,4.08,3.463,6.76,3.463c0.001,0,0.002,0,0.003,0
	c2.68-0.001,5.196-1.292,6.76-3.469c5.73-7.977,14.601-12.985,24.371-13.747c0.858-0.07,1.74-0.105,2.619-0.105
	c15.423,0,29.065,10.913,32.435,25.949c0.638,2.848,2.723,5.155,5.492,6.078c0.862,0.288,1.751,0.427,2.634,0.427
	c1.954,0,3.877-0.688,5.407-1.993c1.421-1.212,2.947-2.289,4.542-3.242v16.798c-2.821,1.582-5.496,3.445-7.991,5.573
	c-3.499,2.985-3.917,8.241-0.933,11.739c2.985,3.5,8.24,3.916,11.739,0.933c2.641-2.253,5.574-4.058,8.744-5.379
	c4.045-1.703,8.355-2.567,12.812-2.567c10.51,0,20.172,4.812,26.527,13.225c0.834,1.096,1.591,2.254,2.281,3.452H55.478
	C57.092,209.084,60.478,203.398,65.307,199.012z M478.237,250.474h-52.351c-4.599,0-8.327,3.728-8.327,8.327
	c0,4.599,3.728,8.327,8.327,8.327h49.702c-20.304,102.445-110.847,179.93-219.159,179.93s-198.855-77.485-219.16-179.93h84.944
	c4.599,0,8.327-3.728,8.327-8.327c0-4.599-3.728-8.327-8.327-8.327H34.62c-0.735-6.106-1.238-12.282-1.468-18.528h446.552
	C479.475,238.191,478.972,244.367,478.237,250.474z M457.391,215.291h-45.283c-0.67-1.896-1.45-3.75-2.339-5.548l28.716-16.58
	C447.969,197.277,454.87,205.463,457.391,215.291z M399.934,196.189c-9.256-9.109-21.608-14.23-34.872-14.23
	c-2.608,0-5.183,0.204-7.717,0.597V71.039l129.675,74.869L399.934,196.189z"/>
<circle cx="425.941" cy="141.111" r="8.327"/>
<circle cx="392.631" cy="157.388" r="8.327"/>
<circle cx="371.158" cy="118.904" r="8.327"/>
<circle cx="134.616" cy="131.196" r="8.327"/>
<circle cx="90.37" cy="157.255" r="8.327"/>
<g>
</g>
<g>
</g>
<g>
</g>
<g>
</g>
<g>
</g>
<g>
</g>
<g>
</g>
<g>
</g>
<g>
</g>
<g>
</g>
<g>
</g>
<g>
</g>
<g>
</g>
<g>
</g>
<g>
</g>
</svg>
