<?xml version="1.0" encoding="iso-8859-1"?>
<!-- Generator: Adobe Illustrator 19.0.0, SVG Export Plug-In . SVG Version: 6.00 Build 0)  -->
<svg version="1.1" id="Layer_1" xmlns="http://www.w3.org/2000/svg" xmlns:xlink="http://www.w3.org/1999/xlink" x="0px" y="0px"
	 viewBox="0 0 512.001 512.001" style="enable-background:new 0 0 512.001 512.001;" xml:space="preserve">
<polygon style="fill:#FCCA5F;" points="491.241,124.859 491.241,216.881 418.039,237.369 413.067,309.243 408.095,381.129 
	403.112,453.003 399.639,503.23 327.493,503.23 327.493,425.057 184.187,425.057 184.187,503.23 108.84,503.23 105.105,453.003 
	99.748,381.129 94.402,309.243 90.44,255.939 270.783,255.939 270.783,104.371 418.039,104.371 "/>
<polygon style="fill:#2AB573;" points="408.095,381.129 403.112,453.003 327.493,453.003 327.493,425.057 184.187,425.057 
	184.187,453.003 105.105,453.003 99.748,381.129 "/>
<g>
	<polygon style="fill:#F75469;" points="418.039,237.369 413.067,309.243 94.402,309.243 90.44,255.939 270.783,255.939 
		270.783,237.369 	"/>
	<polyline style="fill:#F75469;" points="270.785,104.373 329.696,8.26 366.056,8.26 366.056,104.373 	"/>
</g>
<circle style="fill:#FFFFFF;" cx="402.334" cy="160.184" r="28.792"/>
<path d="M493.267,116.918l-73.207-20.49c-0.747-0.209-1.519-0.316-2.294-0.316h-43.471v-87.6c0-4.702-3.81-8.513-8.513-8.513
	h-36.359c-2.961,0-5.711,1.539-7.259,4.065l-58.911,96.113c-0.014,0.023-0.02,0.048-0.033,0.07c-0.771,1.28-1.222,2.775-1.222,4.378
	v31.725c0,4.702,3.81,8.513,8.513,8.513c4.703,0,8.513-3.812,8.513-8.513v-23.211h137.573l65.861,18.434v79.101l-65.863,18.434
	H300.371c-4.703,0-8.513,3.812-8.513,8.513c0,4.702,3.81,8.513,8.513,8.513h108.272l-3.796,54.851H183.978
	c-4.702,0-8.513,3.812-8.513,8.513s3.812,8.513,8.513,8.513h219.69l-3.796,54.851h-54.171c-4.703,0-8.513,3.812-8.513,8.513
	c0,4.702,3.81,8.513,8.513,8.513h52.993l-3.796,54.851h-59.162v-19.437c0-4.702-3.81-8.513-8.513-8.513H183.913
	c-4.702,0-8.513,3.812-8.513,8.513v69.67h-58.927l-2.471-33.206h41.797c4.702,0,8.513-3.812,8.513-8.513s-3.812-8.513-8.513-8.513
	h-43.063l-4.081-54.851h153.737c4.703,0,8.513-3.812,8.513-8.513c0-4.702-3.81-8.513-8.513-8.513H107.387l-4.081-54.851h52.492
	c4.702,0,8.513-3.812,8.513-8.513s-3.812-8.513-8.513-8.513H102.04l-2.699-36.276h171.171c4.703,0,8.513-3.812,8.513-8.513v-87.499
	c0-4.702-3.811-8.513-8.513-8.513c-4.703,0-8.513,3.812-8.513,8.513v78.985H98.027c-1.346-9.85-5.445-26.205-17.914-38.828
	c-11.327-11.468-26.821-17.282-46.053-17.282c-4.702,0-8.513,3.812-8.513,8.513c0,4.702,3.812,8.513,8.513,8.513
	c14.457,0,25.845,4.081,33.847,12.128c5.856,5.888,9.218,13.165,11.149,19.584c-3.507-1.526-7.435-2.972-11.629-4.082
	c-21.721-5.75-40.617,0.326-53.209,17.113c-2.822,3.762-2.059,9.098,1.702,11.918c1.532,1.149,3.325,1.704,5.102,1.704
	c2.588,0,5.144-1.176,6.816-3.405c8.431-11.239,19.827-14.828,34.836-10.973c2.726,0.7,5.324,1.6,7.735,2.571
	c-3.077,1.715-6.334,3.79-9.587,6.293c-12.536,9.645-27.478,27.58-27.478,58.26c0,4.702,3.812,8.513,8.513,8.513
	s8.513-3.812,8.513-8.513c0-31.677,19.814-45.909,32.142-51.705l17.567,236.114c0.331,4.445,4.033,7.882,8.489,7.882h75.344
	c4.702,0,8.513-3.812,8.513-8.513v-69.67H318.71v69.67c0,4.702,3.81,8.513,8.513,8.513h72.144c4.473,0,8.184-3.463,8.493-7.925
	l17.984-259.874l67.422-18.871c3.677-1.028,6.219-4.38,6.219-8.198v-92.016C499.486,121.298,496.945,117.946,493.267,116.918z
	 M334.19,17.026h23.08v79.086h-71.555L334.19,17.026z M335.737,494.974v-33.206h57.984l-2.297,33.206H335.737z"/>
<path d="M439.366,160.436c0-20.57-16.735-37.305-37.305-37.305s-37.305,16.735-37.305,37.305s16.735,37.305,37.305,37.305
	S439.366,181.006,439.366,160.436z M381.783,160.436c0-11.182,9.098-20.278,20.278-20.278c8.139,0,15.153,4.831,18.379,11.765
	h-4.902c-4.703,0-8.513,3.812-8.513,8.513c0,4.702,3.81,8.513,8.513,8.513h4.902c-3.226,6.935-10.241,11.765-18.379,11.765
	C390.879,180.715,381.783,171.618,381.783,160.436z"/>
<path d="M310.172,389.89c4.703,0,8.513-3.812,8.513-8.513s-3.81-8.513-8.513-8.513h-17.151c-4.703,0-8.513,3.812-8.513,8.513
	s3.811,8.513,8.513,8.513H310.172z"/>
<g>
</g>
<g>
</g>
<g>
</g>
<g>
</g>
<g>
</g>
<g>
</g>
<g>
</g>
<g>
</g>
<g>
</g>
<g>
</g>
<g>
</g>
<g>
</g>
<g>
</g>
<g>
</g>
<g>
</g>
</svg>
