<?xml version="1.0" encoding="iso-8859-1"?>
<!-- Generator: Adobe Illustrator 19.0.0, SVG Export Plug-In . SVG Version: 6.00 Build 0)  -->
<svg version="1.1" id="Layer_1" xmlns="http://www.w3.org/2000/svg" xmlns:xlink="http://www.w3.org/1999/xlink" x="0px" y="0px"
	 viewBox="0 0 512 512" style="enable-background:new 0 0 512 512;" xml:space="preserve">
<path style="fill:#F75469;" d="M392.415,27.713c-40.569,35.147-86.036,67.375-136.121,95.577
	c-50.084-28.202-95.55-60.428-136.117-95.574C53.419,79.607,9.381,168.557,9.381,269.592l0.006,0.006
	c61.279,81.973,144.462,156.469,246.908,214.154c102.446-57.685,185.63-132.18,246.909-214.153l0.004-0.006
	C503.207,168.555,459.172,79.604,392.415,27.713z"/>
<path style="fill:#2AB573;" d="M418.896,51.452c-46.928,44.54-101.321,85.069-162.599,119.574
	c-48.091-27.076-91.929-57.86-131.257-91.383c-10.787-9.199-21.234-18.604-31.342-28.191c1.285-1.321,2.582-2.63,3.903-3.927
	c0.715-0.715,1.442-1.418,2.169-2.121c0.303-0.291,0.606-0.582,0.909-0.861c0.691-0.667,1.382-1.321,2.085-1.963
	c0.364-0.351,0.727-0.691,1.091-1.018c0.909-0.836,1.818-1.673,2.739-2.485c1.042-0.945,2.109-1.879,3.175-2.812
	c0.085-0.073,0.17-0.158,0.267-0.218c1.006-0.885,2.024-1.745,3.042-2.606c0.097-0.085,0.194-0.158,0.291-0.242
	c1.115-0.921,2.23-1.83,3.345-2.739c1.151-0.921,2.303-1.842,3.466-2.739c1.26,1.091,2.521,2.182,3.793,3.26
	c1.285,1.091,2.569,2.194,3.866,3.297c2.545,2.145,5.102,4.278,7.684,6.399c1.297,1.067,2.594,2.133,3.903,3.188
	c1.309,1.079,2.618,2.133,3.939,3.188c2.63,2.109,5.284,4.206,7.951,6.302c32.311,25.27,67.337,48.734,104.982,69.931
	c50.079-28.203,95.552-60.429,136.117-95.577C401.698,34.932,410.545,42.859,418.896,51.452z"/>
<path style="fill:#FCCA5F;" d="M503.201,269.596c-61.278,81.978-144.456,156.466-246.904,214.156
	c-51.218-28.845-97.637-61.896-138.893-97.964c-27.366-23.949-52.479-49.218-75.215-75.482c-1.442-1.673-2.872-3.333-4.303-5.005
	c-1.418-1.685-2.836-3.357-4.242-5.042c-1.406-1.673-2.8-3.369-4.181-5.054c-1.394-1.685-2.775-3.381-4.133-5.078
	c-1.018-1.248-2.024-2.509-3.018-3.769l-4.387-5.563c-0.897-1.164-1.806-2.327-2.703-3.503l-1.939-2.533
	c-1.309-1.721-2.618-3.442-3.903-5.163c0-1.576,0.012-3.151,0.036-4.727c0.012-1.576,0.048-3.139,0.097-4.715
	c0.036-1.479,0.085-2.945,0.145-4.424c0-0.17,0.012-0.339,0.024-0.509c0.048-1.321,0.109-2.654,0.182-3.975
	c0.012-0.194,0.024-0.388,0.036-0.582c0.085-1.515,0.17-3.018,0.279-4.521c0.085-1.285,0.182-2.557,0.279-3.842
	c0-0.036,0.012-0.085,0.012-0.121c0.073-0.836,0.133-1.673,0.218-2.509c0.182-2.169,0.388-4.327,0.63-6.472
	c0.097-0.909,0.194-1.83,0.303-2.739c0.012-0.17,0.024-0.351,0.061-0.521c0.182-1.624,0.388-3.236,0.606-4.836
	c0.036-0.376,0.085-0.751,0.145-1.115c0.121-0.873,0.242-1.757,0.364-2.63c10.423,13.72,21.464,27.209,33.111,40.456
	c56.418,64.162,127.027,122.24,210.387,169.18c100.558-56.624,182.56-129.451,243.498-209.636
	C502.038,237.042,503.201,253.161,503.201,269.596z"/>
<path style="fill:#DD3551;" d="M361.277,53.352c10.679-8.354,21.062-16.905,31.141-25.637
	c66.759,51.892,110.798,140.842,110.798,241.877l-0.006,0.006c-10.315,13.798-21.265,27.377-32.808,40.708
	C468.528,203.249,425.677,109.264,361.277,53.352z"/>
<path style="fill:#E8B459;" d="M499.795,221.359c-10.423,13.72-21.464,27.209-33.111,40.456c2.169,15.792,3.43,31.984,3.721,48.491
	c1.442-1.673,2.872-3.333,4.303-5.005c1.418-1.685,2.836-3.357,4.242-5.042c1.406-1.673,2.8-3.369,4.181-5.054
	c1.394-1.685,2.775-3.381,4.133-5.078c1.018-1.248,2.024-2.509,3.018-3.769l4.387-5.563c0.897-1.164,1.806-2.327,2.703-3.503
	l1.939-2.533c1.309-1.721,2.618-3.442,3.903-5.163c0-1.576-0.012-3.151-0.036-4.727c-0.012-1.576-0.048-3.139-0.097-4.715
	c-0.036-1.479-0.085-2.945-0.145-4.424c0-0.17-0.012-0.339-0.024-0.509c-0.048-1.321-0.109-2.654-0.182-3.975
	c-0.012-0.194-0.024-0.388-0.036-0.582c-0.085-1.515-0.17-3.018-0.279-4.521c-0.085-1.285-0.182-2.569-0.279-3.842
	c0-0.036-0.012-0.085-0.012-0.121c-0.073-0.836-0.133-1.673-0.218-2.509c-0.182-2.169-0.388-4.327-0.63-6.472
	c-0.097-0.909-0.194-1.83-0.303-2.739c-0.012-0.17-0.024-0.351-0.061-0.521c-0.182-1.624-0.388-3.236-0.606-4.836
	c-0.036-0.376-0.085-0.751-0.145-1.115C500.038,223.116,499.917,222.231,499.795,221.359z"/>
<path style="fill:#1F9E5E;" d="M361.278,53.355c9.223,8.011,17.998,16.798,26.276,26.288c10.787-9.199,21.234-18.604,31.342-28.191
	c-1.285-1.321-2.582-2.63-3.903-3.927c-0.715-0.715-1.442-1.418-2.169-2.121c-0.303-0.291-0.606-0.582-0.909-0.861
	c-0.691-0.667-1.382-1.321-2.085-1.963c-0.364-0.351-0.727-0.691-1.091-1.018c-0.909-0.836-1.818-1.673-2.739-2.485
	c-1.042-0.945-2.109-1.879-3.175-2.812c-0.085-0.073-0.17-0.158-0.267-0.218c-1.006-0.885-2.024-1.745-3.042-2.606
	c-0.097-0.085-0.194-0.158-0.291-0.242c-1.115-0.921-2.23-1.83-3.345-2.739c-1.151-0.933-2.303-1.842-3.466-2.751
	c-1.26,1.091-2.521,2.182-3.794,3.272c-1.285,1.091-2.569,2.194-3.866,3.297c-2.545,2.145-5.102,4.278-7.684,6.399
	c-1.297,1.067-2.594,2.133-3.903,3.188c-1.309,1.067-2.618,2.121-3.939,3.188C366.599,49.161,363.945,51.258,361.278,53.355z"/>
<path d="M508.503,220.346c-4.69-32.876-14.015-64.404-27.722-93.711c-14.376-30.713-33.104-58.049-55.658-81.247
	c-8.589-8.839-17.815-17.109-27.42-24.583c-3.424-2.664-8.255-2.537-11.534,0.304c-39.678,34.378-83.446,65.311-130.165,91.998
	c-14.429-8.241-28.704-16.963-42.499-25.965c-4.204-2.743-9.835-1.56-12.58,2.645c-2.744,4.204-1.56,9.836,2.645,12.58
	c15.545,10.145,31.687,19.941,47.976,29.112c2.769,1.56,6.151,1.56,8.92,0c47.197-26.58,91.521-57.404,131.851-91.685
	c4.513,3.739,8.907,7.678,13.177,11.759c-17.203,15.93-35.373,31.304-54.126,45.781c-3.973,3.068-4.707,8.776-1.64,12.75
	c1.791,2.32,4.482,3.535,7.202,3.535c1.94,0,3.894-0.618,5.548-1.896c19.304-14.904,38.005-30.739,55.706-47.151
	c18.435,20.302,33.939,43.726,46.13,69.769c12.419,26.557,21.023,55.073,25.62,84.815
	c-62.027,80.693-144.371,151.249-238.389,204.19c-4.374,2.463-5.924,8.006-3.46,12.38c1.669,2.965,4.752,4.632,7.929,4.632
	c1.51,0,3.042-0.378,4.452-1.171c90.455-50.935,170.381-117.865,232.415-194.418c0.55,7.331,0.86,14.707,0.927,22.085
	c-61.524,81.561-143.612,152.913-237.801,206.721c-47.827-27.319-92.52-59.046-132.908-94.355
	c-39.292-34.375-74.574-72.167-104.905-112.367c0.067-7.38,0.377-14.752,0.928-22.075c55.489,68.633,123.6,128.088,202.769,176.924
	c1.487,0.917,3.135,1.355,4.763,1.355c3.049,0,6.027-1.533,7.746-4.318c2.636-4.272,1.309-9.873-2.965-12.509
	C148.613,355.139,78.202,292.21,22.077,219.163c9.126-59.02,34.421-113.445,71.76-154.599
	c47.059,43.641,100.063,82.195,157.71,114.654c1.384,0.779,2.922,1.17,4.46,1.17c1.538,0,3.076-0.39,4.46-1.17
	c24.724-13.922,48.894-29.153,71.836-45.269c4.109-2.886,5.099-8.555,2.213-12.663c-2.886-4.107-8.557-5.099-12.663-2.213
	c-21.07,14.799-43.201,28.839-65.847,41.774C201.461,129.699,151.246,92.966,106.53,51.546c4.282-4.09,8.672-8.026,13.163-11.744
	c18.958,16.108,38.925,31.562,59.451,46.007c4.105,2.889,9.776,1.903,12.665-2.202c2.889-4.105,1.903-9.776-2.202-12.665
	c-22.117-15.565-43.572-32.327-63.767-49.818c-3.278-2.84-8.103-2.967-11.527-0.308c-9.539,7.409-18.764,15.676-27.422,24.573
	C42.73,90.801,13.117,152.938,3.511,220.34C1.182,236.54,0,253.205,0,269.866c0,1.962,0.635,3.872,1.811,5.443
	c31.499,42.125,68.279,81.687,109.32,117.592c42.579,37.225,89.822,70.547,140.415,99.04c1.384,0.781,2.922,1.17,4.46,1.17
	s3.076-0.39,4.46-1.17C359.65,436.09,446.003,361.179,510.19,275.306c1.174-1.571,1.81-3.481,1.81-5.442
	C512,253.24,510.823,236.578,508.503,220.346z"/>
<path d="M85.836,202.962c5.02,0,9.09-4.07,9.09-9.09v-8.181h8.18c5.02,0,9.09-4.07,9.09-9.09c0-5.02-4.07-9.09-9.09-9.09h-8.18
	v-8.181c0-5.02-4.07-9.09-9.09-9.09c-5.02,0-9.09,4.07-9.09,9.09v8.181h-8.181c-5.02,0-9.09,4.07-9.09,9.09
	c0,5.02,4.07,9.09,9.09,9.09h8.181v8.181C76.746,198.892,80.816,202.962,85.836,202.962z"/>
<path d="M146.198,259.363c5.02,0,9.09-4.07,9.09-9.09v-8.18h8.181c5.02,0,9.09-4.07,9.09-9.09c0-5.02-4.07-9.09-9.09-9.09h-8.181
	v-8.181c0-5.02-4.07-9.09-9.09-9.09c-5.02,0-9.09,4.07-9.09,9.09v8.181h-8.18c-5.02,0-9.09,4.07-9.09,9.09
	c0,5.02,4.07,9.09,9.09,9.09h8.18v8.18C137.109,255.293,141.178,259.363,146.198,259.363z"/>
<path d="M212.564,314.256c5.02,0,9.09-4.07,9.09-9.09v-8.18h8.181c5.02,0,9.09-4.07,9.09-9.09c0-5.02-4.07-9.09-9.09-9.09h-8.181
	v-8.181c0-5.02-4.07-9.09-9.09-9.09c-5.02,0-9.09,4.07-9.09,9.09v8.181h-8.181c-5.02,0-9.09,4.07-9.09,9.09
	c0,5.02,4.07,9.09,9.09,9.09h8.181v8.18C203.474,310.186,207.544,314.256,212.564,314.256z"/>
<path d="M426.168,150.242c-5.02,0-9.09,4.07-9.09,9.09v8.181h-8.18c-5.02,0-9.09,4.07-9.09,9.09s4.07,9.09,9.09,9.09h8.18v8.181
	c0,5.02,4.07,9.09,9.09,9.09c5.02,0,9.09-4.07,9.09-9.09v-8.181h8.181c5.02,0,9.09-4.07,9.09-9.09s-4.07-9.09-9.09-9.09h-8.181
	v-8.181C435.258,154.312,431.188,150.242,426.168,150.242z"/>
<path d="M365.806,206.644c-5.02,0-9.09,4.07-9.09,9.09v8.181h-8.181c-5.02,0-9.09,4.07-9.09,9.09c0,5.02,4.07,9.09,9.09,9.09h8.181
	v8.18c0,5.02,4.07,9.09,9.09,9.09c5.02,0,9.09-4.07,9.09-9.09v-8.18h8.18c5.02,0,9.09-4.07,9.09-9.09c0-5.02-4.07-9.09-9.09-9.09
	h-8.18v-8.181C374.896,210.714,370.826,206.644,365.806,206.644z"/>
<path d="M299.441,314.256c5.02,0,9.09-4.07,9.09-9.09v-8.18h8.181c5.02,0,9.09-4.07,9.09-9.09c0-5.02-4.07-9.09-9.09-9.09h-8.181
	v-8.181c0-5.02-4.07-9.09-9.09-9.09c-5.02,0-9.09,4.07-9.09,9.09v8.181h-8.181c-5.02,0-9.09,4.07-9.09,9.09
	c0,5.02,4.07,9.09,9.09,9.09h8.181v8.18C290.351,310.186,294.421,314.256,299.441,314.256z"/>
<g>
</g>
<g>
</g>
<g>
</g>
<g>
</g>
<g>
</g>
<g>
</g>
<g>
</g>
<g>
</g>
<g>
</g>
<g>
</g>
<g>
</g>
<g>
</g>
<g>
</g>
<g>
</g>
<g>
</g>
</svg>
