<?xml version="1.0" encoding="iso-8859-1"?>
<!-- Generator: Adobe Illustrator 19.0.0, SVG Export Plug-In . SVG Version: 6.00 Build 0)  -->
<svg version="1.1" id="Layer_1" xmlns="http://www.w3.org/2000/svg" xmlns:xlink="http://www.w3.org/1999/xlink" x="0px" y="0px"
	 viewBox="0 0 512.001 512.001" style="enable-background:new 0 0 512.001 512.001;" xml:space="preserve">
<path style="fill:#2AB573;" d="M163.926,355.214c0,55.789,45.227,148.093,101.016,148.093s101.016-92.302,101.016-148.093
	s-45.227-101.016-101.016-101.016S163.926,299.423,163.926,355.214z"/>
<path style="fill:#1F9E5E;" d="M339.299,355.214c0-51.271-38.198-93.615-87.686-100.14c4.362-0.575,8.81-0.876,13.33-0.876
	c55.789,0,101.016,45.227,101.016,101.016c0,55.791-45.227,148.093-101.016,148.093c-4.519,0-8.968-0.614-13.33-1.757
	C301.101,488.583,339.299,406.484,339.299,355.214z"/>
<path style="fill:#2AB573;" d="M339.911,146.945c-24.56,35.771-36.196,114.861-0.425,139.421s105.402-14.711,129.962-50.482
	s15.472-84.677-20.298-109.237S364.471,111.174,339.911,146.945z"/>
<path style="fill:#1F9E5E;" d="M444.72,235.884c24.56-35.771,15.472-84.677-20.298-109.237
	c-9.925-6.814-20.863-11.029-32.009-12.811c19.164-3.033,39.478,0.961,56.736,12.811c35.771,24.56,44.858,73.468,20.298,109.237
	c-21.35,31.096-76.756,64.827-114.373,56.981C389.096,287.095,427.714,260.654,444.72,235.884z"/>
<path style="fill:#2AB573;" d="M210.678,167.964c17.973,26.177,26.488,84.055,0.311,102.028
	c-26.177,17.973-77.133-10.766-95.106-36.943s-11.322-61.967,14.855-79.94S192.705,141.788,210.678,167.964z"/>
<path style="fill:#1F9E5E;" d="M192.443,269.992c26.177-17.973,17.661-75.851-0.311-102.028
	c-9.252-13.476-23.229-21.761-38.184-24.191c21.306-3.49,43.699,5.215,56.729,24.191c17.973,26.177,26.488,84.055,0.311,102.028
	c-8.11,5.568-18.601,6.65-29.75,4.715C185.301,273.836,189.078,272.303,192.443,269.992z"/>
<path style="fill:#F75469;" d="M235.257,97.166c-3.05,20.842-24.99,52.852-45.833,49.803c-20.842-3.05-32.693-40.004-29.644-60.845
	c3.05-20.842,22.417-35.265,43.26-32.217C223.883,56.956,238.306,76.324,235.257,97.166z"/>
<path style="fill:#DD3551;" d="M220.188,97.165c2.951-20.169-10.462-38.956-30.219-42.912c4.191-0.846,8.596-1.003,13.07-0.348
	c20.842,3.05,35.265,22.417,32.217,43.26c-3.05,20.842-24.99,52.852-45.833,49.803c-1.558-0.228-3.058-0.665-4.512-1.252
	C202.07,139.506,217.655,114.488,220.188,97.165z"/>
<path style="fill:#F75469;" d="M93.459,115.098c15.12,14.665,28.248,51.186,13.582,66.306c-14.665,15.12-51.569,3.114-66.69-11.55
	c-15.12-14.665-15.489-38.811-0.824-53.931S78.339,100.433,93.459,115.098z"/>
<path style="fill:#DD3551;" d="M90.235,181.403c14.665-15.12,1.538-51.641-13.582-66.306c-5.222-5.064-11.519-8.334-18.132-9.824
	c12.13-2.722,25.348,0.523,34.939,9.824c15.12,14.665,28.248,51.186,13.582,66.306c-6.522,6.725-17.444,8.075-28.892,6.222
	C82.911,186.637,87.088,184.649,90.235,181.403z"/>
<path style="fill:#2AB573;" d="M364.243,31.104c16.13,23.494,23.773,75.438,0.279,91.569c-23.494,16.13-69.226-9.662-85.357-33.156
	s-10.162-55.614,13.332-71.745C315.991,1.641,348.113,7.61,364.243,31.104z"/>
<path style="fill:#1F9E5E;" d="M345.397,122.672c23.494-16.131,15.852-68.076-0.279-91.569
	c-8.038-11.708-20.049-19.06-32.983-21.498c19.475-3.664,40.171,4.111,52.108,21.498c16.131,23.494,23.773,75.438,0.279,91.569
	c-7.615,5.229-17.571,6.033-28.093,3.958C339.658,125.818,342.681,124.537,345.397,122.672z"/>
<path d="M325.419,335.067c-2.283,0-4.52-0.927-6.143-2.55c-1.623-1.611-2.55-3.86-2.55-6.143s0.927-4.532,2.55-6.143
	c1.611-1.623,3.86-2.55,6.143-2.55c2.295,0,4.532,0.927,6.155,2.55c1.611,1.611,2.538,3.848,2.538,6.143
	c0,2.283-0.927,4.532-2.538,6.143C329.951,334.138,327.714,335.067,325.419,335.067z"/>
<path d="M241.512,375.194c-2.283,0-4.52-0.927-6.143-2.55c-1.623-1.611-2.55-3.848-2.55-6.143c0-2.283,0.927-4.532,2.55-6.143
	c1.623-1.623,3.86-2.55,6.143-2.55c2.295,0,4.532,0.927,6.155,2.55c1.611,1.611,2.538,3.86,2.538,6.143
	c0,2.295-0.927,4.532-2.538,6.143C246.044,374.266,243.807,375.194,241.512,375.194z"/>
<path d="M56.718,153.645c-2.295,0-4.532-0.927-6.155-2.538c-1.611-1.623-2.538-3.86-2.538-6.155c0-2.283,0.927-4.52,2.538-6.143
	c1.623-1.623,3.86-2.55,6.155-2.55c2.283,0,4.52,0.927,6.143,2.55c1.611,1.611,2.55,3.86,2.55,6.143c0,2.295-0.939,4.532-2.55,6.155
	C61.239,152.717,59.002,153.645,56.718,153.645z"/>
<path d="M150.315,214.694c-2.283,0-4.532-0.927-6.143-2.538c-1.623-1.623-2.55-3.86-2.55-6.155c0-2.283,0.927-4.532,2.55-6.143
	c1.611-1.623,3.848-2.55,6.143-2.55c2.283,0,4.532,0.927,6.143,2.55c1.623,1.623,2.55,3.86,2.55,6.143
	c0,2.295-0.927,4.532-2.55,6.155C154.835,213.768,152.598,214.694,150.315,214.694z"/>
<path d="M195.914,227.444c-2.283,0-4.52-0.927-6.143-2.538c-1.623-1.623-2.55-3.86-2.55-6.155c0-2.283,0.927-4.52,2.55-6.143
	c1.611-1.623,3.86-2.55,6.143-2.55c2.295,0,4.532,0.927,6.143,2.55c1.623,1.623,2.55,3.86,2.55,6.143
	c0,2.295-0.927,4.532-2.55,6.155C200.446,226.518,198.197,227.444,195.914,227.444z"/>
<path d="M380.14,185.497c-2.283,0-4.532-0.927-6.143-2.55c-1.623-1.611-2.55-3.86-2.55-6.143c0-2.295,0.927-4.532,2.55-6.143
	c1.611-1.623,3.86-2.55,6.143-2.55c2.295,0,4.532,0.927,6.155,2.55c1.611,1.611,2.538,3.86,2.538,6.143s-0.927,4.52-2.538,6.143
	C384.672,184.57,382.435,185.497,380.14,185.497z"/>
<path d="M403.855,234.746c-2.283,0-4.52-0.927-6.143-2.55c-1.623-1.623-2.55-3.86-2.55-6.143c0-2.283,0.927-4.532,2.55-6.155
	c1.623-1.611,3.86-2.538,6.143-2.538c2.295,0,4.532,0.927,6.143,2.538c1.623,1.623,2.55,3.86,2.55,6.155
	c0,2.283-0.927,4.532-2.55,6.143C408.387,233.819,406.15,234.746,403.855,234.746z"/>
<path d="M336.372,50.173c-2.295,0-4.532-0.927-6.155-2.538c-1.623-1.623-2.55-3.86-2.55-6.155c0-2.283,0.927-4.52,2.55-6.143
	c1.623-1.611,3.86-2.55,6.155-2.55c2.283,0,4.52,0.939,6.143,2.55c1.611,1.623,2.55,3.86,2.55,6.143c0,2.295-0.939,4.532-2.55,6.155
	C340.893,49.246,338.656,50.173,336.372,50.173z"/>
<path d="M288.942,411.683c-2.283,0-4.532-0.927-6.155-2.55c-1.611-1.623-2.538-3.86-2.538-6.143c0-2.295,0.927-4.532,2.538-6.155
	c1.623-1.611,3.871-2.538,6.155-2.538s4.52,0.927,6.143,2.538c1.623,1.623,2.55,3.86,2.55,6.155c0,2.283-0.927,4.52-2.55,6.143
	C293.463,410.755,291.226,411.683,288.942,411.683z"/>
<path d="M470.965,134.638c-3.125-3.645-8.614-4.065-12.259-0.94s-4.065,8.613-0.94,12.259c20.561,23.977,22.417,58.933,4.514,85.008
	c-11.553,16.825-33.995,34.433-57.176,44.857c-25.199,11.33-47.323,12.563-60.699,3.379c-0.54-0.371-1.065-0.768-1.584-1.178
	c-1.412-1.423-2.861-2.811-4.348-4.157c-9.413-10.803-13.998-29.374-12.721-52.527c1.4-25.377,9.771-52.647,21.323-69.474
	c19.53-28.443,56.297-38.391,87.422-23.652c4.34,2.057,9.523,0.202,11.577-4.136c2.055-4.34,0.203-9.523-4.136-11.577
	c-17.61-8.34-37.606-10.482-56.646-6.149c2.278-7.838,3.19-16.982,2.626-27.181c-1.071-19.41-7.398-39.713-16.512-52.987
	C362.29,12.906,348.55,3.974,332.717,1.032c-15.838-2.944-31.867,0.458-45.142,9.573c-13.277,9.116-22.209,22.856-25.151,38.69
	c-2.943,15.833,0.458,31.866,9.573,45.142c9.114,13.274,25.79,26.471,43.518,34.445c7.713,3.468,15.106,5.71,22.041,6.78
	c-1.695,2.04-3.303,4.16-4.815,6.362c-13.432,19.562-22.761,49.587-24.349,78.356c-0.721,13.053,0.185,24.896,2.613,35.278
	c-14.015-6.511-29.622-10.154-46.065-10.154c-10.812,0-21.353,1.58-31.371,4.552c2.206-8.294,3.084-17.857,2.498-28.48
	c-1.183-21.456-8.167-43.883-18.224-58.532c-2.916-4.248-6.257-8.033-9.906-11.37c6.126-3.24,12.141-8.31,17.769-15.102
	c9.416-11.367,16.371-25.985,18.15-38.148c1.812-12.378-1.306-24.72-8.778-34.753c-7.471-10.033-18.403-16.555-30.782-18.367
	c-25.549-3.739-49.381,14.009-53.119,39.56c-0.695,4.751,2.593,9.165,7.343,9.86c4.75,0.701,9.165-2.593,9.86-7.343
	c2.351-16.065,17.337-27.228,33.399-24.874c16.066,2.351,27.224,17.334,24.873,33.399c-1.304,8.911-7.065,20.795-14.337,29.573
	c-7.426,8.964-15.519,13.778-21.636,12.887c-7.63-1.116-15.373-11.351-19.725-26.074c-1.361-4.603-6.193-7.233-10.8-5.872
	c-4.604,1.361-7.234,6.197-5.872,10.8c1.894,6.407,4.325,12.162,7.182,17.159c-12.344,0.319-24.734,4.066-35.65,11.561
	c-1.791,1.23-3.496,2.536-5.126,3.905c-3.17-15.794-11.605-31.702-21.18-40.99c-18.534-17.978-48.241-17.523-66.221,1.012
	c-8.709,8.979-13.4,20.814-13.209,33.322c0.191,12.508,5.241,24.193,14.222,32.902c11.822,11.466,33.675,20.897,52.659,20.897
	c3.579,0,7.052-0.344,10.34-1.064c-1.015,14.408,2.628,29.239,11.419,42.044c10.057,14.649,28.48,29.222,48.078,38.036
	c8.773,3.944,17.164,6.458,25,7.59c-5.529,6.436-10.376,13.573-14.388,21.34c-2.203,4.265-0.531,9.51,3.735,11.713
	c4.267,2.205,9.51,0.531,11.713-3.735c7.091-13.731,17.26-25.138,29.415-33.581c1.25-0.665,2.474-1.374,3.638-2.173
	c0.556-0.381,1.081-0.806,1.616-1.216c14.045-8.399,30.336-13.053,47.417-13.053c23.431,0,44.836,8.789,61.133,23.224
	c1.581,1.731,3.258,3.341,5.039,4.813c16.167,16.636,26.151,39.312,26.151,64.288c0,52.517-43.151,139.399-92.323,139.399
	s-92.323-86.882-92.323-139.399c0-3.302,0.175-6.625,0.522-9.879c0.508-4.774-2.95-9.056-7.725-9.564
	c-4.759-0.503-9.056,2.95-9.564,7.725c-0.41,3.862-0.619,7.805-0.619,11.718c0,30.082,11.823,68.202,30.854,99.486
	c10.282,16.902,21.723,30.317,33.823,39.913h-51.995c-4.801,0-8.693,3.892-8.693,8.693c0,4.801,3.892,8.693,8.693,8.693h208.637
	c4.801,0,8.693-3.892,8.693-8.693c0-4.801-3.892-8.693-8.693-8.693h-66.576c12.101-9.596,23.541-23.013,33.823-39.913
	c19.031-31.284,30.854-69.404,30.854-99.486c0-19.091-4.906-37.057-13.517-52.71c1.874,0.152,3.782,0.235,5.732,0.235
	c13.615,0,28.983-3.694,45.37-11.062c26.278-11.817,50.947-31.311,64.378-50.873C498.97,208.243,496.647,164.586,470.965,134.638z
	 M286.333,84.597c-6.487-9.448-8.908-20.858-6.813-32.125c2.094-11.268,8.451-21.046,17.899-27.533
	c7.232-4.966,15.61-7.547,24.196-7.547c2.632,0,5.285,0.242,7.929,0.734c11.268,2.094,21.046,8.451,27.533,17.899
	c7.3,10.632,12.594,27.943,13.485,44.103c0.942,17.055-3.053,29.95-10.959,35.378c-3.626,2.49-8.138,3.589-13.16,3.587
	C326.204,119.092,297.754,101.231,286.333,84.597z M46.405,163.613c-11.656-11.305-11.941-29.983-0.636-41.638
	c5.766-5.945,13.449-8.932,21.142-8.932c7.389,0,14.787,2.756,20.497,8.296c13.692,13.28,23.097,44.01,13.396,54.013
	C91.102,185.351,60.097,176.892,46.405,163.613z M123.051,228.129c-15.232-22.183-9.575-52.622,12.607-67.853
	c8.423-5.783,18.032-8.554,27.55-8.554c15.552,0,30.855,7.402,40.303,21.163c15.625,22.755,22.868,72.654,4.304,88.586
	c-1.525,0.93-3.019,1.909-4.497,2.913C181.493,274.914,138.471,250.588,123.051,228.129z"/>
<path d="M142.415,494.613h-28.868c-4.801,0-8.693,3.892-8.693,8.693c0,4.801,3.892,8.693,8.693,8.693h28.868
	c4.801,0,8.693-3.892,8.693-8.693C151.108,498.506,147.216,494.613,142.415,494.613z"/>
<path d="M416.338,494.613h-15.446c-4.801,0-8.693,3.892-8.693,8.693c0,4.801,3.892,8.693,8.693,8.693h15.446
	c4.801,0,8.693-3.892,8.693-8.693C425.031,498.506,421.139,494.613,416.338,494.613z"/>
<g>
</g>
<g>
</g>
<g>
</g>
<g>
</g>
<g>
</g>
<g>
</g>
<g>
</g>
<g>
</g>
<g>
</g>
<g>
</g>
<g>
</g>
<g>
</g>
<g>
</g>
<g>
</g>
<g>
</g>
</svg>
