<?xml version="1.0" encoding="iso-8859-1"?>
<!-- Generator: Adobe Illustrator 19.0.0, SVG Export Plug-In . SVG Version: 6.00 Build 0)  -->
<svg version="1.1" id="Layer_1" xmlns="http://www.w3.org/2000/svg" xmlns:xlink="http://www.w3.org/1999/xlink" x="0px" y="0px"
	 viewBox="0 0 512 512" style="enable-background:new 0 0 512 512;" xml:space="preserve">
<polyline style="fill:#B2741C;" points="318.703,224.765 396.035,224.765 396.035,120.897 313.69,120.897 309.78,120.897 
	202.798,120.897 198.901,120.897 116.556,120.897 116.556,224.765 "/>
<polyline style="fill:#995E14;" points="257.994,120.896 337.05,120.896 355.435,224.764 256.299,224.764 157.163,224.764 
	175.548,120.896 254.604,120.896 "/>
<polyline style="fill:#B2741C;" points="188.543,335.167 74.415,335.167 74.415,224.765 116.556,224.765 193.887,224.765 
	318.703,224.765 396.035,224.765 438.175,224.765 438.175,335.167 324.048,335.167 "/>
<polyline style="fill:#995E14;" points="258.151,231.298 344.537,231.298 364.627,335.167 256.299,335.167 147.97,335.167 
	168.06,231.298 254.447,231.298 "/>
<polyline style="fill:#B2741C;" points="324.048,335.167 438.175,335.167 503.102,335.167 503.102,471.456 330.63,471.456 
	181.961,471.456 181.949,471.456 9.488,471.456 9.488,335.167 74.415,335.167 188.543,335.167 "/>
<polyline style="fill:#995E14;" points="258.308,335.167 352.025,335.167 373.82,471.456 256.299,471.456 138.777,471.456 
	160.572,335.167 254.289,335.167 "/>
<polygon style="fill:#FCCA5F;" points="309.79,39.997 313.7,120.896 313.688,120.896 309.778,120.896 202.796,120.896 
	198.898,120.896 202.808,39.997 "/>
<path style="fill:#B2741C;" d="M274.685,86.575v34.32h-36.772v-34.32c0-10.149,8.225-18.386,18.386-18.386
	C266.448,68.189,274.685,76.426,274.685,86.575z"/>
<polygon style="fill:#CCB497;" points="318.713,224.764 330.627,471.455 181.959,471.455 193.885,224.764 198.898,120.896 
	202.796,120.896 237.913,120.896 274.685,120.896 309.778,120.896 313.688,120.896 313.7,120.896 "/>
<path d="M502.807,326.247h-55.734V225.039c0-5.077-4.116-9.193-9.193-9.193h-32.95v-94.677c0-5.077-4.116-9.193-9.193-9.193h-73.576
	l-3.485-72.149c-0.237-4.899-4.278-8.749-9.182-8.749H202.513c-4.904,0-8.945,3.85-9.182,8.749l-2.682,55.499
	c-0.245,5.072,3.667,9.382,8.738,9.627c5.076,0.244,9.381-3.667,9.627-8.738l2.26-46.751h89.462l3.019,62.512h-20.172V86.849
	c0-15.208-12.371-27.579-27.579-27.579s-27.579,12.371-27.579,27.579v25.127H116.259c-5.077,0-9.193,4.116-9.193,9.193v94.677H74.12
	c-5.077,0-9.193,4.116-9.193,9.193v101.209H9.193c-5.077,0-9.193,4.116-9.193,9.193v136.289c0,5.077,4.116,9.193,9.193,9.193
	h493.614c5.077,0,9.193-4.116,9.193-9.193V335.44C512,330.363,507.885,326.247,502.807,326.247z M386.544,130.362v85.482h-59.366
	l-4.128-85.482H386.544z M246.811,86.849c0-5.07,4.123-9.193,9.193-9.193c5.07,0,9.193,4.123,9.193,9.193v25.127h-18.386V86.849z
	 M83.313,234.232l48.893-0.001c5.077,0,9.193-4.116,9.193-9.193c0-5.077-4.116-9.193-9.193-9.193h-6.754v-85.482h63.504
	l-4.126,85.482h-23.82c-5.077,0-9.193,4.116-9.193,9.193c0,5.077,4.116,9.193,9.193,9.193h22.932l-4.448,92.017H83.313V234.232z
	 M18.386,344.633h160.219l-5.7,117.903H18.386V344.633z M493.614,462.536H339.092l-5.695-117.903h30.934
	c5.077,0,9.193-4.116,9.193-9.193s-4.116-9.193-9.193-9.193h-31.822l-0.974-20.173c-0.245-5.071-4.551-8.985-9.626-8.738
	c-5.071,0.245-8.983,4.555-8.738,9.626l7.514,155.573H191.312l16.051-332.173h97.28l7.221,149.518
	c0.238,4.92,4.301,8.749,9.175,8.749c0.15,0,0.3-0.004,0.451-0.011c5.071-0.245,8.983-4.555,8.738-9.626l-2.162-44.762h100.621
	v92.016h-31.724c-5.077,0-9.193,4.116-9.193,9.193c0,5.077,4.116,9.193,9.193,9.193h96.651L493.614,462.536L493.614,462.536z"/>
<path d="M281.74,145.072H230.26c-5.077,0-9.193,4.116-9.193,9.193c0,5.077,4.116,9.193,9.193,9.193h51.481
	c5.077,0,9.193-4.116,9.193-9.193C290.933,149.188,286.819,145.072,281.74,145.072z"/>
<path d="M230.254,321.889h51.481c5.077,0,9.193-4.116,9.193-9.193s-4.116-9.193-9.193-9.193h-51.481
	c-5.077,0-9.193,4.116-9.193,9.193S225.177,321.889,230.254,321.889z"/>
<path d="M230.254,282.28h51.481c5.077,0,9.193-4.116,9.193-9.193c0-5.077-4.116-9.193-9.193-9.193h-51.481
	c-5.077,0-9.193,4.116-9.193,9.193C221.061,278.164,225.177,282.28,230.254,282.28z"/>
<path d="M230.254,242.673h51.481c5.077,0,9.193-4.116,9.193-9.193c0-5.077-4.116-9.193-9.193-9.193h-51.481
	c-5.077,0-9.193,4.116-9.193,9.193C221.061,238.557,225.177,242.673,230.254,242.673z"/>
<path d="M230.254,203.065h51.481c5.077,0,9.193-4.116,9.193-9.193c0-5.077-4.116-9.193-9.193-9.193h-51.481
	c-5.077,0-9.193,4.116-9.193,9.193C221.061,198.949,225.177,203.065,230.254,203.065z"/>
<path d="M281.74,343.11H230.26c-5.077,0-9.193,4.116-9.193,9.193c0,5.077,4.116,9.193,9.193,9.193h51.481
	c5.077,0,9.193-4.116,9.193-9.193C290.933,347.226,286.819,343.11,281.74,343.11z"/>
<path d="M281.74,382.717H230.26c-5.077,0-9.193,4.116-9.193,9.193c0,5.077,4.116,9.193,9.193,9.193h51.481
	c5.077,0,9.193-4.116,9.193-9.193C290.933,386.833,286.819,382.717,281.74,382.717z"/>
<path d="M281.74,422.325H230.26c-5.077,0-9.193,4.116-9.193,9.193c0,5.077,4.116,9.193,9.193,9.193h51.481
	c5.077,0,9.193-4.116,9.193-9.193C290.933,426.441,286.819,422.325,281.74,422.325z"/>
<g>
</g>
<g>
</g>
<g>
</g>
<g>
</g>
<g>
</g>
<g>
</g>
<g>
</g>
<g>
</g>
<g>
</g>
<g>
</g>
<g>
</g>
<g>
</g>
<g>
</g>
<g>
</g>
<g>
</g>
</svg>
