<?xml version="1.0" encoding="iso-8859-1"?>
<!-- Generator: Adobe Illustrator 19.0.0, SVG Export Plug-In . SVG Version: 6.00 Build 0)  -->
<svg version="1.1" id="Layer_1" xmlns="http://www.w3.org/2000/svg" xmlns:xlink="http://www.w3.org/1999/xlink" x="0px" y="0px"
	 viewBox="0 0 512 512" style="enable-background:new 0 0 512 512;" xml:space="preserve">
<rect x="346.597" y="122.804" style="fill:#CCCCCC;" width="157.427" height="72.04"/>
<rect x="346.597" y="138.615" style="fill:#F2F2F2;" width="157.427" height="16.491"/>
<rect x="346.597" y="196.35" style="fill:#B3B3B3;" width="113.601" height="36.02"/>
<rect x="346.597" y="197.999" style="fill:#F2F2F2;" width="113.601" height="17.027"/>
<path style="fill:#B3B3B3;" d="M346.592,232.366v16.657h-35.591c-11.743,0-21.462,8.719-23.035,20.033
	c-1.583-12.974-12.545-23.178-26.058-23.375l-33.953-0.506c-0.198,0-0.385,0-0.583,0c-20.759,0-37.955,16.251-39.032,37.053
	c-0.066,1.165-0.055,2.331,0.022,3.463l-0.275,0.022c0,0-2.551-1.056-6.432-2.342l0.198-0.594c0-49.665-36.712-90.676-84.519-97.361
	l-1.034-0.088c0.308-0.77,0.583-1.561,0.803-2.353c7.828,1.957,16.581,1.462,16.581,1.462c16.196,0,31.127-5.388,43.123-14.469
	c2.617-1.979,5.102-4.145,7.422-6.465c7.675-7.675,13.623-17.097,17.174-27.609c2.441-7.202,3.76-14.909,3.76-22.925h161.429v9.83
	v72.04v1.506L346.592,232.366L346.592,232.366z M311.375,217.721v-76.636h-89.753v76.636H311.375z"/>
<rect x="221.617" y="141.089" style="fill:#E6E6E6;" width="89.753" height="76.636"/>
<path style="fill:#B2741C;" d="M181.853,282.779l-0.198,0.594c-8.246-2.727-22.507-6.531-30.984-3.529
	c-34.206,12.897-28.136,80.198-23.364,111.237c1.264,8.257-5.102,15.712-13.458,15.712H26.955c-10.368,0-18.67-8.543-18.439-18.9
	c1.902-86.949,14.48-133.282,47.488-165.783c10.621-10.445,33.964-21.121,40.297-36.778l1.034,0.088
	C145.14,192.102,181.853,233.114,181.853,282.779z"/>
<path style="fill:#CCB497;" d="M170.461,279.843c-0.233,0.088-0.457,0.188-0.687,0.281c4.413,0.928,8.62,2.169,11.881,3.248
	l0.198-0.594c0-1.294-0.04-2.578-0.089-3.86C177.599,278.551,173.626,278.723,170.461,279.843z"/>
<path style="fill:#E6E6E6;" d="M180.171,135.72l1.231,0.176c-3.551,10.511-9.5,19.934-17.174,27.609
	c-2.32,2.32-4.805,4.486-7.422,6.465c-6.212-27.576-44.552-55.701-44.552-55.701C136.861,109.497,161.094,116.654,180.171,135.72z"
	/>
<circle style="fill:#FCCA5F;" cx="69.995" cy="345.806" r="19.79"/>
<path d="M311.11,133.084h-89.753c-4.555,0-8.246,3.692-8.246,8.246v76.636c0,4.554,3.691,8.246,8.246,8.246h52.971
	c4.555,0,8.246-3.692,8.246-8.246s-3.691-8.246-8.246-8.246h-44.725v-60.143h73.26v8.636h-51.059c-4.555,0-8.246,3.692-8.246,8.246
	s3.691,8.246,8.246,8.246h51.059v9.896h-51.059c-4.555,0-8.246,3.692-8.246,8.246c0,4.554,3.691,8.246,8.246,8.246h51.059v8.627
	h-6.911c-4.555,0-8.246,3.692-8.246,8.246s3.691,8.246,8.246,8.246h15.158c4.555,0,8.246-3.692,8.246-8.246v-76.636
	C319.356,136.776,315.665,133.084,311.11,133.084z"/>
<path d="M503.754,114.799h-35.222v-9.836c0-4.554-3.691-8.246-8.246-8.246c-4.555,0-8.246,3.692-8.246,8.246v9.836h-97.467v-1.583
	c0-4.554-3.691-8.246-8.246-8.246H184.897c-4.555,0-8.246,3.692-8.246,8.246c0,2.853-0.199,5.684-0.575,8.484
	c-19.058-14.462-41.952-19.879-65.657-15.282c-3.217,0.623-5.759,3.093-6.477,6.29c-0.717,3.197,0.527,6.516,3.169,8.454
	c0.197,0.144,19.77,14.601,32.296,32.3c1.607,2.27,4.153,3.483,6.739,3.483c1.646,0,3.31-0.491,4.756-1.515
	c3.717-2.631,4.598-7.778,1.967-11.495c-6.002-8.48-13.281-16.177-19.721-22.264c13.847,1.413,26.861,7.316,37.985,17.348
	c-3.138,6.991-7.551,13.449-13.001,18.898c-2.055,2.055-4.264,3.979-6.57,5.722c-11.059,8.373-24.248,12.798-38.144,12.798
	c-0.156,0-0.31,0.004-0.465,0.013c-0.076,0.006-7.681,0.379-14.117-1.229c-4.33-1.083-8.747,1.484-9.944,5.791
	c-0.13,0.465-0.302,0.969-0.504,1.47c-3.27,8.086-13.929,15.592-23.333,22.214c-5.662,3.988-11.012,7.754-15.104,11.78
	c-2.465,2.428-4.85,4.959-7.09,7.524c-2.996,3.432-2.642,8.64,0.788,11.636c1.563,1.364,3.496,2.034,5.421,2.034
	c2.298,0,4.585-0.955,6.214-2.822c1.968-2.254,4.066-4.48,6.234-6.615c3.128-3.075,7.94-6.464,13.034-10.052
	c9.401-6.62,19.844-13.98,26.01-23.566c19.498,3.783,37.288,13.975,50.49,29.045c12.075,13.782,19.57,30.87,21.665,48.951
	c-10.471-2.384-18.875-2.488-25.064-0.296c-0.053,0.019-0.106,0.037-0.158,0.057c-38.723,14.6-34.543,81.58-28.606,120.201
	c0.328,2.144-0.637,3.645-1.241,4.349c-0.599,0.698-1.924,1.868-4.066,1.868H26.691c-2.761,0-5.345-1.087-7.275-3.061
	c-1.945-1.989-2.982-4.62-2.919-7.413c1.465-66.943,9.392-107.769,26.507-136.513c2.33-3.913,1.047-8.974-2.866-11.304
	c-3.912-2.329-8.973-1.047-11.304,2.866c-18.674,31.36-27.294,74.601-28.826,144.586c-0.162,7.262,2.543,14.12,7.617,19.308
	c5.06,5.173,11.831,8.022,19.067,8.022h86.893c6.382,0,12.424-2.776,16.579-7.617c4.166-4.852,5.999-11.263,5.029-17.593
	c-2.442-15.883-4.924-39.251-2.877-60.374c2.262-23.341,9.296-37.424,20.914-41.86c3.498-1.196,12.024-0.871,25.568,3.607
	c0.654,0.217,1.251,0.422,1.816,0.62c3.676,17.764,19.297,30.769,37.9,30.767c0.299,0,0.603-0.003,0.903-0.01l27.555-0.605
	c26.399-0.576,47.99-21.7,49.158-48.089c0.001-0.033,0.002-0.066,0.003-0.1c0.06-1.483-0.001-2.924-0.123-4.332
	c1.336-6.994,7.531-12.182,14.729-12.182h35.591c4.555,0,8.246-3.692,8.246-8.246v-45.937h97.107v19.527h-79.865
	c-4.555,0-8.246,3.692-8.246,8.246c0,4.554,3.691,8.246,8.246,8.246h88.111c4.555,0,8.246-3.692,8.246-8.246v-27.773h35.58
	c4.555,0,8.246-3.692,8.246-8.246v-72.04C512,118.492,508.309,114.799,503.754,114.799z M279.65,273.399
	c-0.001,0.023-0.002,0.047-0.002,0.071c-0.818,17.709-15.318,31.874-33.039,32.261l-27.559,0.605
	c-12.011,0.262-22.002-8.905-22.725-20.96c-0.056-0.818-0.062-1.638-0.014-2.475c0.486-9.385,5.134-17.602,12.096-22.915
	c3.57,11.342,11.931,20.794,23.28,25.591c1.048,0.443,2.136,0.653,3.207,0.653c3.214,0,6.269-1.891,7.599-5.039
	c1.772-4.195-0.19-9.032-4.385-10.806c-7.05-2.979-12.173-9.275-14.181-16.553c1.047-0.108,2.108-0.165,3.182-0.165l34.415,0.505
	c9.152,0.134,16.887,7.069,17.995,16.13c0.004,0.037,0.009,0.076,0.014,0.113C279.656,271.332,279.696,272.337,279.65,273.399z
	 M338.082,241.023h-27.345c-8.705,0-16.711,3.625-22.48,9.505c-6.344-7.736-15.916-12.692-26.491-12.847l-33.953-0.506
	c-0.041,0-0.081-0.001-0.122-0.001h-0.583c-16.766,0-31.559,8.73-39.973,21.97c-3.912-17.067-11.99-33.015-23.676-46.353
	c-8.119-9.267-17.716-16.96-28.292-22.859c9.441-2.666,18.341-7.078,26.35-13.141c2.904-2.196,5.688-4.622,8.278-7.212
	c8.643-8.644,15.268-19.295,19.153-30.793c1.903-5.62,3.167-11.421,3.775-17.325h145.359L338.082,241.023L338.082,241.023z
	 M495.508,186.839h-35.58H354.574v-9.203h122.999c4.555,0,8.246-3.692,8.246-8.246c0-4.554-3.691-8.246-8.246-8.246h-123v-29.852
	h140.935v55.547H495.508z"/>
<path d="M69.736,374.092c15.46,0,28.036-12.577,28.036-28.036S85.197,318.02,69.736,318.02s-28.037,12.577-28.037,28.036
	S54.277,374.092,69.736,374.092z M69.736,334.513c6.365,0,11.544,5.179,11.544,11.544c0,6.365-5.179,11.544-11.544,11.544
	c-6.366,0-11.545-5.179-11.545-11.544C58.192,339.691,63.37,334.513,69.736,334.513z"/>
<g>
</g>
<g>
</g>
<g>
</g>
<g>
</g>
<g>
</g>
<g>
</g>
<g>
</g>
<g>
</g>
<g>
</g>
<g>
</g>
<g>
</g>
<g>
</g>
<g>
</g>
<g>
</g>
<g>
</g>
</svg>
