<?xml version="1.0" encoding="iso-8859-1"?>
<!-- Generator: Adobe Illustrator 19.0.0, SVG Export Plug-In . SVG Version: 6.00 Build 0)  -->
<svg version="1.1" id="Layer_1" xmlns="http://www.w3.org/2000/svg" xmlns:xlink="http://www.w3.org/1999/xlink" x="0px" y="0px"
	 viewBox="0 0 512.002 512.002" style="enable-background:new 0 0 512.002 512.002;" xml:space="preserve">
<path style="fill:#CCCCCC;" d="M256.274,8.251L256.274,8.251c-90.688,0-164.205,73.517-164.205,164.205v129.256
	c0,31.836,20.379,58.898,48.799,68.892h-0.007v17.223c0,63.743,51.674,115.417,115.417,115.417l0,0
	c63.743,0,115.417-51.673,115.417-115.417v-17.223h-0.016c28.419-9.995,48.799-37.056,48.799-68.892V172.455
	C420.479,81.768,346.962,8.251,256.274,8.251z"/>
<path style="fill:#999999;" d="M348.408,387.827v-17.223h-0.006c22.687-9.995,38.956-37.056,38.956-68.892V172.455
	c0-90.688-58.688-164.205-131.084-164.205c90.688,0,164.205,73.517,164.205,164.205v129.256c0,31.836-20.379,58.898-48.799,68.892
	h0.007v17.223c0,63.741-51.672,115.415-115.412,115.417C307.158,503.241,348.408,451.569,348.408,387.827z"/>
<g>
	<circle style="fill:#4D4D4D;" cx="173.338" cy="269.529" r="37.927"/>
	<circle style="fill:#4D4D4D;" cx="339.213" cy="269.529" r="37.927"/>
	<path style="fill:#4D4D4D;" d="M256.024,347.671l0.255-0.255l0.255,0.255c7.494,7.494,19.644,7.494,27.139,0l0,0
		c7.494-7.494,7.494-19.644,0-27.139l-0.255-0.255l-27.139-27.139l-27.139,27.139l-0.255,0.255c-7.494,7.494-7.494,19.644,0,27.139
		l0,0C236.378,355.165,248.529,355.165,256.024,347.671z"/>
</g>
<path d="M91.796,214.625c4.696,0,8.504-3.807,8.504-8.504v-33.413c0-85.854,69.848-155.701,155.701-155.701
	c42.656,0,82.461,16.913,112.081,47.624c3.26,3.38,8.643,3.477,12.024,0.218c3.38-3.26,3.477-8.644,0.218-12.024
	C347.469,18.76,303.317,0,256.001,0C160.769,0,83.293,77.476,83.293,172.708v33.413C83.293,210.818,87.1,214.625,91.796,214.625z"/>
<path d="M401.073,78.958c-2.552-3.942-7.819-5.069-11.76-2.516c-3.942,2.552-5.069,7.818-2.516,11.76
	c16.293,25.163,24.905,54.385,24.905,84.507v129.256c0,35.577-28.944,64.522-64.522,64.522c-4.696,0-8.504,3.807-8.504,8.504
	s3.807,8.504,8.504,8.504c5.384,0,10.643-0.539,15.738-1.539v6.126c0,7.064-0.696,13.966-2.009,20.651h-23.39v-9.752
	c0-4.696-3.807-8.504-8.504-8.504s-8.504,3.807-8.504,8.504v9.752h-19.504v-9.752c0-4.696-3.807-8.504-8.504-8.504
	c-4.696,0-8.504,3.807-8.504,8.504v9.752h-19.504v-9.752c0-4.696-3.807-8.504-8.504-8.504s-8.504,3.807-8.504,8.504v9.752h-19.504
	v-9.752c0-4.696-3.807-8.504-8.504-8.504s-8.504,3.807-8.504,8.504v9.752h-19.501v-9.752c0-4.696-3.807-8.504-8.504-8.504
	s-8.504,3.807-8.504,8.504v9.752h-23.37c-1.313-6.685-2.009-13.588-2.009-20.651v-6.124c5.092,1,10.348,1.537,15.729,1.537
	c4.696,0,8.504-3.807,8.504-8.504s-3.807-8.504-8.504-8.504c-35.577,0-64.522-28.944-64.522-64.522v-63.531
	c0-4.696-3.807-8.504-8.504-8.504s-8.504,3.807-8.504,8.504v63.531c0,33.315,20.094,62.009,48.792,74.644v11.471
	c0,68.33,55.591,123.921,123.921,123.921s123.921-55.591,123.921-123.921v-11.475c28.692-12.637,48.783-41.328,48.783-74.64V172.708
	C428.709,139.3,419.153,106.881,401.073,78.958z M256.006,494.993c-45.704,0-84.794-28.829-100.058-69.255h18.524v9.752
	c0,4.696,3.807,8.504,8.504,8.504s8.504-3.807,8.504-8.504v-9.752h19.504v9.752c0,4.696,3.807,8.504,8.504,8.504
	s8.504-3.807,8.504-8.504v-9.752h19.504v9.752c0,4.696,3.807,8.504,8.504,8.504s8.504-3.807,8.504-8.504v-9.752h19.504v9.752
	c0,4.696,3.807,8.504,8.504,8.504s8.504-3.807,8.504-8.504v-9.752h19.504v9.752c0,4.696,3.807,8.504,8.504,8.504
	s8.504-3.807,8.504-8.504v-9.752h18.545C340.8,466.164,301.709,494.993,256.006,494.993z"/>
<path d="M173.07,223.346c-25.601,0-46.431,20.829-46.431,46.431c0,25.601,20.829,46.431,46.431,46.431s46.431-20.829,46.431-46.431
	C219.5,244.176,198.671,223.346,173.07,223.346z M173.07,299.199c-16.224,0-29.423-13.2-29.423-29.423s13.2-29.423,29.423-29.423
	s29.423,13.2,29.423,29.423S189.294,299.199,173.07,299.199z"/>
<path d="M338.941,316.206c25.601,0,46.431-20.829,46.431-46.431c0-14.703-7.077-28.69-18.932-37.415
	c-3.78-2.783-9.104-1.974-11.889,1.808c-2.783,3.782-1.974,9.106,1.808,11.889c7.629,5.615,12.006,14.26,12.006,23.717
	c0,16.224-13.2,29.423-29.423,29.423s-29.423-13.2-29.423-29.423s13.2-29.423,29.423-29.423c4.696,0,8.504-3.807,8.504-8.504
	s-3.807-8.504-8.504-8.504c-25.601,0-46.431,20.829-46.431,46.431S313.34,316.206,338.941,316.206z"/>
<path d="M256.006,358.354c4.262,2.454,9.043,3.68,13.823,3.68c7.092,0,14.184-2.7,19.582-8.099
	c10.797-10.797,10.797-28.367,0-39.164l-27.394-27.394c-1.594-1.595-3.757-2.491-6.013-2.491c-2.255,0-4.418,0.896-6.013,2.491
	l-27.394,27.394c-10.797,10.797-10.797,28.367,0,39.164C231.638,362.975,245.419,364.448,256.006,358.354z M234.624,326.797
	l21.381-21.381l21.38,21.381c2.018,2.018,3.13,4.702,3.13,7.557c0,2.855-1.111,5.539-3.13,7.557c-2.019,2.018-4.702,3.13-7.557,3.13
	c-2.855,0-5.539-1.111-7.557-3.13l-0.255-0.255c-1.66-1.66-3.837-2.491-6.013-2.491c-2.174,0-4.346,0.828-6.006,2.484l-0.255,0.255
	c-0.002,0.002-0.005,0.005-0.007,0.007c-2.018,2.018-4.702,3.13-7.557,3.13c-2.855,0-5.539-1.111-7.557-3.13s-3.13-4.702-3.13-7.557
	C231.495,331.499,232.606,328.815,234.624,326.797z"/>
<g>
</g>
<g>
</g>
<g>
</g>
<g>
</g>
<g>
</g>
<g>
</g>
<g>
</g>
<g>
</g>
<g>
</g>
<g>
</g>
<g>
</g>
<g>
</g>
<g>
</g>
<g>
</g>
<g>
</g>
</svg>
