<?xml version="1.0" encoding="iso-8859-1"?>
<!-- Generator: Adobe Illustrator 19.0.0, SVG Export Plug-In . SVG Version: 6.00 Build 0)  -->
<svg version="1.1" id="Layer_1" xmlns="http://www.w3.org/2000/svg" xmlns:xlink="http://www.w3.org/1999/xlink" x="0px" y="0px"
	 viewBox="0 0 512 512" style="enable-background:new 0 0 512 512;" xml:space="preserve">
<polygon style="fill:#FCCA5F;" points="256.295,8.909 315.606,73.187 401.371,56.047 411.573,142.912 491.033,179.456 
	448.229,255.728 491.033,331.998 411.573,368.544 401.371,455.407 315.606,438.268 256.295,502.545 196.984,438.268 
	111.219,455.407 101.016,368.544 21.557,331.998 64.36,255.728 21.557,179.456 101.016,142.912 111.219,56.047 196.984,73.187 "/>
<circle style="fill:#F75469;" cx="256.295" cy="255.731" r="150.973"/>
<path style="fill:#DD3551;" d="M256.295,104.748c65.9,0,119.322,67.595,119.322,150.978s-53.422,150.979-119.322,150.979
	c83.383,0,150.978-67.595,150.978-150.979C407.273,172.343,339.678,104.748,256.295,104.748z"/>
<path d="M256.001,114.203c21.444,0,42.042,4.663,61.221,13.858c4.574,2.193,10.057,0.263,12.249-4.311
	c2.193-4.573,0.263-10.056-4.309-12.249C303.482,101.109,280.214,95.84,256,95.84c-88.313,0-160.161,71.848-160.161,160.16
	c0,88.313,71.848,160.161,160.161,160.161s160.16-71.848,160.16-160.161c0-49.309-22.216-95.139-60.951-125.742
	c-3.979-3.143-9.752-2.467-12.897,1.513c-3.143,3.979-2.466,9.754,1.513,12.897c34.299,27.097,53.972,67.676,53.972,111.331
	c0,78.187-63.609,141.797-141.796,141.797s-141.796-63.61-141.796-141.798S177.814,114.203,256.001,114.203z"/>
<path d="M402.876,446.676l-85.765-17.139c-3.138-0.629-6.377,0.425-8.548,2.778L256,489.279l-52.563-56.965
	c-2.171-2.352-5.409-3.403-8.548-2.778l-76.008,15.19l-9.041-76.981c-0.373-3.178-2.375-5.934-5.283-7.271l-34.444-15.84
	c-4.609-2.12-10.06-0.102-12.179,4.505c-2.118,4.607-0.102,10.06,4.505,12.179l29.762,13.688l9.6,81.746
	c0.299,2.545,1.649,4.85,3.723,6.356c2.074,1.507,4.683,2.079,7.196,1.576l80.713-16.131l55.817,60.491
	C250.99,510.929,253.436,512,256,512c2.564,0,5.01-1.071,6.748-2.955l55.816-60.491l80.713,16.131
	c4.974,0.994,9.81-2.232,10.803-7.205C411.074,452.507,407.848,447.67,402.876,446.676z"/>
<path d="M458.463,255.999l40.282-71.777c1.254-2.235,1.517-4.893,0.725-7.331c-0.792-2.437-2.567-4.433-4.896-5.504l-74.779-34.391
	l-9.6-81.746c-0.299-2.545-1.649-4.85-3.723-6.356c-2.074-1.507-4.684-2.079-7.196-1.576l-85.765,17.139
	c-4.973,0.994-8.199,5.831-7.205,10.803c0.994,4.973,5.824,8.196,10.803,7.205l76.008-15.19l9.041,76.981
	c0.373,3.178,2.375,5.934,5.283,7.271l70.419,32.387l-37.934,67.594c-1.566,2.791-1.566,6.196,0,8.987l37.934,67.594l-70.419,32.387
	c-2.908,1.337-4.909,4.093-5.283,7.271l-6.796,57.867c-0.591,5.037,3.012,9.599,8.048,10.191c0.364,0.043,0.725,0.064,1.082,0.064
	c4.592,0,8.559-3.439,9.107-8.111l6.196-52.749l74.779-34.391c2.328-1.071,4.104-3.067,4.896-5.505
	c0.792-2.437,0.529-5.095-0.725-7.331L458.463,255.999z"/>
<path d="M45.176,333.163l-11.037-5.076l37.934-67.594c1.566-2.791,1.566-6.196,0-8.987L34.14,183.913l70.419-32.387
	c2.908-1.337,4.909-4.093,5.283-7.271l9.041-76.981l76.007,15.19c3.141,0.627,6.377-0.425,8.548-2.778l52.564-56.964l33.162,35.94
	c3.439,3.727,9.248,3.96,12.974,0.522c3.727-3.439,3.96-9.248,0.522-12.974l-39.91-43.254C261.011,1.071,258.564,0,256.001,0
	c-2.562,0-5.01,1.071-6.748,2.955l-55.817,60.491l-80.713-16.131c-2.515-0.504-5.123,0.069-7.196,1.576
	c-2.074,1.506-3.423,3.811-3.723,6.356l-9.6,81.746l-74.779,34.391c-2.329,1.071-4.104,3.067-4.896,5.505
	c-0.792,2.437-0.529,5.095,0.725,7.331l40.282,71.777l-40.282,71.777c-1.254,2.235-1.517,4.893-0.725,7.331
	c0.792,2.439,2.567,4.434,4.896,5.505l20.076,9.233c1.243,0.572,2.548,0.842,3.831,0.842c3.476,0,6.801-1.983,8.348-5.348
	C51.799,340.734,49.783,335.282,45.176,333.163z"/>
<g>
</g>
<g>
</g>
<g>
</g>
<g>
</g>
<g>
</g>
<g>
</g>
<g>
</g>
<g>
</g>
<g>
</g>
<g>
</g>
<g>
</g>
<g>
</g>
<g>
</g>
<g>
</g>
<g>
</g>
</svg>
