<?xml version="1.0" encoding="iso-8859-1"?>
<!-- Generator: Adobe Illustrator 19.0.0, SVG Export Plug-In . SVG Version: 6.00 Build 0)  -->
<svg version="1.1" id="Layer_1" xmlns="http://www.w3.org/2000/svg" xmlns:xlink="http://www.w3.org/1999/xlink" x="0px" y="0px"
	 viewBox="0 0 512 512" style="enable-background:new 0 0 512 512;" xml:space="preserve">
<g>
	<path style="fill:#2AB573;" d="M459.394,183.826l3.144,61.709l-0.066,0.164c-7.076-2.683-14.743-4.151-22.76-4.151
		c-6.32,0-12.41,0.909-18.182,2.618h-0.011c-9.157-9.573-19.146-18.357-29.847-26.233v-0.011c0.153-1.785,0.23-3.582,0.23-5.4
		c0-10.23-2.388-19.913-6.648-28.5l0.405-0.197L459.394,183.826L459.394,183.826z"/>
	<path style="fill:#2AB573;" d="M251.888,109.345l55.948,41.928c-12.979,4.173-24.162,12.355-32.081,23.089
		c-6.429-0.548-12.925-0.821-19.485-0.821c-6.572,0-13.067,0.274-19.496,0.821c-7.328-9.923-17.426-17.667-29.168-22.081
		L251.888,109.345z"/>
	<path style="fill:#2AB573;" d="M53.638,183.826h73.736c-4.315,8.642-6.747,18.379-6.747,28.697c0,1.818,0.077,3.625,0.23,5.411
		c-10.69,7.875-20.679,16.66-29.836,26.233H91.01c-5.772-1.709-11.862-2.618-18.182-2.618c-7.853,0-15.378,1.413-22.333,3.987
		L53.638,183.826z"/>
</g>
<g>
	<path style="fill:#F75469;" d="M504.049,305.887c0,20.197-9.299,38.215-23.845,50.001c-8.795-42.826-29.573-81.283-58.675-111.721
		c5.772-1.709,11.862-2.618,18.182-2.618c8.018,0,15.685,1.468,22.76,4.151C486.765,254.879,504.049,278.373,504.049,305.887z"/>
	<path style="fill:#F75469;" d="M391.901,212.523c0,1.818-0.077,3.615-0.23,5.4c-32.991-24.283-72.75-39.924-115.916-43.56
		c7.919-10.734,19.102-18.916,32.081-23.089h0.011c6.21-2.004,12.837-3.089,19.715-3.089c25.302,0,47.186,14.6,57.69,35.838
		C389.513,192.611,391.901,202.293,391.901,212.523z"/>
	<path style="fill:#F75469;" d="M207.605,152.281c11.742,4.414,21.84,12.158,29.168,22.081
		c-43.166,3.647-82.925,19.277-115.916,43.571c-0.153-1.785-0.23-3.593-0.23-5.411c0-10.318,2.432-20.055,6.747-28.697
		c10.537-21.139,32.377-35.641,57.591-35.641C192.939,148.185,200.562,149.631,207.605,152.281z"/>
</g>
<path style="fill:#FCCA5F;" d="M484.892,402.164H27.647c0-15.849,1.61-31.326,4.688-46.277
	c8.795-42.826,29.573-81.283,58.675-111.721h0.011c9.157-9.573,19.146-18.357,29.836-26.233
	c32.991-24.294,72.75-39.924,115.916-43.571c6.429-0.548,12.925-0.821,19.496-0.821c6.561,0,13.056,0.274,19.485,0.821
	c43.166,3.636,82.925,19.277,115.916,43.56v0.011c10.701,7.875,20.69,16.66,29.847,26.233h0.011
	c29.102,30.439,49.88,68.895,58.675,111.721C483.282,370.838,484.892,386.315,484.892,402.164z"/>
<path style="fill:#F75469;" d="M72.828,241.549c6.32,0,12.41,0.909,18.182,2.618c-29.102,30.439-49.88,68.895-58.675,111.721
	c-14.557-11.785-23.856-29.803-23.856-50.001c0-27.678,17.481-51.282,42.016-60.351C57.45,242.962,64.975,241.549,72.828,241.549z"
	/>
<path d="M512,306.131c0-28.141-16.58-53.882-41.774-65.707l-2.892-56.771c-0.222-4.369-3.829-7.796-8.204-7.796h-69.362
	c-13.024-22.115-36.491-35.641-62.47-35.641c-6.127,0-12.18,0.778-18.057,2.289l-15.329-11.488
	c-3.629-2.721-8.779-1.984-11.501,1.647c-2.72,3.631-1.984,8.779,1.647,11.501l7.367,5.521c-7.45,4.228-14.088,9.758-19.668,16.409
	c-10.42-0.685-21.112-0.683-31.517,0c-5.332-6.343-11.661-11.693-18.735-15.86l30.802-29.865l9.781,7.33
	c3.629,2.721,8.779,1.984,11.501-1.647c2.72-3.631,1.984-8.779-1.647-11.501l-15.392-11.535c-3.232-2.422-7.745-2.136-10.645,0.676
	l-40.712,39.475c-6.624-1.95-13.492-2.952-20.491-2.952c-27.701,0-52.587,15.4-64.941,40.186
	c-5.05,10.115-7.612,21.005-7.612,32.367c0,0.487,0.022,0.977,0.032,1.466c-8.443,6.467-16.481,13.518-23.982,21.044
	c-5.109-1.127-10.347-1.699-15.634-1.699c-4.578,0-9.105,0.437-13.551,1.279l2.169-42.572h36.37c4.538,0,8.215-3.678,8.215-8.215
	s-3.677-8.215-8.215-8.215H53.374c-4.375,0-7.981,3.428-8.204,7.796l-2.88,56.532C16.784,251.909,0,277.75,0,306.131
	c0,20.306,8.375,39.372,23.115,53.073c-2.612,14.168-3.947,28.675-3.947,43.203c0,4.537,3.677,8.215,8.215,8.215h75.28
	c4.538,0,8.215-3.678,8.215-8.215s-3.677-8.215-8.215-8.215H35.749c0.452-12.279,1.917-24.491,4.369-36.409
	c8.296-40.397,27.827-77.602,56.482-107.606c0.031-0.031,0.065-0.058,0.094-0.089c8.814-9.214,18.494-17.725,28.771-25.296
	c32.675-24.062,71.312-38.585,111.743-42.001c12.33-1.05,25.235-1.053,37.594,0.001c26.781,2.256,52.605,9.299,76.757,20.933
	c4.085,1.968,8.997,0.253,10.966-3.836c1.969-4.088,0.251-8.997-3.836-10.966c-20.895-10.067-42.957-16.929-65.774-20.491
	c5.153-3.996,10.983-7.105,17.173-9.095c0.007-0.002,0.012-0.004,0.018-0.007l0.001,0.004c5.533-1.786,11.318-2.692,17.192-2.692
	c21.504,0,40.788,11.98,50.331,31.275c2.246,4.527,3.825,9.268,4.767,14.168c-0.995-0.629-1.988-1.261-2.988-1.872
	c-3.871-2.367-8.927-1.149-11.295,2.723c-2.367,3.871-1.148,8.927,2.722,11.294c5.319,3.252,10.563,6.776,15.591,10.472
	c0.038,0.028,0.071,0.061,0.111,0.09c10.276,7.563,19.959,16.072,28.779,25.295c0.031,0.032,0.065,0.058,0.094,0.09
	c28.654,30.004,48.185,67.209,56.483,107.609c2.452,11.916,3.916,24.126,4.368,36.406H127.67c-4.538,0-8.215,3.678-8.215,8.215
	c0,4.537,3.677,8.215,8.215,8.215h356.956c4.538,0,8.215-3.678,8.215-8.215c0-14.53-1.335-29.04-3.947-43.205
	C503.63,345.499,512,326.434,512,306.131z M27.573,339.684c-7.173-9.586-11.144-21.273-11.144-33.552
	c0-23.386,14.729-44.543,36.652-52.647c6.233-2.307,12.789-3.477,19.482-3.477c0.703,0,1.405,0.014,2.106,0.041
	C52.622,276.258,36.575,306.798,27.573,339.684z M134.463,187.735c9.56-19.178,28.811-31.091,50.239-31.091
	c6.808,0,13.451,1.202,19.748,3.571c5.309,1.996,10.242,4.774,14.673,8.221c-31.827,4.989-62.278,16.435-89.517,33.65
	C130.56,197.129,132.17,192.326,134.463,187.735z M399.821,214.231c0.01-0.489,0.032-0.976,0.032-1.463
	c0-7.04-0.981-13.892-2.924-20.482h54.395l2.174,42.67c-4.601-0.906-9.295-1.377-14.049-1.377c-5.287,0-10.527,0.572-15.634,1.699
	C416.307,227.745,408.264,220.692,399.821,214.231z M437.342,250.048c0.701-0.026,1.403-0.041,2.106-0.041
	c6.84,0,13.517,1.217,19.857,3.621c21.693,8.195,36.266,29.294,36.266,52.502c0,12.275-3.966,23.96-11.134,33.546
	C475.433,306.793,459.388,276.256,437.342,250.048z"/>
<path d="M126.261,330.122c4.538,0,8.215-3.678,8.215-8.215s-3.677-8.215-8.215-8.215c-15.401,0-27.929,12.529-27.929,27.929
	c0,15.4,12.528,27.929,27.929,27.929s27.929-12.529,27.929-27.929c0-4.537-3.677-8.215-8.215-8.215
	c-4.538,0-8.215,3.678-8.215,8.215c0,6.341-5.159,11.5-11.5,11.5c-6.341,0-11.5-5.159-11.5-11.5
	C114.762,335.28,119.92,330.122,126.261,330.122z"/>
<path d="M314.972,312.59c0,15.4,12.528,27.929,27.929,27.929s27.929-12.529,27.929-27.929c0-4.537-3.677-8.215-8.215-8.215
	c-4.538,0-8.215,3.678-8.215,8.215c0,6.341-5.159,11.5-11.5,11.5s-11.5-5.159-11.5-11.5c0-6.341,5.159-11.5,11.5-11.5
	c4.538,0,8.215-3.678,8.215-8.215s-3.677-8.215-8.215-8.215C327.501,284.661,314.972,297.19,314.972,312.59z"/>
<path d="M233.155,239.826c4.538,0,8.215-3.678,8.215-8.215s-3.677-8.215-8.215-8.215c-15.401,0-27.929,12.529-27.929,27.929
	s12.528,27.929,27.929,27.929s27.929-12.529,27.929-27.929c0-4.537-3.677-8.215-8.215-8.215s-8.215,3.678-8.215,8.215
	c0,6.341-5.159,11.5-11.5,11.5c-6.341,0-11.5-5.159-11.5-11.5C221.656,244.985,226.814,239.826,233.155,239.826z"/>
<circle cx="155.971" cy="267.319" r="8.215"/>
<circle cx="332.677" cy="246.881" r="8.215"/>
<circle cx="264.045" cy="353.487" r="8.215"/>
<g>
</g>
<g>
</g>
<g>
</g>
<g>
</g>
<g>
</g>
<g>
</g>
<g>
</g>
<g>
</g>
<g>
</g>
<g>
</g>
<g>
</g>
<g>
</g>
<g>
</g>
<g>
</g>
<g>
</g>
</svg>
