<?xml version="1.0" encoding="iso-8859-1"?>
<!-- Generator: Adobe Illustrator 19.0.0, SVG Export Plug-In . SVG Version: 6.00 Build 0)  -->
<svg version="1.1" id="Layer_1" xmlns="http://www.w3.org/2000/svg" xmlns:xlink="http://www.w3.org/1999/xlink" x="0px" y="0px"
	 viewBox="0 0 512 512" style="enable-background:new 0 0 512 512;" xml:space="preserve">
<path style="fill:#E6E6E6;" d="M292.302,441.63v0.011l-0.023,0.355H60.853c-15.631,0-28.582-12.127-29.59-27.734L8.865,69.493
	h307.621l-11.256,173.22C305.23,242.713,304.404,281.577,292.302,441.63z"/>
<path style="fill:#F75469;" d="M270.327,164.399l-5.084,78.314c0,0-3.676,123.007-80.49,159.376h-59.007
	c-13.489,0-25.971-4.546-35.945-12.23c-13.031-10.008-21.78-25.364-22.914-42.941L55.013,164.399H270.327z"/>
<path style="fill:#F98398;" d="M125.746,164.399v237.69c-13.489,0-25.971-4.546-35.945-12.23v-225.46L125.746,164.399
	L125.746,164.399z"/>
<path style="fill:#FCCA5F;" d="M105.126,242.717c0,110.059,89.22,199.279,199.279,199.279s199.279-89.22,199.279-199.279H105.126z"
	/>
<path style="fill:#F9E5C5;" d="M141.579,242.717c0,89.926,72.9,162.826,162.826,162.826s162.826-72.9,162.826-162.826"/>
<polygon style="fill:#F2F2F2;" points="273.9,109.4 270.327,164.399 55.024,164.399 55.013,164.399 51.44,109.4 "/>
<path d="M202.89,433.663H60.577c-11.073,0-20.305-8.654-21.018-19.703L17.753,78.337h73.494c4.743,0,8.588-3.845,8.588-8.588
	c0-4.743-3.845-8.588-8.588-8.588H8.589c-2.375,0-4.643,0.983-6.267,2.716c-1.624,1.733-2.457,4.059-2.304,6.43l22.398,344.765
	c1.295,20.058,18.057,35.769,38.16,35.769h142.313c4.743,0,8.588-3.845,8.588-8.588C211.477,437.508,207.633,433.663,202.89,433.663
	z"/>
<path d="M120.447,78.337h186.6l-9.053,139.317c-0.308,4.733,3.281,8.82,8.013,9.128c0.19,0.013,0.378,0.018,0.566,0.018
	c4.489,0,8.267-3.488,8.562-8.032l9.648-148.462c0.153-2.369-0.68-4.697-2.304-6.43c-1.624-1.733-3.892-2.716-6.267-2.716H120.447
	c-4.743,0-8.588,3.845-8.588,8.588S115.704,78.337,120.447,78.337z"/>
<path d="M266.451,220.13c4.734,0.309,8.82-3.281,9.126-8.015l6.618-101.904c0.153-2.369-0.68-4.697-2.304-6.43
	c-1.624-1.733-3.892-2.715-6.267-2.715H51.164c-2.375,0-4.643,0.982-6.267,2.715c-1.624,1.733-2.457,4.061-2.304,6.43
	l15.447,237.515c2.289,35.442,31.907,63.205,67.428,63.205h20.74c4.743,0,8.588-3.845,8.588-8.588c0-4.743-3.845-8.588-8.588-8.588
	H125.47c-26.492,0-48.581-20.705-50.288-47.141L63.906,173.243h196.982l-2.452,37.761
	C258.13,215.737,261.717,219.822,266.451,220.13z M62.789,156.066l-2.46-37.823h204.131l-2.456,37.823H62.789z"/>
<path d="M503.413,234.38H104.847c-4.743,0-8.588,3.845-8.588,8.588c0,33.232,7.61,64.988,22.62,94.389
	c14.313,28.033,35.212,52.88,60.436,71.851c0.093,0.07,0.186,0.137,0.281,0.203c32.585,24.425,71.277,38.618,111.915,41.047
	c4.222,0.253,8.467,0.381,12.618,0.381C418.749,450.84,512,357.589,512,242.969C512.001,238.225,508.156,234.38,503.413,234.38z
	 M189.22,345.735c-22.655-25.306-37.096-58.108-39.085-94.178h133.263L189.22,345.735z M295.541,263.705v133.261
	c-36.07-1.99-68.87-16.43-94.176-39.085L295.541,263.705z M312.718,263.705l94.175,94.176
	c-25.306,22.655-58.106,37.095-94.175,39.085V263.705z M419.039,345.736l-94.178-94.178h133.263
	C456.134,287.628,441.694,320.429,419.039,345.736z M304.13,433.663c-3.81,0-7.709-0.118-11.591-0.352
	c-37.374-2.235-72.951-15.316-102.888-37.832c-0.088-0.066-0.177-0.131-0.268-0.194c-23.036-17.386-42.122-40.112-55.204-65.739
	c-12.466-24.416-19.366-50.614-20.556-77.99h19.31c4.489,90.545,79.56,162.828,171.199,162.828s166.71-72.284,171.199-162.828
	h19.305C490.132,352.741,406.404,433.663,304.13,433.663z"/>
<g>
</g>
<g>
</g>
<g>
</g>
<g>
</g>
<g>
</g>
<g>
</g>
<g>
</g>
<g>
</g>
<g>
</g>
<g>
</g>
<g>
</g>
<g>
</g>
<g>
</g>
<g>
</g>
<g>
</g>
</svg>
