<?xml version="1.0" encoding="iso-8859-1"?>
<!-- Generator: Adobe Illustrator 19.0.0, SVG Export Plug-In . SVG Version: 6.00 Build 0)  -->
<svg version="1.1" id="Layer_1" xmlns="http://www.w3.org/2000/svg" xmlns:xlink="http://www.w3.org/1999/xlink" x="0px" y="0px"
	 viewBox="0 0 512.001 512.001" style="enable-background:new 0 0 512.001 512.001;" xml:space="preserve">
<path style="fill:#F75469;" d="M358.229,79.681H154.332l6.903,31.923c4.548,21.032,23.152,36.043,44.671,36.043h100.748
	c21.519,0,40.122-15.01,44.671-36.043L358.229,79.681z"/>
<path style="fill:#DD3551;" d="M320.34,111.604l6.903-31.923h31.543l-6.903,31.923c-4.549,21.032-23.152,36.043-44.671,36.043
	h-31.543C297.188,147.646,315.792,132.636,320.34,111.604z"/>
<path style="fill:#F75469;" d="M211.27,79.679c7.484-41.921,24.822-71.281,45.009-71.281c20.192,0,37.53,29.359,45.014,71.281
	H211.27z"/>
<path style="fill:#DD3551;" d="M256.84,8.398L256.84,8.398c20.187,0,37.526,29.359,45.009,71.281h-21.542
	C276.405,37.758,267.366,8.399,256.84,8.398z"/>
<path style="fill:#FCCA5F;" d="M282.684,147.646c6.509,6.659,10.525,15.776,10.525,25.827c0,6.347-1.604,12.325-4.42,17.541
	c-2.827,5.216-6.866,9.671-11.736,12.994c16.445,6.37,29.243,20.08,34.367,37.114l19.974,7.427
	c19.712,7.329,32.788,26.142,32.788,47.172v207.365H148.378V295.722c0-21.03,13.076-39.843,32.788-47.172l19.974-7.427
	c2.562-8.517,7.04-16.203,12.937-22.55c5.897-6.359,13.214-11.379,21.43-14.564c-9.752-6.647-16.156-17.841-16.156-30.536
	c0-10.052,4.016-19.168,10.525-25.827"/>
<path style="fill:#E8B459;" d="M310.4,248.55l-30.765-7.427c-1.827-8.517-5.02-16.203-9.224-22.55
	c-4.205-6.359-9.422-11.379-15.281-14.564c6.953-6.647,11.521-17.841,11.521-30.536c0-10.052-2.863-19.168-7.505-25.827h24.1
	c6.509,6.659,10.525,15.776,10.525,25.827c0,12.694-6.405,23.888-16.156,30.536c8.217,3.185,15.533,8.205,21.43,14.564
	c5.897,6.347,10.375,14.033,12.937,22.55l19.974,7.427c19.712,7.329,32.788,26.142,32.788,47.172v207.365h-30.963V295.722
	C333.78,274.692,324.455,255.879,310.4,248.55z"/>
<path style="fill:#2AB573;" d="M310.679,314.714c-8.682-21.532-29.759-36.734-54.399-36.734s-45.717,15.203-54.399,36.734h-21.648
	v152.094h152.094V314.714H310.679z"/>
<path d="M334.133,240.695l-16.121-5.994c-5.045-13.387-14.41-24.85-26.385-32.539c1.696-2.12,3.205-4.39,4.501-6.779
	c3.571-6.616,5.457-14.103,5.457-21.652c0-5.976-1.148-11.785-3.336-17.172h8.127c25.414,0,47.76-18.029,53.13-42.869l6.903-31.923
	c0.553-2.557-0.08-5.228-1.723-7.265c-1.643-2.037-4.119-3.221-6.736-3.221h-49.814C298.824,27.119,279.163,0,256.003,0
	c-23.159,0-42.817,27.119-52.132,71.283h-49.816c-2.617,0-5.093,1.184-6.736,3.221s-2.277,4.707-1.723,7.265l6.903,31.923
	c5.371,24.84,27.716,42.869,53.13,42.869h8.124c-2.188,5.386-3.335,11.196-3.335,17.172c0,10.468,3.586,20.453,9.951,28.43
	c-4.735,3.03-9.091,6.66-12.911,10.779c-5.843,6.288-10.449,13.743-13.469,21.762l-16.119,5.994
	c-22.984,8.547-38.426,30.764-38.426,55.285v38.803c0,4.78,3.874,8.655,8.655,8.655c4.781,0,8.655-3.875,8.655-8.655V295.98
	c0-17.325,10.91-33.023,27.149-39.06l18.515-6.885h72.738c4.781,0,8.655-3.875,8.655-8.655s-3.874-8.655-8.655-8.655h-61.025
	c1.729-2.861,3.734-5.558,6.011-8.009c4.696-5.063,10.492-9.108,16.825-11.794h38.066c13.305,5.641,23.651,17.099,27.817,30.951
	c0.781,2.595,2.732,4.675,5.272,5.62l19.975,7.427c16.239,6.038,27.15,21.735,27.15,39.06v198.71H156.754V361.328
	c0-4.78-3.874-8.655-8.655-8.655c-4.781,0-8.655,3.875-8.655,8.655v142.018c0,4.78,3.874,8.655,8.655,8.655h215.803
	c4.781,0,8.655-3.875,8.655-8.655V295.98C372.56,271.459,357.117,249.241,334.133,240.695z M236.092,33.133
	c3.659-5.91,11.114-15.823,19.91-15.823c8.797,0,16.253,9.913,19.915,15.823c6.019,9.716,10.967,22.774,14.503,38.15h-68.832
	C225.126,55.907,230.073,42.849,236.092,33.133z M169.417,110.031l-4.637-21.437h182.445l-4.637,21.438
	c-3.662,16.93-18.89,29.218-36.212,29.218H205.628C188.308,139.249,173.079,126.961,169.417,110.031z M280.902,187.148
	c-1.755,3.239-4.161,6.122-7.016,8.464h-35.769c-6.54-5.352-10.387-13.356-10.387-21.88c0-6.28,2.048-12.26,5.812-17.172h44.923
	c3.764,4.912,5.812,10.893,5.812,17.172C284.277,178.419,283.106,183.062,280.902,187.148z"/>
<path d="M332.049,421.914c4.781,0,8.655-3.875,8.655-8.655v-98.286c0-4.78-3.874-8.655-8.655-8.655h-16.084
	c-11.427-22.498-34.365-36.735-59.963-36.735s-48.535,14.237-59.965,36.735h-16.084c-4.781,0-8.655,3.875-8.655,8.655v152.093
	c0,4.78,3.874,8.655,8.655,8.655h152.094c4.781,0,8.655-3.875,8.655-8.655V442.11c0-4.78-3.874-8.655-8.655-8.655
	c-4.781,0-8.655,3.875-8.655,8.655v16.301H188.61V323.627h12.993c3.531,0,6.707-2.144,8.027-5.418
	c7.67-19.024,25.873-31.316,46.372-31.316c20.5,0,38.7,12.293,46.371,31.316c1.321,3.274,4.496,5.419,8.027,5.419h12.993v89.631
	C323.394,418.039,327.268,421.914,332.049,421.914z"/>
<path d="M256.003,434.032c4.781,0,8.655-3.875,8.655-8.655v-45.584h13.964c4.781,0,8.655-3.875,8.655-8.655V349.21
	c0-4.78-3.874-8.655-8.655-8.655c-4.781,0-8.655,3.875-8.655,8.655v13.271h-5.309v-28.274c0-4.78-3.874-8.655-8.655-8.655
	c-4.781,0-8.655,3.875-8.655,8.655v62.895h-5.078v-14.425c0-4.78-3.874-8.655-8.655-8.655s-8.655,3.875-8.655,8.655v23.081
	c0,4.78,3.874,8.655,8.655,8.655h13.733v10.963C247.348,430.156,251.222,434.032,256.003,434.032z"/>
<g>
</g>
<g>
</g>
<g>
</g>
<g>
</g>
<g>
</g>
<g>
</g>
<g>
</g>
<g>
</g>
<g>
</g>
<g>
</g>
<g>
</g>
<g>
</g>
<g>
</g>
<g>
</g>
<g>
</g>
</svg>
