<?xml version="1.0" encoding="iso-8859-1"?>
<!-- Generator: Adobe Illustrator 19.0.0, SVG Export Plug-In . SVG Version: 6.00 Build 0)  -->
<svg version="1.1" id="Layer_1" xmlns="http://www.w3.org/2000/svg" xmlns:xlink="http://www.w3.org/1999/xlink" x="0px" y="0px"
	 viewBox="0 0 512.002 512.002" style="enable-background:new 0 0 512.002 512.002;" xml:space="preserve">
<path style="fill:#B2741C;" d="M334.776,468.184v34.957H177.79v-34.957l-0.006,0.005C104.39,443.261,52.827,384.413,52.827,315.803
	c0-76.824,64.641-141.396,152.179-159.842L194.888,8.348h122.778l-10.118,147.613c87.538,18.446,152.179,83.018,152.179,159.842
	c0,68.622-51.564,127.458-124.957,152.385v0.012L334.776,468.184z"/>
<polygon style="fill:#CCB497;" points="319.501,468.2 319.505,468.187 319.501,468.189 "/>
<g>
	<path style="fill:#995E14;" d="M303.656,468.189c59.118-24.927,100.651-83.775,100.651-152.385
		c0-76.824-62.621-141.396-133.132-159.842l8.149-147.613h38.341l-10.118,147.613c87.538,18.446,152.179,83.018,152.179,159.842
		c0,68.61-51.564,127.458-124.957,152.385l-0.006-0.005v34.957H303.65l0.005-34.957v0.005H303.656z"/>
	<polygon style="fill:#995E14;" points="193.053,468.2 193.048,468.187 193.053,468.189 	"/>
</g>
<path d="M316.359,149.453l9.614-140.261c0.164-2.378-0.668-4.717-2.295-6.46C322.052,0.989,319.774,0,317.391,0H194.613
	c-2.384,0-4.661,0.989-6.287,2.731c-1.627,1.742-2.458,4.082-2.295,6.46l9.613,140.263c-36.601,8.869-69.526,25.665-95.601,48.831
	c-3.553,3.156-3.873,8.594-0.717,12.146c3.155,3.552,8.592,3.874,12.146,0.717c25.377-22.547,57.945-38.549,94.22-46.329h74.77
	c4.753,0,8.604-3.852,8.604-8.604s-3.851-8.604-8.604-8.604h-67.697l-6.761-98.651h58.032c4.753,0,8.604-3.852,8.604-8.604
	s-3.851-8.604-8.604-8.604h-59.213l-0.997-14.546h104.352l-0.997,14.548h-17.336c-4.753,0-8.604,3.852-8.604,8.604
	s3.851,8.604,8.604,8.604h16.156l-7.312,106.668c-0.294,4.28,2.611,8.123,6.809,9.007c16.045,3.381,31.184,8.317,45.191,14.576
	c-28.863,12.948-61.25,19.757-94.682,19.757c-27.4,0-53.898-4.488-78.755-13.337c-4.473-1.595-9.396,0.742-10.991,5.219
	c-1.595,4.477,0.742,9.397,5.219,10.991c26.716,9.512,55.154,14.335,84.527,14.335c40.61,0,79.86-9.393,113.876-27.155
	c36.851,21.35,63.574,52.608,74.923,88.32H86.228c-4.751,0-8.604,3.852-8.604,8.604s3.852,8.604,8.604,8.604h362.769
	c1.215,7.054,1.85,14.235,1.85,21.511c0,7.268-0.63,14.451-1.84,21.509H293.859c-4.753,0-8.604,3.852-8.604,8.604
	s3.851,8.604,8.604,8.604h150.963c-14.801,46.742-55.964,86.119-113.095,105.523c-3.49,1.185-5.837,4.473-5.837,8.157
	c0,0.104,0.002,0.208,0.006,0.311v26.026h-139.78v-17.75H304.22c4.753,0,8.604-3.852,8.604-8.604s-3.851-8.604-8.604-8.604H178.946
	c-6.647-2.303-13.074-4.878-19.266-7.703c29.269-13.427,62.253-20.484,96.315-20.484c26.919,0,52.986,4.336,77.479,12.887
	c4.488,1.568,9.393-0.802,10.96-5.287c1.566-4.486-0.801-9.393-5.286-10.959c-26.32-9.189-54.296-13.848-83.151-13.848
	c-41.144,0-80.894,9.643-115.217,27.864c-36.474-21.456-62.478-52.413-73.598-87.53H269.77c4.753,0,8.604-3.852,8.604-8.604
	s-3.851-8.604-8.604-8.604H62.995c-0.731-4.26-1.253-8.565-1.546-12.906h77.548c4.751,0,8.604-3.852,8.604-8.604
	c0-4.751-3.852-8.604-8.604-8.604H61.474c1.717-25.087,10.893-49.505,26.844-71.091c2.824-3.821,2.016-9.208-1.807-12.032
	c-3.822-2.825-9.209-2.016-12.032,1.807c-19.975,27.031-30.532,58.125-30.532,89.922c0,68.795,48.834,130.433,124.963,158.469
	v28.869c0,4.751,3.852,8.603,8.604,8.603H334.5c4.753,0,8.604-3.852,8.604-8.603v-28.875
	c76.12-28.038,124.952-89.674,124.952-158.465C468.055,238.799,406.056,171.165,316.359,149.453z"/>
<path d="M423.067,324.661c4.753,0,8.604-3.852,8.604-8.604s-3.851-8.604-8.604-8.604H168.822c-4.751,0-8.604,3.852-8.604,8.604
	s3.852,8.604,8.604,8.604H423.067z"/>
<g>
</g>
<g>
</g>
<g>
</g>
<g>
</g>
<g>
</g>
<g>
</g>
<g>
</g>
<g>
</g>
<g>
</g>
<g>
</g>
<g>
</g>
<g>
</g>
<g>
</g>
<g>
</g>
<g>
</g>
</svg>
