<?xml version="1.0" encoding="iso-8859-1"?>
<!-- Generator: Adobe Illustrator 19.0.0, SVG Export Plug-In . SVG Version: 6.00 Build 0)  -->
<svg version="1.1" id="Layer_1" xmlns="http://www.w3.org/2000/svg" xmlns:xlink="http://www.w3.org/1999/xlink" x="0px" y="0px"
	 viewBox="0 0 512.003 512.003" style="enable-background:new 0 0 512.003 512.003;" xml:space="preserve">
<path style="fill:#FCCA5F;" d="M256.276,8.254L256.276,8.254c-90.687,0-164.203,73.517-164.203,164.203v129.255
	c0,31.836,20.379,58.897,48.799,68.892h-0.007v17.222c0,63.742,51.674,115.416,115.416,115.416l0,0
	c63.742,0,115.416-51.673,115.416-115.416v-17.222h-0.016c28.419-9.994,48.799-37.056,48.799-68.892V172.457
	C420.478,81.771,346.963,8.254,256.276,8.254z"/>
<path style="fill:#E8B459;" d="M348.408,387.827v-17.222h-0.006c22.687-9.994,38.956-37.056,38.956-68.892V172.457
	c0-90.687-58.688-164.203-131.083-164.203c90.687,0,164.203,73.517,164.203,164.203v129.255c0,31.836-20.379,58.897-48.799,68.892
	h0.007v17.222c0,63.741-51.672,115.414-115.411,115.416C307.16,503.24,348.408,451.569,348.408,387.827z"/>
<path style="fill:#4D4D4D;" d="M194.023,258.446c14.853,2.052,25.284,15.658,23.424,30.533
	c-1.871,15.011-15.567,25.658-30.567,23.776c-13.367-1.667-25.703-7.018-35.839-15.102c-10.136-8.095-18.095-18.923-22.687-31.588
	l-6.383-17.585L194.023,258.446z"/>
<path style="fill:#2AB573;" d="M420.476,172.458v67.722l-36.225-20.363c-19.978-11.236-32.347-32.37-32.347-55.295V38.965
	C393.424,68.761,420.476,117.447,420.476,172.458z"/>
<path style="fill:#4D4D4D;" d="M390.589,248.48l-6.395,17.585c-4.603,12.664-12.54,23.492-22.687,31.588
	c-10.136,8.084-22.461,13.435-35.828,15.102c-15.011,1.882-28.696-8.764-30.578-23.776c-1.859-14.875,8.583-28.481,23.424-30.533
	L390.589,248.48z"/>
<g>
	<path style="fill:#F75469;" d="M351.904,38.965v125.557l-95.624,77.597l-95.636-77.597V38.965
		c26.928-19.331,59.944-30.715,95.636-30.715C291.96,8.251,324.976,19.634,351.904,38.965z"/>
	<path style="fill:#F75469;" d="M308.117,395.25c5.454,5.454,8.821,12.971,8.821,21.281c0,16.621-13.481,30.091-30.091,30.091
		h-61.134c-8.311,0-15.828-3.367-21.281-8.81c-5.442-5.454-8.81-12.971-8.81-21.281c0-16.621,13.47-30.091,30.091-30.091h61.134
		C295.146,386.44,302.674,389.807,308.117,395.25z"/>
	<path style="fill:#F75469;" d="M256.279,280.997c11.27,24.048,24.263,48.084,34.331,59.468c-19.773,16.894-48.889,16.894-68.674,0
		C232.005,329.081,245.01,305.045,256.279,280.997z"/>
</g>
<path style="fill:#2AB573;" d="M160.644,38.965v125.557c0,22.925-12.37,44.059-32.347,55.295l-3.107,1.746L92.072,240.18v-67.722
	C92.072,117.447,119.113,68.761,160.644,38.965z"/>
<path style="fill:#1F9E5E;" d="M351.904,38.965v21.191c21.996,29.365,35.454,68.867,35.454,112.303v49.105l33.118,18.617v-67.722
	C420.476,117.447,393.435,68.761,351.904,38.965z"/>
<polygon style="fill:#FCCA5F;" points="256.275,56.505 274.551,93.534 315.414,99.473 285.844,128.295 292.825,168.994 
	256.275,149.779 219.726,168.994 226.705,128.295 197.136,99.473 238,93.534 "/>
<path d="M356.59,32.31C327.145,11.172,292.365,0,256.006,0c-36.365,0-71.15,11.172-100.593,32.309
	c-45.158,32.399-72.119,84.886-72.119,140.403v102.492c0,4.696,3.807,8.503,8.503,8.503s8.503-3.807,8.503-8.503v-29.795
	l31.89-17.926c22.626-12.726,36.682-36.754,36.682-62.707V43.684c25.767-17.454,55.791-26.677,87.132-26.677
	c31.335,0,61.353,9.223,87.121,26.676v55.838c0,4.696,3.807,8.503,8.503,8.503c4.696,0,8.503-3.807,8.503-8.503v-42.53
	c32.549,29.361,51.565,71.472,51.565,115.72v53.186l-23.552-13.239c-17.279-9.718-28.013-28.066-28.013-47.884v-38.043
	c0-4.696-3.807-8.503-8.503-8.503c-4.696,0-8.503,3.807-8.503,8.503v33.992l-87.121,70.697l-62.527-50.734
	c-3.646-2.958-9.002-2.401-11.962,1.246c-2.959,3.647-2.401,9.002,1.246,11.962l67.886,55.081c1.561,1.266,3.459,1.9,5.358,1.9
	c1.899,0,3.797-0.634,5.358-1.9l83.648-67.879c4.534,19.407,17.017,36.387,34.798,46.387l31.888,17.926v56.556
	c0,27.345-17.327,51.804-43.114,60.867c-3.598,1.264-5.864,4.745-5.662,8.475v16.771c0,28.554-11.123,55.401-31.319,75.598
	c-20.196,20.196-47.045,31.319-75.598,31.319c-58.954,0-106.917-47.963-106.917-106.917v-16.914
	c0.003-0.102,0.006-0.205,0.006-0.308c0-3.774-2.463-6.975-5.867-8.085c-25.683-9.129-42.926-33.54-42.926-60.803
	c0-4.696-3.807-8.503-8.503-8.503c-4.696,0-8.503,3.807-8.503,8.503c0,32.486,19.369,61.762,48.787,74.668v11.443
	c0,68.332,55.592,123.924,123.924,123.924c33.097,0,64.215-12.891,87.623-36.301c23.408-23.408,36.301-54.528,36.301-87.623v-11.45
	c29.411-12.897,48.776-42.168,48.776-74.662V172.715C428.706,117.204,401.747,64.717,356.59,32.31z M123.857,212.657l-23.555,13.24
	v-53.186c0-44.254,19.015-86.366,51.565-115.722v107.786C151.867,184.592,141.133,202.941,123.857,212.657z"/>
<path d="M256.006,272.746c-3.299,0-6.301,1.908-7.7,4.895c-12.745,27.194-24.778,48.132-33.013,57.443
	c-1.511,1.709-2.272,3.952-2.112,6.228c0.16,2.276,1.227,4.391,2.96,5.872c11.551,9.863,25.708,14.794,39.863,14.794
	c14.155,0,28.311-4.932,39.856-14.796c1.734-1.482,2.8-3.596,2.959-5.872c0.159-2.274-0.602-4.518-2.113-6.227
	c-8.22-9.294-20.248-30.23-33.001-57.443C262.307,274.654,259.306,272.746,256.006,272.746z M233.836,338.968
	c7.693-10.762,15.721-25.467,22.169-38.259c6.449,12.797,14.476,27.504,22.161,38.26C264.444,346.94,247.566,346.94,233.836,338.968
	z"/>
<path d="M329.839,348.441c29.573-3.694,56.465-19.604,73.783-43.651c2.745-3.811,1.88-9.125-1.931-11.87
	c-3.811-2.745-9.125-1.88-11.87,1.931c-14.564,20.221-37.194,33.603-62.091,36.712c-4.66,0.583-7.966,4.832-7.384,9.492
	c0.537,4.303,4.201,7.45,8.428,7.45C329.125,348.508,329.481,348.485,329.839,348.441z"/>
<path d="M389.151,240.309l-72.064,9.966c-19.349,2.676-33.12,20.625-30.696,40.012c0,0.001,0,0.002,0,0.003
	c1.193,9.514,6.017,17.993,13.583,23.878c6.362,4.948,14.024,7.562,21.951,7.562c1.503,0,3.017-0.094,4.533-0.283
	c14.653-1.827,28.512-7.668,40.08-16.892c11.549-9.213,20.323-21.431,25.376-35.329l6.395-17.585
	c1.019-2.802,0.497-5.932-1.378-8.251C395.055,241.068,392.1,239.904,389.151,240.309z M375.929,263.413
	c-3.982,10.956-10.897,20.584-19.997,27.844c-9.116,7.27-20.035,11.873-31.584,13.313c-5.002,0.628-9.952-0.732-13.934-3.828
	c-3.981-3.095-6.519-7.558-7.149-12.565c-1.276-10.203,5.971-19.648,16.151-21.056l58.084-8.033L375.929,263.413z"/>
<path d="M108.389,304.788c17.306,24.048,44.2,39.96,73.785,43.652c0.357,0.044,0.712,0.067,1.064,0.067
	c4.227,0,7.89-3.149,8.428-7.451c0.582-4.66-2.725-8.909-7.384-9.492c-24.906-3.109-47.537-16.49-62.089-36.71
	c-2.743-3.812-8.057-4.679-11.869-1.935C106.512,295.663,105.645,300.977,108.389,304.788z"/>
<path d="M194.915,250.275l-72.053-9.966c-2.952-0.405-5.904,0.76-7.777,3.076c-1.874,2.317-2.398,5.447-1.381,8.248l6.382,17.583
	c5.032,13.875,13.805,26.093,25.38,35.337c11.565,9.223,25.428,15.064,40.083,16.89c1.517,0.19,3.032,0.285,4.536,0.285
	c7.928,0,15.589-2.616,21.949-7.562c7.569-5.886,12.391-14.367,13.577-23.881C228.035,270.898,214.264,252.949,194.915,250.275z
	 M208.736,288.177c0,0.001,0,0.002,0,0.003c-0.624,5.003-3.16,9.465-7.142,12.561c-3.981,3.096-8.926,4.454-13.936,3.827
	c-11.551-1.44-22.475-6.043-31.584-13.309c-9.121-7.285-16.038-16.913-20.001-27.845l-1.571-4.328l58.083,8.033
	C202.767,268.528,210.011,277.974,208.736,288.177z"/>
<path d="M286.573,378.189h-61.134c-21.281,0-38.594,17.314-38.594,38.594c0,10.298,4.011,19.989,11.306,27.301
	c7.299,7.282,16.99,11.294,27.288,11.294h61.134c21.281,0,38.594-17.314,38.594-38.594c0-10.306-4.017-19.999-11.312-27.295
	C306.569,382.203,296.88,378.189,286.573,378.189z M286.573,438.371h-61.134c-5.763,0-11.187-2.246-15.262-6.313
	c-4.079-4.087-6.325-9.513-6.325-15.275c0-11.904,9.685-21.587,21.587-21.587h61.134c5.763,0,11.183,2.244,15.258,6.319
	c4.083,4.083,6.33,9.505,6.33,15.269C308.161,428.687,298.477,438.371,286.573,438.371z"/>
<path d="M323.229,97.097c-1-3.078-3.661-5.322-6.864-5.787l-36.44-5.295l-16.296-33.021c-1.433-2.903-4.389-4.74-7.626-4.74
	c-3.236,0-6.193,1.838-7.626,4.74L232.08,86.016l-36.44,5.295c-3.203,0.465-5.864,2.709-6.864,5.787
	c-1,3.078-0.166,6.457,2.152,8.717l26.368,25.702l-6.225,36.293c-0.546,3.191,0.764,6.415,3.383,8.318
	c2.618,1.901,6.088,2.153,8.955,0.647l32.593-17.136l32.592,17.136c1.245,0.654,2.602,0.976,3.956,0.976
	c1.763,0,3.518-0.548,4.999-1.624c2.619-1.903,3.93-5.127,3.383-8.318l-6.225-36.293l26.368-25.702
	C323.395,103.554,324.229,100.175,323.229,97.097z M279.637,122.459c-2.005,1.954-2.92,4.769-2.446,7.527l4.068,23.716
	l-21.298-11.197c-2.478-1.302-5.437-1.302-7.914,0l-21.299,11.197l4.068-23.716c0.473-2.759-0.441-5.574-2.446-7.527l-17.231-16.796
	l23.813-3.46c2.77-0.403,5.163-2.142,6.403-4.652l10.65-21.578l10.65,21.578c1.238,2.509,3.633,4.249,6.403,4.652l23.813,3.46
	L279.637,122.459z"/>
<path d="M288.316,408.279H223.69c-4.696,0-8.503,3.807-8.503,8.503c0,4.696,3.807,8.503,8.503,8.503h64.626
	c4.696,0,8.503-3.807,8.503-8.503C296.819,412.086,293.012,408.279,288.316,408.279z"/>
<g>
</g>
<g>
</g>
<g>
</g>
<g>
</g>
<g>
</g>
<g>
</g>
<g>
</g>
<g>
</g>
<g>
</g>
<g>
</g>
<g>
</g>
<g>
</g>
<g>
</g>
<g>
</g>
<g>
</g>
</svg>
