<?xml version="1.0" encoding="iso-8859-1"?>
<!-- Generator: Adobe Illustrator 19.0.0, SVG Export Plug-In . SVG Version: 6.00 Build 0)  -->
<svg version="1.1" id="Layer_1" xmlns="http://www.w3.org/2000/svg" xmlns:xlink="http://www.w3.org/1999/xlink" x="0px" y="0px"
	 viewBox="0 0 512 512" style="enable-background:new 0 0 512 512;" xml:space="preserve">
<g>
	<rect x="366.025" y="9.235" style="fill:#FCCA5F;" width="109.724" height="290.034"/>
	<rect x="256.301" y="9.235" style="fill:#FCCA5F;" width="109.724" height="351.229"/>
	<rect x="146.577" y="9.235" style="fill:#FCCA5F;" width="109.724" height="422.551"/>
	<rect x="36.866" y="9.235" style="fill:#FCCA5F;" width="109.724" height="492.959"/>
</g>
<g>
	<rect x="102.75" y="9.235" style="fill:#E8B459;" width="43.834" height="492.959"/>
	<rect x="212.468" y="9.235" style="fill:#E8B459;" width="43.834" height="422.208"/>
	<rect x="322.192" y="9.235" style="fill:#E8B459;" width="43.834" height="354.693"/>
	<rect x="431.916" y="9.235" style="fill:#E8B459;" width="43.834" height="287.775"/>
</g>
<path d="M495.435,192.012h-10.476V71.456h10.476c5.257,0,9.518-4.262,9.518-9.518s-4.262-9.518-9.518-9.518h-10.476V9.518
	c0-5.257-4.262-9.518-9.518-9.518H36.559c-5.257,0-9.518,4.262-9.518,9.518V52.42H16.565c-5.257,0-9.518,4.262-9.518,9.518
	s4.262,9.518,9.518,9.518h10.476v120.556H16.565c-5.257,0-9.518,4.262-9.518,9.518s4.262,9.518,9.518,9.518h10.476v84.298
	c0,5.257,4.262,9.518,9.518,9.518s9.518-4.262,9.518-9.518v-84.298h90.684v281.916H46.077V325.167c0-5.257-4.262-9.518-9.518-9.518
	s-9.518,4.262-9.518,9.518v177.315c0,5.257,4.262,9.518,9.518,9.518h109.72c5.257,0,9.518-4.262,9.518-9.518v-60.895h100.203
	c5.257,0,9.518-4.262,9.518-9.518V370.27h100.202c5.257,0,9.518-4.262,9.518-9.518v-51.686h100.202c5.257,0,9.518-4.262,9.518-9.518
	v-88.5h10.476c5.257,0,9.518-4.262,9.518-9.518S500.692,192.012,495.435,192.012z M465.922,52.42h-90.684V19.036h90.684V52.42z
	 M356.202,52.42h-90.684V19.036h90.684V52.42z M255.999,143.065c-5.257,0-9.518,4.262-9.518,9.518v39.429h-90.685V71.456h90.685
	v48.767c0,5.256,4.262,9.518,9.518,9.518s9.518-4.262,9.518-9.518V71.456h90.684v120.556h-90.684v-39.429
	C265.517,147.327,261.256,143.065,255.999,143.065z M246.481,52.42h-90.685V19.036h90.685V52.42z M46.077,19.036h90.684V52.42
	H46.077V19.036z M46.077,192.012V71.456h90.684v120.556H46.077z M246.481,422.549h-90.685V211.048h90.685V422.549z M356.202,351.234
	h-90.684V211.048h90.684V351.234z M465.922,290.03h-90.684v-78.982h44.015c5.257,0,9.518-4.262,9.518-9.518
	s-4.262-9.518-9.518-9.518h-44.015V71.456h90.684v120.556h-15.578c-5.257,0-9.518,4.262-9.518,9.518s4.262,9.518,9.518,9.518h15.578
	L465.922,290.03L465.922,290.03z"/>
<g>
</g>
<g>
</g>
<g>
</g>
<g>
</g>
<g>
</g>
<g>
</g>
<g>
</g>
<g>
</g>
<g>
</g>
<g>
</g>
<g>
</g>
<g>
</g>
<g>
</g>
<g>
</g>
<g>
</g>
</svg>
